<svg width="1920" height="524" viewBox="0 0 1920 524" fill="none" xmlns="http://www.w3.org/2000/svg">
<rect width="1920" height="522" fill="url(#paint0_linear)"/>
<g opacity="0.3" filter="url(#filter0_f)">
<ellipse rx="64.6143" ry="66.8786" transform="matrix(0.804443 0.59403 -0.618218 0.786007 876.324 403.91)" fill="#091326"/>
</g>
<g opacity="0.2" filter="url(#filter1_f)">
<ellipse rx="51.732" ry="39.2615" transform="matrix(0.804443 0.59403 -0.618218 0.786007 890.918 398.69)" fill="#303E5A"/>
</g>
<ellipse cx="961.463" cy="378.999" rx="80.999" ry="83.5951" transform="rotate(90 961.463 378.999)" fill="#132038"/>
<ellipse cx="961.463" cy="378.999" rx="80.999" ry="83.5951" transform="rotate(90 961.463 378.999)" fill="url(#paint1_linear)"/>
<ellipse cx="961.463" cy="378.999" rx="80.999" ry="83.5951" transform="rotate(90 961.463 378.999)" fill="url(#paint2_radial)"/>
<ellipse cx="961.463" cy="378.999" rx="80.999" ry="83.5951" transform="rotate(90 961.463 378.999)" fill="url(#paint3_radial)"/>
<ellipse cx="961.463" cy="378.999" rx="80.999" ry="83.5951" transform="rotate(90 961.463 378.999)" fill="url(#paint4_linear)"/>
<g opacity="0.2" filter="url(#filter2_f)">
<ellipse cx="1274.14" cy="158.472" rx="88.4664" ry="67.7045" transform="rotate(37.3112 1274.14 158.472)" fill="#303E5A"/>
</g>
<g filter="url(#filter3_f)">
<path d="M481.743 174.898C497.521 169.05 513.619 157.794 519.061 141.467C495.219 156.757 437.428 172.41 397 112.701C406.322 174.141 448.02 187.396 481.743 174.898Z" fill="#314469"/>
</g>
<g opacity="0.3" filter="url(#filter4_f)">
<ellipse cx="1020.76" cy="424.483" rx="22.1901" ry="19.9795" transform="rotate(37.3112 1020.76 424.483)" fill="#091326"/>
</g>
<g filter="url(#filter5_f)">
<ellipse cx="1030.21" cy="416.04" rx="17.8527" ry="20.4967" transform="rotate(37.3112 1030.21 416.04)" fill="#E2EBF9" fill-opacity="0.4"/>
</g>
<circle cx="1027.5" cy="404.928" r="25.9283" transform="rotate(90 1027.5 404.928)" fill="#00E0CA"/>
<circle cx="1027.5" cy="404.928" r="25.9283" transform="rotate(90 1027.5 404.928)" fill="url(#paint5_linear)"/>
<circle cx="1027.5" cy="404.928" r="25.9283" transform="rotate(90 1027.5 404.928)" fill="url(#paint6_linear)"/>
<circle cx="1027.5" cy="404.928" r="25.9283" transform="rotate(90 1027.5 404.928)" fill="url(#paint7_linear)"/>
<g style="mix-blend-mode:multiply" filter="url(#filter6_f)">
<path d="M1025.77 422.995C1031.3 423.937 1037.83 423.37 1042.12 419.562C1032.69 420.002 1013.39 414.886 1011.67 390.9C1004.11 410.199 1013.95 420.981 1025.77 422.995Z" fill="#00A1D3"/>
</g>
<g filter="url(#filter7_f)">
<path d="M1038.83 388.917C1038.83 388.917 1041.93 389.191 1044.26 392.261C1046.59 395.331 1047.74 402.981 1047.74 402.981C1047.74 402.981 1045.19 396.508 1043.14 393.203C1041.09 389.897 1038.83 388.917 1038.83 388.917Z" fill="#C9FFFA"/>
</g>
<g filter="url(#filter8_f)">
<circle cx="1043.93" cy="393.199" r="0.661111" transform="rotate(17.3802 1043.93 393.199)" fill="white"/>
</g>
<g opacity="0.3" filter="url(#filter9_f)">
<ellipse cx="1390.01" cy="229.174" rx="56.6787" ry="51.0324" transform="rotate(37.3112 1390.01 229.174)" fill="#091326"/>
</g>
<g filter="url(#filter10_f)">
<ellipse cx="1414.16" cy="207.609" rx="45.5998" ry="52.3534" transform="rotate(37.3112 1414.16 207.609)" fill="#E2EBF9" fill-opacity="0.4"/>
</g>
<circle cx="1407.24" cy="179.227" r="66.2269" transform="rotate(90 1407.24 179.227)" fill="#00E0CA"/>
<circle cx="1407.24" cy="179.227" r="66.2269" transform="rotate(90 1407.24 179.227)" fill="url(#paint8_linear)"/>
<circle cx="1407.24" cy="179.227" r="66.2269" transform="rotate(90 1407.24 179.227)" fill="url(#paint9_linear)"/>
<circle cx="1407.24" cy="179.227" r="66.2269" transform="rotate(90 1407.24 179.227)" fill="url(#paint10_linear)"/>
<g style="mix-blend-mode:multiply" filter="url(#filter11_f)">
<path d="M1402.81 225.372C1416.94 227.779 1433.61 226.331 1444.58 216.604C1420.48 217.729 1371.18 204.662 1366.79 143.395C1347.5 192.69 1372.61 220.229 1402.81 225.372Z" fill="#00A1D3"/>
</g>
<g filter="url(#filter12_f)">
<path d="M1436.17 138.33C1436.17 138.33 1444.09 139.031 1450.04 146.872C1456 154.713 1458.92 174.253 1458.92 174.253C1458.92 174.253 1452.41 157.719 1447.17 149.277C1441.93 140.835 1436.17 138.33 1436.17 138.33Z" fill="#C9FFFA"/>
</g>
<g filter="url(#filter13_f)">
<circle cx="1449.19" cy="149.269" r="1.68863" transform="rotate(17.3802 1449.19 149.269)" fill="white"/>
</g>
<defs>
<filter id="filter0_f" x="774.204" y="303.117" width="204.239" height="201.586" filterUnits="userSpaceOnUse" color-interpolation-filters="sRGB">
<feFlood flood-opacity="0" result="BackgroundImageFix"/>
<feBlend mode="normal" in="SourceGraphic" in2="BackgroundImageFix" result="shape"/>
<feGaussianBlur stdDeviation="17.85" result="effect1_foregroundBlur"/>
</filter>
<filter id="filter1_f" x="830.172" y="342.578" width="121.491" height="112.224" filterUnits="userSpaceOnUse" color-interpolation-filters="sRGB">
<feFlood flood-opacity="0" result="BackgroundImageFix"/>
<feBlend mode="normal" in="SourceGraphic" in2="BackgroundImageFix" result="shape"/>
<feGaussianBlur stdDeviation="6.28056" result="effect1_foregroundBlur"/>
</filter>
<filter id="filter2_f" x="1141.98" y="30.2413" width="264.319" height="256.462" filterUnits="userSpaceOnUse" color-interpolation-filters="sRGB">
<feFlood flood-opacity="0" result="BackgroundImageFix"/>
<feBlend mode="normal" in="SourceGraphic" in2="BackgroundImageFix" result="shape"/>
<feGaussianBlur stdDeviation="10.3794" result="effect1_foregroundBlur"/>
</filter>
<filter id="filter3_f" x="376.506" y="92.2068" width="163.05" height="107.456" filterUnits="userSpaceOnUse" color-interpolation-filters="sRGB">
<feFlood flood-opacity="0" result="BackgroundImageFix"/>
<feBlend mode="normal" in="SourceGraphic" in2="BackgroundImageFix" result="shape"/>
<feGaussianBlur stdDeviation="10.2472" result="effect1_foregroundBlur"/>
</filter>
<filter id="filter4_f" x="955.3" y="359.442" width="130.919" height="130.082" filterUnits="userSpaceOnUse" color-interpolation-filters="sRGB">
<feFlood flood-opacity="0" result="BackgroundImageFix"/>
<feBlend mode="normal" in="SourceGraphic" in2="BackgroundImageFix" result="shape"/>
<feGaussianBlur stdDeviation="17.85" result="effect1_foregroundBlur"/>
</filter>
<filter id="filter5_f" x="975.163" y="360.489" width="110.102" height="111.103" filterUnits="userSpaceOnUse" color-interpolation-filters="sRGB">
<feFlood flood-opacity="0" result="BackgroundImageFix"/>
<feBlend mode="normal" in="SourceGraphic" in2="BackgroundImageFix" result="shape"/>
<feGaussianBlur stdDeviation="14.2139" result="effect1_foregroundBlur"/>
</filter>
<filter id="filter6_f" x="985.378" y="375.694" width="76.7482" height="69.962" filterUnits="userSpaceOnUse" color-interpolation-filters="sRGB">
<feFlood flood-opacity="0" result="BackgroundImageFix"/>
<feBlend mode="normal" in="SourceGraphic" in2="BackgroundImageFix" result="shape"/>
<feGaussianBlur stdDeviation="7.60278" result="effect1_foregroundBlur"/>
</filter>
<filter id="filter7_f" x="1035.02" y="386.272" width="16.5286" height="19.3532" filterUnits="userSpaceOnUse" color-interpolation-filters="sRGB">
<feFlood flood-opacity="0" result="BackgroundImageFix"/>
<feBlend mode="normal" in="SourceGraphic" in2="BackgroundImageFix" result="shape"/>
<feGaussianBlur stdDeviation="1.32222" result="effect1_foregroundBlur"/>
</filter>
<filter id="filter8_f" x="1042.44" y="391.71" width="2.97904" height="2.97904" filterUnits="userSpaceOnUse" color-interpolation-filters="sRGB">
<feFlood flood-opacity="0" result="BackgroundImageFix"/>
<feBlend mode="normal" in="SourceGraphic" in2="BackgroundImageFix" result="shape"/>
<feGaussianBlur stdDeviation="0.330556" result="effect1_foregroundBlur"/>
</filter>
<filter id="filter9_f" x="1278.3" y="118.53" width="223.425" height="221.289" filterUnits="userSpaceOnUse" color-interpolation-filters="sRGB">
<feFlood flood-opacity="0" result="BackgroundImageFix"/>
<feBlend mode="normal" in="SourceGraphic" in2="BackgroundImageFix" result="shape"/>
<feGaussianBlur stdDeviation="17.85" result="effect1_foregroundBlur"/>
</filter>
<filter id="filter10_f" x="1273.55" y="65.7186" width="281.226" height="283.782" filterUnits="userSpaceOnUse" color-interpolation-filters="sRGB">
<feFlood flood-opacity="0" result="BackgroundImageFix"/>
<feBlend mode="normal" in="SourceGraphic" in2="BackgroundImageFix" result="shape"/>
<feGaussianBlur stdDeviation="36.3056" result="effect1_foregroundBlur"/>
</filter>
<filter id="filter11_f" x="1299.64" y="104.557" width="196.033" height="178.699" filterUnits="userSpaceOnUse" color-interpolation-filters="sRGB">
<feFlood flood-opacity="0" result="BackgroundImageFix"/>
<feBlend mode="normal" in="SourceGraphic" in2="BackgroundImageFix" result="shape"/>
<feGaussianBlur stdDeviation="19.4193" result="effect1_foregroundBlur"/>
</filter>
<filter id="filter12_f" x="1426.44" y="131.575" width="42.2177" height="49.4325" filterUnits="userSpaceOnUse" color-interpolation-filters="sRGB">
<feFlood flood-opacity="0" result="BackgroundImageFix"/>
<feBlend mode="normal" in="SourceGraphic" in2="BackgroundImageFix" result="shape"/>
<feGaussianBlur stdDeviation="3.37726" result="effect1_foregroundBlur"/>
</filter>
<filter id="filter13_f" x="1445.38" y="145.464" width="7.60916" height="7.60916" filterUnits="userSpaceOnUse" color-interpolation-filters="sRGB">
<feFlood flood-opacity="0" result="BackgroundImageFix"/>
<feBlend mode="normal" in="SourceGraphic" in2="BackgroundImageFix" result="shape"/>
<feGaussianBlur stdDeviation="0.844316" result="effect1_foregroundBlur"/>
</filter>
<linearGradient id="paint0_linear" x1="1920" y1="0" x2="1920" y2="522" gradientUnits="userSpaceOnUse">
<stop stop-color="#485776"/>
<stop offset="1" stop-color="#131F37"/>
</linearGradient>
<linearGradient id="paint1_linear" x1="989.858" y1="417.146" x2="876.579" y2="293.1" gradientUnits="userSpaceOnUse">
<stop stop-color="#1C2942"/>
<stop offset="1" stop-color="#6D9CFF" stop-opacity="0"/>
</linearGradient>
<radialGradient id="paint2_radial" cx="0" cy="0" r="1" gradientUnits="userSpaceOnUse" gradientTransform="translate(995.483 373.147) rotate(15.2348) scale(120.887 124.235)">
<stop stop-color="#3F4D6B"/>
<stop offset="1" stop-color="#3D4B69" stop-opacity="0"/>
</radialGradient>
<radialGradient id="paint3_radial" cx="0" cy="0" r="1" gradientUnits="userSpaceOnUse" gradientTransform="translate(1087.82 529.47) rotate(-66.6045) scale(195.829 191.696)">
<stop stop-color="#76839D"/>
<stop offset="1" stop-color="#808CA6" stop-opacity="0"/>
</radialGradient>
<linearGradient id="paint4_linear" x1="779.229" y1="201.577" x2="923.832" y2="388.127" gradientUnits="userSpaceOnUse">
<stop stop-color="#ADB8CD"/>
<stop offset="1" stop-color="white" stop-opacity="0"/>
<stop offset="1" stop-color="#B2BFD3" stop-opacity="0"/>
</linearGradient>
<linearGradient id="paint5_linear" x1="1001.58" y1="385.512" x2="1027.5" y2="430.857" gradientUnits="userSpaceOnUse">
<stop stop-color="#2EFFEA"/>
<stop offset="1" stop-color="#2EFFEA" stop-opacity="0"/>
</linearGradient>
<linearGradient id="paint6_linear" x1="1048.84" y1="440.053" x2="1030.99" y2="420.881" gradientUnits="userSpaceOnUse">
<stop stop-color="#2EFFEA"/>
<stop offset="1" stop-color="#2EFFEA" stop-opacity="0"/>
</linearGradient>
<linearGradient id="paint7_linear" x1="996.287" y1="368.984" x2="1022.73" y2="413.609" gradientUnits="userSpaceOnUse">
<stop stop-color="white"/>
<stop offset="1" stop-color="white" stop-opacity="0"/>
</linearGradient>
<linearGradient id="paint8_linear" x1="1341.01" y1="129.632" x2="1407.24" y2="245.454" gradientUnits="userSpaceOnUse">
<stop stop-color="#2EFFEA"/>
<stop offset="1" stop-color="#2EFFEA" stop-opacity="0"/>
</linearGradient>
<linearGradient id="paint9_linear" x1="1461.75" y1="268.944" x2="1416.16" y2="219.974" gradientUnits="userSpaceOnUse">
<stop stop-color="#2EFFEA"/>
<stop offset="1" stop-color="#2EFFEA" stop-opacity="0"/>
</linearGradient>
<linearGradient id="paint10_linear" x1="1327.5" y1="87.4164" x2="1395.05" y2="201.399" gradientUnits="userSpaceOnUse">
<stop stop-color="white"/>
<stop offset="1" stop-color="white" stop-opacity="0"/>
</linearGradient>
</defs>
</svg>
