<svg width="261" height="259" viewBox="0 0 261 259" fill="none" xmlns="http://www.w3.org/2000/svg">
<g filter="url(#filter0_f)">
<ellipse cx="116.012" cy="144.174" rx="56.6787" ry="51.0324" transform="rotate(37.3112 116.012 144.174)" fill="#9BEAEF"/>
</g>
<g filter="url(#filter1_f)">
<ellipse cx="140.161" cy="122.609" rx="45.5998" ry="52.3534" transform="rotate(37.3112 140.161 122.609)" fill="#E2EBF9" fill-opacity="0.4"/>
</g>
<circle cx="133.238" cy="94.2269" r="66.2269" transform="rotate(90 133.238 94.2269)" fill="#00E0CA"/>
<circle cx="133.238" cy="94.2269" r="66.2269" transform="rotate(90 133.238 94.2269)" fill="url(#paint0_linear)"/>
<circle cx="133.238" cy="94.2269" r="66.2269" transform="rotate(90 133.238 94.2269)" fill="url(#paint1_linear)"/>
<circle cx="133.238" cy="94.2269" r="66.2269" transform="rotate(90 133.238 94.2269)" fill="url(#paint2_linear)"/>
<g style="mix-blend-mode:multiply" filter="url(#filter2_f)">
<path d="M128.813 140.372C142.944 142.778 159.613 141.331 170.582 131.604C146.481 132.729 97.181 119.662 92.788 58.3952C73.4966 107.69 98.6121 135.229 128.813 140.372Z" fill="#00A1D3"/>
</g>
<g filter="url(#filter3_f)">
<path d="M162.172 53.3298C162.172 53.3298 170.088 54.031 176.042 61.8721C181.996 69.7132 184.919 89.2533 184.919 89.2533C184.919 89.2533 178.405 72.7194 173.169 64.2771C167.934 55.8349 162.172 53.3298 162.172 53.3298Z" fill="#C9FFFA"/>
</g>
<g filter="url(#filter4_f)">
<circle cx="175.186" cy="64.2688" r="1.68863" transform="rotate(17.3802 175.186 64.2688)" fill="white"/>
</g>
<defs>
<filter id="filter0_f" x="0.544239" y="30.2059" width="230.936" height="227.937" filterUnits="userSpaceOnUse" color-interpolation-filters="sRGB">
<feFlood flood-opacity="0" result="BackgroundImageFix"/>
<feBlend mode="normal" in="SourceGraphic" in2="BackgroundImageFix" result="shape"/>
<feGaussianBlur stdDeviation="30.3954" result="effect1_foregroundBlur"/>
</filter>
<filter id="filter1_f" x="19.3586" y="0.014595" width="241.606" height="245.19" filterUnits="userSpaceOnUse" color-interpolation-filters="sRGB">
<feFlood flood-opacity="0" result="BackgroundImageFix"/>
<feBlend mode="normal" in="SourceGraphic" in2="BackgroundImageFix" result="shape"/>
<feGaussianBlur stdDeviation="36.3056" result="effect1_foregroundBlur"/>
</filter>
<filter id="filter2_f" x="47.1888" y="19.5567" width="162.232" height="160.673" filterUnits="userSpaceOnUse" color-interpolation-filters="sRGB">
<feFlood flood-opacity="0" result="BackgroundImageFix"/>
<feBlend mode="normal" in="SourceGraphic" in2="BackgroundImageFix" result="shape"/>
<feGaussianBlur stdDeviation="19.4193" result="effect1_foregroundBlur"/>
</filter>
<filter id="filter3_f" x="155.417" y="46.5753" width="36.2557" height="49.4325" filterUnits="userSpaceOnUse" color-interpolation-filters="sRGB">
<feFlood flood-opacity="0" result="BackgroundImageFix"/>
<feBlend mode="normal" in="SourceGraphic" in2="BackgroundImageFix" result="shape"/>
<feGaussianBlur stdDeviation="3.37726" result="effect1_foregroundBlur"/>
</filter>
<filter id="filter4_f" x="171.808" y="60.891" width="6.75543" height="6.75543" filterUnits="userSpaceOnUse" color-interpolation-filters="sRGB">
<feFlood flood-opacity="0" result="BackgroundImageFix"/>
<feBlend mode="normal" in="SourceGraphic" in2="BackgroundImageFix" result="shape"/>
<feGaussianBlur stdDeviation="0.844316" result="effect1_foregroundBlur"/>
</filter>
<linearGradient id="paint0_linear" x1="67.0111" y1="44.6322" x2="133.238" y2="160.454" gradientUnits="userSpaceOnUse">
<stop stop-color="#2EFFEA"/>
<stop offset="1" stop-color="#2EFFEA" stop-opacity="0"/>
</linearGradient>
<linearGradient id="paint1_linear" x1="187.748" y1="183.944" x2="142.155" y2="134.974" gradientUnits="userSpaceOnUse">
<stop stop-color="#2EFFEA"/>
<stop offset="1" stop-color="#2EFFEA" stop-opacity="0"/>
</linearGradient>
<linearGradient id="paint2_linear" x1="53.5021" y1="2.41638" x2="121.047" y2="116.399" gradientUnits="userSpaceOnUse">
<stop stop-color="white"/>
<stop offset="1" stop-color="white" stop-opacity="0"/>
</linearGradient>
</defs>
</svg>
