<svg width="783" height="460" viewBox="0 0 783 460" fill="none" xmlns="http://www.w3.org/2000/svg">
<g filter="url(#filter0_f)">
<ellipse cx="114.034" cy="345.007" rx="73.5529" ry="76.7697" transform="rotate(37.3112 114.034 345.007)" fill="#CFD8EE" fill-opacity="0.6"/>
</g>
<g filter="url(#filter1_f)">
<ellipse cx="138.16" cy="348.844" rx="58.8885" ry="45.0681" transform="rotate(37.3112 138.16 348.844)" fill="#E2EBF9" fill-opacity="0.4"/>
</g>
<circle cx="193.24" cy="304.527" r="85.5267" transform="rotate(90 193.24 304.527)" fill="#F4F8FF"/>
<circle cx="193.24" cy="304.527" r="85.5267" transform="rotate(90 193.24 304.527)" fill="url(#paint0_linear)"/>
<circle cx="193.24" cy="304.527" r="85.5267" transform="rotate(90 193.24 304.527)" fill="url(#paint1_radial)"/>
<circle cx="193.24" cy="304.527" r="85.5267" transform="rotate(90 193.24 304.527)" fill="url(#paint2_radial)"/>
<circle cx="193.24" cy="304.527" r="85.5267" transform="rotate(90 193.24 304.527)" fill="url(#paint3_linear)"/>
<g filter="url(#filter2_f)">
<path d="M218.897 362.685C236.254 356.252 253.963 343.869 259.95 325.908C233.722 342.729 170.147 359.948 125.673 294.263C135.928 361.852 181.799 376.434 218.897 362.685Z" fill="#C9D5F4"/>
</g>
<g filter="url(#filter3_f)">
<path d="M261.279 291.101C261.279 291.101 268.208 298.673 267.04 311.333C265.873 323.994 251.616 345.154 251.616 345.154C251.616 345.154 259.831 323.726 262.207 311.119C264.582 298.512 261.279 291.101 261.279 291.101Z" fill="white"/>
</g>
<g filter="url(#filter4_f)">
<circle cx="264.427" cy="313.01" r="3.42107" transform="rotate(59.8581 264.427 313.01)" fill="white"/>
</g>
<g filter="url(#filter5_f)">
<ellipse cx="257.759" cy="349.483" rx="22.1901" ry="19.9795" transform="rotate(37.3112 257.759 349.483)" fill="#9BEAEF"/>
</g>
<g filter="url(#filter6_f)">
<ellipse cx="267.214" cy="341.04" rx="17.8527" ry="20.4967" transform="rotate(37.3112 267.214 341.04)" fill="#E2EBF9" fill-opacity="0.4"/>
</g>
<circle cx="264.504" cy="329.928" r="25.9283" transform="rotate(90 264.504 329.928)" fill="#00E0CA"/>
<circle cx="264.504" cy="329.928" r="25.9283" transform="rotate(90 264.504 329.928)" fill="url(#paint4_linear)"/>
<circle cx="264.504" cy="329.928" r="25.9283" transform="rotate(90 264.504 329.928)" fill="url(#paint5_linear)"/>
<circle cx="264.504" cy="329.928" r="25.9283" transform="rotate(90 264.504 329.928)" fill="url(#paint6_linear)"/>
<g style="mix-blend-mode:multiply" filter="url(#filter7_f)">
<path d="M262.771 347.995C268.303 348.937 274.829 348.37 279.124 344.562C269.688 345.002 250.386 339.886 248.667 315.9C241.114 335.199 250.947 345.981 262.771 347.995Z" fill="#00A1D3"/>
</g>
<g filter="url(#filter8_f)">
<path d="M275.831 313.917C275.831 313.917 278.93 314.191 281.261 317.261C283.592 320.331 284.736 327.981 284.736 327.981C284.736 327.981 282.186 321.508 280.137 318.203C278.087 314.897 275.831 313.917 275.831 313.917Z" fill="#C9FFFA"/>
</g>
<g filter="url(#filter9_f)">
<circle cx="280.926" cy="318.199" r="0.661111" transform="rotate(17.3802 280.926 318.199)" fill="white"/>
</g>
<g filter="url(#filter10_f)">
<ellipse cx="638.012" cy="144.174" rx="56.6787" ry="51.0324" transform="rotate(37.3112 638.012 144.174)" fill="#9BEAEF"/>
</g>
<g filter="url(#filter11_f)">
<ellipse cx="662.161" cy="122.609" rx="45.5998" ry="52.3534" transform="rotate(37.3112 662.161 122.609)" fill="#E2EBF9" fill-opacity="0.4"/>
</g>
<circle cx="655.238" cy="94.2269" r="66.2269" transform="rotate(90 655.238 94.2269)" fill="#00E0CA"/>
<circle cx="655.238" cy="94.2269" r="66.2269" transform="rotate(90 655.238 94.2269)" fill="url(#paint7_linear)"/>
<circle cx="655.238" cy="94.2269" r="66.2269" transform="rotate(90 655.238 94.2269)" fill="url(#paint8_linear)"/>
<circle cx="655.238" cy="94.2269" r="66.2269" transform="rotate(90 655.238 94.2269)" fill="url(#paint9_linear)"/>
<g style="mix-blend-mode:multiply" filter="url(#filter12_f)">
<path d="M650.813 140.372C664.944 142.779 681.613 141.331 692.582 131.604C668.481 132.729 619.181 119.662 614.788 58.3953C595.497 107.69 620.612 135.229 650.813 140.372Z" fill="#00A1D3"/>
</g>
<g filter="url(#filter13_f)">
<path d="M684.172 53.3297C684.172 53.3297 692.088 54.0309 698.042 61.872C703.996 69.7131 706.919 89.2531 706.919 89.2531C706.919 89.2531 700.405 72.7193 695.169 64.277C689.934 55.8348 684.172 53.3297 684.172 53.3297Z" fill="#C9FFFA"/>
</g>
<g filter="url(#filter14_f)">
<circle cx="697.186" cy="64.2689" r="1.68863" transform="rotate(17.3802 697.186 64.2689)" fill="white"/>
</g>
<defs>
<filter id="filter0_f" x="0.00762939" y="230.125" width="228.053" height="229.764" filterUnits="userSpaceOnUse" color-interpolation-filters="sRGB">
<feFlood flood-opacity="0" result="BackgroundImageFix"/>
<feBlend mode="normal" in="SourceGraphic" in2="BackgroundImageFix" result="shape"/>
<feGaussianBlur stdDeviation="19.6364" result="effect1_foregroundBlur"/>
</filter>
<filter id="filter1_f" x="70.1111" y="284.44" width="136.098" height="128.81" filterUnits="userSpaceOnUse" color-interpolation-filters="sRGB">
<feFlood flood-opacity="0" result="BackgroundImageFix"/>
<feBlend mode="normal" in="SourceGraphic" in2="BackgroundImageFix" result="shape"/>
<feGaussianBlur stdDeviation="6.90912" result="effect1_foregroundBlur"/>
</filter>
<filter id="filter2_f" x="103.128" y="271.718" width="179.368" height="118.211" filterUnits="userSpaceOnUse" color-interpolation-filters="sRGB">
<feFlood flood-opacity="0" result="BackgroundImageFix"/>
<feBlend mode="normal" in="SourceGraphic" in2="BackgroundImageFix" result="shape"/>
<feGaussianBlur stdDeviation="11.2728" result="effect1_foregroundBlur"/>
</filter>
<filter id="filter3_f" x="245.07" y="284.555" width="28.648" height="67.1444" filterUnits="userSpaceOnUse" color-interpolation-filters="sRGB">
<feFlood flood-opacity="0" result="BackgroundImageFix"/>
<feBlend mode="normal" in="SourceGraphic" in2="BackgroundImageFix" result="shape"/>
<feGaussianBlur stdDeviation="3.27274" result="effect1_foregroundBlur"/>
</filter>
<filter id="filter4_f" x="260.278" y="308.861" width="8.29781" height="8.29781" filterUnits="userSpaceOnUse" color-interpolation-filters="sRGB">
<feFlood flood-opacity="0" result="BackgroundImageFix"/>
<feBlend mode="normal" in="SourceGraphic" in2="BackgroundImageFix" result="shape"/>
<feGaussianBlur stdDeviation="0.363638" result="effect1_foregroundBlur"/>
</filter>
<filter id="filter5_f" x="212.553" y="304.864" width="90.413" height="89.2389" filterUnits="userSpaceOnUse" color-interpolation-filters="sRGB">
<feFlood flood-opacity="0" result="BackgroundImageFix"/>
<feBlend mode="normal" in="SourceGraphic" in2="BackgroundImageFix" result="shape"/>
<feGaussianBlur stdDeviation="11.9" result="effect1_foregroundBlur"/>
</filter>
<filter id="filter6_f" x="219.918" y="293.043" width="94.5906" height="95.9935" filterUnits="userSpaceOnUse" color-interpolation-filters="sRGB">
<feFlood flood-opacity="0" result="BackgroundImageFix"/>
<feBlend mode="normal" in="SourceGraphic" in2="BackgroundImageFix" result="shape"/>
<feGaussianBlur stdDeviation="14.2139" result="effect1_foregroundBlur"/>
</filter>
<filter id="filter7_f" x="230.814" y="300.694" width="63.5151" height="62.9047" filterUnits="userSpaceOnUse" color-interpolation-filters="sRGB">
<feFlood flood-opacity="0" result="BackgroundImageFix"/>
<feBlend mode="normal" in="SourceGraphic" in2="BackgroundImageFix" result="shape"/>
<feGaussianBlur stdDeviation="7.60278" result="effect1_foregroundBlur"/>
</filter>
<filter id="filter8_f" x="273.187" y="311.272" width="14.1944" height="19.3532" filterUnits="userSpaceOnUse" color-interpolation-filters="sRGB">
<feFlood flood-opacity="0" result="BackgroundImageFix"/>
<feBlend mode="normal" in="SourceGraphic" in2="BackgroundImageFix" result="shape"/>
<feGaussianBlur stdDeviation="1.32222" result="effect1_foregroundBlur"/>
</filter>
<filter id="filter9_f" x="279.604" y="316.877" width="2.6448" height="2.6448" filterUnits="userSpaceOnUse" color-interpolation-filters="sRGB">
<feFlood flood-opacity="0" result="BackgroundImageFix"/>
<feBlend mode="normal" in="SourceGraphic" in2="BackgroundImageFix" result="shape"/>
<feGaussianBlur stdDeviation="0.330556" result="effect1_foregroundBlur"/>
</filter>
<filter id="filter10_f" x="522.545" y="30.2059" width="230.936" height="227.937" filterUnits="userSpaceOnUse" color-interpolation-filters="sRGB">
<feFlood flood-opacity="0" result="BackgroundImageFix"/>
<feBlend mode="normal" in="SourceGraphic" in2="BackgroundImageFix" result="shape"/>
<feGaussianBlur stdDeviation="30.3954" result="effect1_foregroundBlur"/>
</filter>
<filter id="filter11_f" x="541.358" y="0.0145493" width="241.606" height="245.19" filterUnits="userSpaceOnUse" color-interpolation-filters="sRGB">
<feFlood flood-opacity="0" result="BackgroundImageFix"/>
<feBlend mode="normal" in="SourceGraphic" in2="BackgroundImageFix" result="shape"/>
<feGaussianBlur stdDeviation="36.3056" result="effect1_foregroundBlur"/>
</filter>
<filter id="filter12_f" x="569.188" y="19.5568" width="162.232" height="160.673" filterUnits="userSpaceOnUse" color-interpolation-filters="sRGB">
<feFlood flood-opacity="0" result="BackgroundImageFix"/>
<feBlend mode="normal" in="SourceGraphic" in2="BackgroundImageFix" result="shape"/>
<feGaussianBlur stdDeviation="19.4193" result="effect1_foregroundBlur"/>
</filter>
<filter id="filter13_f" x="677.417" y="46.5752" width="36.2557" height="49.4325" filterUnits="userSpaceOnUse" color-interpolation-filters="sRGB">
<feFlood flood-opacity="0" result="BackgroundImageFix"/>
<feBlend mode="normal" in="SourceGraphic" in2="BackgroundImageFix" result="shape"/>
<feGaussianBlur stdDeviation="3.37726" result="effect1_foregroundBlur"/>
</filter>
<filter id="filter14_f" x="693.808" y="60.8912" width="6.75543" height="6.75543" filterUnits="userSpaceOnUse" color-interpolation-filters="sRGB">
<feFlood flood-opacity="0" result="BackgroundImageFix"/>
<feBlend mode="normal" in="SourceGraphic" in2="BackgroundImageFix" result="shape"/>
<feGaussianBlur stdDeviation="0.844316" result="effect1_foregroundBlur"/>
</filter>
<linearGradient id="paint0_linear" x1="200.082" y1="326.764" x2="107.713" y2="213.013" gradientUnits="userSpaceOnUse">
<stop stop-color="#D6DEF1"/>
<stop offset="1" stop-color="white" stop-opacity="0"/>
</linearGradient>
<radialGradient id="paint1_radial" cx="0" cy="0" r="1" gradientUnits="userSpaceOnUse" gradientTransform="translate(229.161 298.54) rotate(14.7827) scale(127.374)">
<stop stop-color="#CDDAF7"/>
<stop offset="1" stop-color="white" stop-opacity="0"/>
</radialGradient>
<radialGradient id="paint2_radial" cx="0" cy="0" r="1" gradientUnits="userSpaceOnUse" gradientTransform="translate(326.661 458.475) rotate(-65.9387) scale(201.38)">
<stop stop-color="white"/>
<stop offset="1" stop-color="white" stop-opacity="0"/>
</radialGradient>
<linearGradient id="paint3_linear" x1="0.819225" y1="123.005" x2="147.536" y2="318.348" gradientUnits="userSpaceOnUse">
<stop stop-color="white"/>
<stop offset="1" stop-color="white" stop-opacity="0"/>
</linearGradient>
<linearGradient id="paint4_linear" x1="238.575" y1="310.512" x2="264.504" y2="355.857" gradientUnits="userSpaceOnUse">
<stop stop-color="#2EFFEA"/>
<stop offset="1" stop-color="#2EFFEA" stop-opacity="0"/>
</linearGradient>
<linearGradient id="paint5_linear" x1="285.845" y1="365.053" x2="267.995" y2="345.881" gradientUnits="userSpaceOnUse">
<stop stop-color="#2EFFEA"/>
<stop offset="1" stop-color="#2EFFEA" stop-opacity="0"/>
</linearGradient>
<linearGradient id="paint6_linear" x1="233.286" y1="293.984" x2="259.731" y2="338.609" gradientUnits="userSpaceOnUse">
<stop stop-color="white"/>
<stop offset="1" stop-color="white" stop-opacity="0"/>
</linearGradient>
<linearGradient id="paint7_linear" x1="589.011" y1="44.6322" x2="655.238" y2="160.454" gradientUnits="userSpaceOnUse">
<stop stop-color="#2EFFEA"/>
<stop offset="1" stop-color="#2EFFEA" stop-opacity="0"/>
</linearGradient>
<linearGradient id="paint8_linear" x1="709.749" y1="183.944" x2="664.156" y2="134.974" gradientUnits="userSpaceOnUse">
<stop stop-color="#2EFFEA"/>
<stop offset="1" stop-color="#2EFFEA" stop-opacity="0"/>
</linearGradient>
<linearGradient id="paint9_linear" x1="575.502" y1="2.41642" x2="643.048" y2="116.399" gradientUnits="userSpaceOnUse">
<stop stop-color="white"/>
<stop offset="1" stop-color="white" stop-opacity="0"/>
</linearGradient>
</defs>
</svg>
