<svg width="1920" height="524" viewBox="0 0 1920 524" fill="none" xmlns="http://www.w3.org/2000/svg">
<rect width="1920" height="522" fill="url(#paint0_linear)"/>
<g opacity="0.3" filter="url(#filter0_f)">
<ellipse cx="908.478" cy="427.543" rx="66.8614" ry="69.7855" transform="rotate(37.3112 908.478 427.543)" fill="#091326"/>
</g>
<g opacity="0.2" filter="url(#filter1_f)">
<ellipse cx="923.409" cy="422.032" rx="53.5311" ry="40.968" transform="rotate(37.3112 923.409 422.032)" fill="#303E5A"/>
</g>
<circle cx="980.478" cy="390.746" r="77.7458" transform="rotate(90 980.478 390.746)" fill="#132038"/>
<circle cx="980.478" cy="390.746" r="77.7458" transform="rotate(90 980.478 390.746)" fill="url(#paint1_linear)"/>
<circle cx="980.478" cy="390.746" r="77.7458" transform="rotate(90 980.478 390.746)" fill="url(#paint2_radial)"/>
<circle cx="980.478" cy="390.746" r="77.7458" transform="rotate(90 980.478 390.746)" fill="url(#paint3_radial)"/>
<circle cx="980.478" cy="390.746" r="77.7458" transform="rotate(90 980.478 390.746)" fill="url(#paint4_linear)"/>
<g opacity="0.2" filter="url(#filter2_f)">
<ellipse cx="1313.2" cy="164.187" rx="88.4664" ry="67.7045" transform="rotate(37.3112 1313.2 164.187)" fill="#303E5A"/>
</g>
<g filter="url(#filter3_f)">
<path d="M520.801 180.613C536.579 174.765 552.677 163.509 558.119 147.182C534.277 162.472 476.486 178.125 436.058 118.416C445.38 179.856 487.078 193.111 520.801 180.613Z" fill="#314469"/>
</g>
<g opacity="0.3" filter="url(#filter4_f)">
<ellipse cx="1052.76" cy="438.483" rx="22.1901" ry="19.9795" transform="rotate(37.3112 1052.76 438.483)" fill="#091326"/>
</g>
<g filter="url(#filter5_f)">
<ellipse cx="1062.21" cy="430.04" rx="17.8527" ry="20.4967" transform="rotate(37.3112 1062.21 430.04)" fill="#E2EBF9" fill-opacity="0.4"/>
</g>
<circle cx="1059.5" cy="418.928" r="25.9283" transform="rotate(90 1059.5 418.928)" fill="#00E0CA"/>
<circle cx="1059.5" cy="418.928" r="25.9283" transform="rotate(90 1059.5 418.928)" fill="url(#paint5_linear)"/>
<circle cx="1059.5" cy="418.928" r="25.9283" transform="rotate(90 1059.5 418.928)" fill="url(#paint6_linear)"/>
<circle cx="1059.5" cy="418.928" r="25.9283" transform="rotate(90 1059.5 418.928)" fill="url(#paint7_linear)"/>
<g style="mix-blend-mode:multiply" filter="url(#filter6_f)">
<path d="M1057.77 436.995C1063.3 437.937 1069.83 437.37 1074.12 433.562C1064.69 434.002 1045.39 428.886 1043.67 404.9C1036.11 424.199 1045.95 434.981 1057.77 436.995Z" fill="#00A1D3"/>
</g>
<g filter="url(#filter7_f)">
<path d="M1070.83 402.917C1070.83 402.917 1073.93 403.191 1076.26 406.261C1078.59 409.331 1079.74 416.981 1079.74 416.981C1079.74 416.981 1077.19 410.508 1075.14 407.203C1073.09 403.897 1070.83 402.917 1070.83 402.917Z" fill="#C9FFFA"/>
</g>
<g filter="url(#filter8_f)">
<circle cx="1075.93" cy="407.199" r="0.661111" transform="rotate(17.3802 1075.93 407.199)" fill="white"/>
</g>
<g opacity="0.3" filter="url(#filter9_f)">
<ellipse cx="1433.01" cy="232.174" rx="56.6787" ry="51.0324" transform="rotate(37.3112 1433.01 232.174)" fill="#091326"/>
</g>
<g filter="url(#filter10_f)">
<ellipse cx="1457.16" cy="210.609" rx="45.5998" ry="52.3534" transform="rotate(37.3112 1457.16 210.609)" fill="#E2EBF9" fill-opacity="0.4"/>
</g>
<circle cx="1450.24" cy="182.227" r="66.2269" transform="rotate(90 1450.24 182.227)" fill="#00E0CA"/>
<circle cx="1450.24" cy="182.227" r="66.2269" transform="rotate(90 1450.24 182.227)" fill="url(#paint8_linear)"/>
<circle cx="1450.24" cy="182.227" r="66.2269" transform="rotate(90 1450.24 182.227)" fill="url(#paint9_linear)"/>
<circle cx="1450.24" cy="182.227" r="66.2269" transform="rotate(90 1450.24 182.227)" fill="url(#paint10_linear)"/>
<g style="mix-blend-mode:multiply" filter="url(#filter11_f)">
<path d="M1445.81 228.372C1459.94 230.779 1476.61 229.331 1487.58 219.604C1463.48 220.729 1414.18 207.662 1409.79 146.395C1390.5 195.69 1415.61 223.229 1445.81 228.372Z" fill="#00A1D3"/>
</g>
<g filter="url(#filter12_f)">
<path d="M1479.17 141.33C1479.17 141.33 1487.09 142.031 1493.04 149.872C1499 157.713 1501.92 177.253 1501.92 177.253C1501.92 177.253 1495.41 160.719 1490.17 152.277C1484.93 143.835 1479.17 141.33 1479.17 141.33Z" fill="#C9FFFA"/>
</g>
<g filter="url(#filter13_f)">
<circle cx="1492.19" cy="152.269" r="1.68863" transform="rotate(17.3802 1492.19 152.269)" fill="white"/>
</g>
<defs>
<filter id="filter0_f" x="777.299" y="295.811" width="262.357" height="263.464" filterUnits="userSpaceOnUse" color-interpolation-filters="sRGB">
<feFlood flood-opacity="0" result="BackgroundImageFix"/>
<feBlend mode="normal" in="SourceGraphic" in2="BackgroundImageFix" result="shape"/>
<feGaussianBlur stdDeviation="17.85" result="effect1_foregroundBlur"/>
</filter>
<filter id="filter1_f" x="843.439" y="344.439" width="159.94" height="155.186" filterUnits="userSpaceOnUse" color-interpolation-filters="sRGB">
<feFlood flood-opacity="0" result="BackgroundImageFix"/>
<feBlend mode="normal" in="SourceGraphic" in2="BackgroundImageFix" result="shape"/>
<feGaussianBlur stdDeviation="6.28056" result="effect1_foregroundBlur"/>
</filter>
<filter id="filter2_f" x="1181.04" y="35.9563" width="264.319" height="256.462" filterUnits="userSpaceOnUse" color-interpolation-filters="sRGB">
<feFlood flood-opacity="0" result="BackgroundImageFix"/>
<feBlend mode="normal" in="SourceGraphic" in2="BackgroundImageFix" result="shape"/>
<feGaussianBlur stdDeviation="10.3794" result="effect1_foregroundBlur"/>
</filter>
<filter id="filter3_f" x="415.564" y="97.9219" width="163.05" height="107.456" filterUnits="userSpaceOnUse" color-interpolation-filters="sRGB">
<feFlood flood-opacity="0" result="BackgroundImageFix"/>
<feBlend mode="normal" in="SourceGraphic" in2="BackgroundImageFix" result="shape"/>
<feGaussianBlur stdDeviation="10.2472" result="effect1_foregroundBlur"/>
</filter>
<filter id="filter4_f" x="995.653" y="381.964" width="114.213" height="113.039" filterUnits="userSpaceOnUse" color-interpolation-filters="sRGB">
<feFlood flood-opacity="0" result="BackgroundImageFix"/>
<feBlend mode="normal" in="SourceGraphic" in2="BackgroundImageFix" result="shape"/>
<feGaussianBlur stdDeviation="17.85" result="effect1_foregroundBlur"/>
</filter>
<filter id="filter5_f" x="1014.92" y="382.043" width="94.5906" height="95.9935" filterUnits="userSpaceOnUse" color-interpolation-filters="sRGB">
<feFlood flood-opacity="0" result="BackgroundImageFix"/>
<feBlend mode="normal" in="SourceGraphic" in2="BackgroundImageFix" result="shape"/>
<feGaussianBlur stdDeviation="14.2139" result="effect1_foregroundBlur"/>
</filter>
<filter id="filter6_f" x="1025.81" y="389.694" width="63.5151" height="62.9047" filterUnits="userSpaceOnUse" color-interpolation-filters="sRGB">
<feFlood flood-opacity="0" result="BackgroundImageFix"/>
<feBlend mode="normal" in="SourceGraphic" in2="BackgroundImageFix" result="shape"/>
<feGaussianBlur stdDeviation="7.60278" result="effect1_foregroundBlur"/>
</filter>
<filter id="filter7_f" x="1068.19" y="400.272" width="14.1944" height="19.3532" filterUnits="userSpaceOnUse" color-interpolation-filters="sRGB">
<feFlood flood-opacity="0" result="BackgroundImageFix"/>
<feBlend mode="normal" in="SourceGraphic" in2="BackgroundImageFix" result="shape"/>
<feGaussianBlur stdDeviation="1.32222" result="effect1_foregroundBlur"/>
</filter>
<filter id="filter8_f" x="1074.6" y="405.877" width="2.6448" height="2.6448" filterUnits="userSpaceOnUse" color-interpolation-filters="sRGB">
<feFlood flood-opacity="0" result="BackgroundImageFix"/>
<feBlend mode="normal" in="SourceGraphic" in2="BackgroundImageFix" result="shape"/>
<feGaussianBlur stdDeviation="0.330556" result="effect1_foregroundBlur"/>
</filter>
<filter id="filter9_f" x="1342.64" y="143.297" width="180.754" height="177.755" filterUnits="userSpaceOnUse" color-interpolation-filters="sRGB">
<feFlood flood-opacity="0" result="BackgroundImageFix"/>
<feBlend mode="normal" in="SourceGraphic" in2="BackgroundImageFix" result="shape"/>
<feGaussianBlur stdDeviation="17.85" result="effect1_foregroundBlur"/>
</filter>
<filter id="filter10_f" x="1336.36" y="88.0145" width="241.606" height="245.19" filterUnits="userSpaceOnUse" color-interpolation-filters="sRGB">
<feFlood flood-opacity="0" result="BackgroundImageFix"/>
<feBlend mode="normal" in="SourceGraphic" in2="BackgroundImageFix" result="shape"/>
<feGaussianBlur stdDeviation="36.3056" result="effect1_foregroundBlur"/>
</filter>
<filter id="filter11_f" x="1364.19" y="107.557" width="162.232" height="160.673" filterUnits="userSpaceOnUse" color-interpolation-filters="sRGB">
<feFlood flood-opacity="0" result="BackgroundImageFix"/>
<feBlend mode="normal" in="SourceGraphic" in2="BackgroundImageFix" result="shape"/>
<feGaussianBlur stdDeviation="19.4193" result="effect1_foregroundBlur"/>
</filter>
<filter id="filter12_f" x="1472.42" y="134.575" width="36.2557" height="49.4325" filterUnits="userSpaceOnUse" color-interpolation-filters="sRGB">
<feFlood flood-opacity="0" result="BackgroundImageFix"/>
<feBlend mode="normal" in="SourceGraphic" in2="BackgroundImageFix" result="shape"/>
<feGaussianBlur stdDeviation="3.37726" result="effect1_foregroundBlur"/>
</filter>
<filter id="filter13_f" x="1488.81" y="148.891" width="6.75543" height="6.75543" filterUnits="userSpaceOnUse" color-interpolation-filters="sRGB">
<feFlood flood-opacity="0" result="BackgroundImageFix"/>
<feBlend mode="normal" in="SourceGraphic" in2="BackgroundImageFix" result="shape"/>
<feGaussianBlur stdDeviation="0.844316" result="effect1_foregroundBlur"/>
</filter>
<linearGradient id="paint0_linear" x1="1920" y1="0" x2="1920" y2="522" gradientUnits="userSpaceOnUse">
<stop stop-color="#485776"/>
<stop offset="1" stop-color="#131F37"/>
</linearGradient>
<linearGradient id="paint1_linear" x1="1007.73" y1="426.224" x2="902.732" y2="307.558" gradientUnits="userSpaceOnUse">
<stop stop-color="#1C2942"/>
<stop offset="1" stop-color="#6D9CFF" stop-opacity="0"/>
</linearGradient>
<radialGradient id="paint2_radial" cx="0" cy="0" r="1" gradientUnits="userSpaceOnUse" gradientTransform="translate(1013.13 385.304) rotate(14.7827) scale(115.786)">
<stop stop-color="#3F4D6B"/>
<stop offset="1" stop-color="#3D4B69" stop-opacity="0"/>
</radialGradient>
<radialGradient id="paint3_radial" cx="0" cy="0" r="1" gradientUnits="userSpaceOnUse" gradientTransform="translate(1101.76 530.688) rotate(-65.9387) scale(183.06)">
<stop stop-color="#76839D"/>
<stop offset="1" stop-color="#808CA6" stop-opacity="0"/>
</radialGradient>
<linearGradient id="paint4_linear" x1="805.563" y1="225.738" x2="938.932" y2="403.31" gradientUnits="userSpaceOnUse">
<stop stop-color="#ADB8CD"/>
<stop offset="1" stop-color="white" stop-opacity="0"/>
<stop offset="1" stop-color="#B2BFD3" stop-opacity="0"/>
</linearGradient>
<linearGradient id="paint5_linear" x1="1033.58" y1="399.512" x2="1059.5" y2="444.857" gradientUnits="userSpaceOnUse">
<stop stop-color="#2EFFEA"/>
<stop offset="1" stop-color="#2EFFEA" stop-opacity="0"/>
</linearGradient>
<linearGradient id="paint6_linear" x1="1080.84" y1="454.053" x2="1062.99" y2="434.881" gradientUnits="userSpaceOnUse">
<stop stop-color="#2EFFEA"/>
<stop offset="1" stop-color="#2EFFEA" stop-opacity="0"/>
</linearGradient>
<linearGradient id="paint7_linear" x1="1028.29" y1="382.984" x2="1054.73" y2="427.609" gradientUnits="userSpaceOnUse">
<stop stop-color="white"/>
<stop offset="1" stop-color="white" stop-opacity="0"/>
</linearGradient>
<linearGradient id="paint8_linear" x1="1384.01" y1="132.632" x2="1450.24" y2="248.454" gradientUnits="userSpaceOnUse">
<stop stop-color="#2EFFEA"/>
<stop offset="1" stop-color="#2EFFEA" stop-opacity="0"/>
</linearGradient>
<linearGradient id="paint9_linear" x1="1504.75" y1="271.944" x2="1459.16" y2="222.974" gradientUnits="userSpaceOnUse">
<stop stop-color="#2EFFEA"/>
<stop offset="1" stop-color="#2EFFEA" stop-opacity="0"/>
</linearGradient>
<linearGradient id="paint10_linear" x1="1370.5" y1="90.4164" x2="1438.05" y2="204.399" gradientUnits="userSpaceOnUse">
<stop stop-color="white"/>
<stop offset="1" stop-color="white" stop-opacity="0"/>
</linearGradient>
</defs>
</svg>
