<svg width="1920" height="548" viewBox="0 0 1920 548" fill="none" xmlns="http://www.w3.org/2000/svg">
<rect width="1920" height="522" fill="url(#paint0_linear)"/>
<g filter="url(#filter0_f)">
<ellipse cx="877.034" cy="433.007" rx="73.5529" ry="76.7697" transform="rotate(37.3112 877.034 433.007)" fill="#CFD8EE" fill-opacity="0.6"/>
</g>
<g filter="url(#filter1_f)">
<ellipse cx="901.16" cy="436.844" rx="58.8885" ry="45.0681" transform="rotate(37.3112 901.16 436.844)" fill="#E2EBF9" fill-opacity="0.4"/>
</g>
<circle cx="956.24" cy="392.527" r="85.5267" transform="rotate(90 956.24 392.527)" fill="#F4F8FF"/>
<circle cx="956.24" cy="392.527" r="85.5267" transform="rotate(90 956.24 392.527)" fill="url(#paint1_linear)"/>
<circle cx="956.24" cy="392.527" r="85.5267" transform="rotate(90 956.24 392.527)" fill="url(#paint2_radial)"/>
<circle cx="956.24" cy="392.527" r="85.5267" transform="rotate(90 956.24 392.527)" fill="url(#paint3_radial)"/>
<circle cx="956.24" cy="392.527" r="85.5267" transform="rotate(90 956.24 392.527)" fill="url(#paint4_linear)"/>
<g filter="url(#filter2_f)">
<path d="M981.897 450.685C999.254 444.252 1016.96 431.869 1022.95 413.908C996.722 430.729 933.147 447.948 888.673 382.263C898.928 449.852 944.799 464.434 981.897 450.685Z" fill="#C9D5F4"/>
</g>
<g filter="url(#filter3_f)">
<path d="M1024.28 379.101C1024.28 379.101 1031.21 386.673 1030.04 399.333C1028.87 411.994 1014.62 433.154 1014.62 433.154C1014.62 433.154 1022.83 411.726 1025.21 399.119C1027.58 386.512 1024.28 379.101 1024.28 379.101Z" fill="white"/>
</g>
<g filter="url(#filter4_f)">
<circle cx="1027.43" cy="401.01" r="3.42107" transform="rotate(59.8581 1027.43 401.01)" fill="white"/>
</g>
<g filter="url(#filter5_f)">
<ellipse cx="1020.76" cy="437.483" rx="22.1901" ry="19.9795" transform="rotate(37.3112 1020.76 437.483)" fill="#9BEAEF"/>
</g>
<g filter="url(#filter6_f)">
<ellipse cx="1030.21" cy="429.04" rx="17.8527" ry="20.4967" transform="rotate(37.3112 1030.21 429.04)" fill="#E2EBF9" fill-opacity="0.4"/>
</g>
<circle cx="1027.5" cy="417.928" r="25.9283" transform="rotate(90 1027.5 417.928)" fill="#00E0CA"/>
<circle cx="1027.5" cy="417.928" r="25.9283" transform="rotate(90 1027.5 417.928)" fill="url(#paint5_linear)"/>
<circle cx="1027.5" cy="417.928" r="25.9283" transform="rotate(90 1027.5 417.928)" fill="url(#paint6_linear)"/>
<circle cx="1027.5" cy="417.928" r="25.9283" transform="rotate(90 1027.5 417.928)" fill="url(#paint7_linear)"/>
<g style="mix-blend-mode:multiply" filter="url(#filter7_f)">
<path d="M1025.77 435.995C1031.3 436.937 1037.83 436.37 1042.12 432.562C1032.69 433.002 1013.39 427.886 1011.67 403.9C1004.11 423.199 1013.95 433.981 1025.77 435.995Z" fill="#00A1D3"/>
</g>
<g filter="url(#filter8_f)">
<path d="M1038.83 401.917C1038.83 401.917 1041.93 402.191 1044.26 405.261C1046.59 408.331 1047.74 415.981 1047.74 415.981C1047.74 415.981 1045.19 409.508 1043.14 406.203C1041.09 402.897 1038.83 401.917 1038.83 401.917Z" fill="#C9FFFA"/>
</g>
<g filter="url(#filter9_f)">
<circle cx="1043.93" cy="406.199" r="0.661111" transform="rotate(17.3802 1043.93 406.199)" fill="white"/>
</g>
<g filter="url(#filter10_f)">
<ellipse cx="1401.01" cy="232.174" rx="56.6787" ry="51.0324" transform="rotate(37.3112 1401.01 232.174)" fill="#9BEAEF"/>
</g>
<g filter="url(#filter11_f)">
<ellipse cx="1425.16" cy="210.609" rx="45.5998" ry="52.3534" transform="rotate(37.3112 1425.16 210.609)" fill="#E2EBF9" fill-opacity="0.4"/>
</g>
<circle cx="1418.24" cy="182.227" r="66.2269" transform="rotate(90 1418.24 182.227)" fill="#00E0CA"/>
<circle cx="1418.24" cy="182.227" r="66.2269" transform="rotate(90 1418.24 182.227)" fill="url(#paint8_linear)"/>
<circle cx="1418.24" cy="182.227" r="66.2269" transform="rotate(90 1418.24 182.227)" fill="url(#paint9_linear)"/>
<circle cx="1418.24" cy="182.227" r="66.2269" transform="rotate(90 1418.24 182.227)" fill="url(#paint10_linear)"/>
<g style="mix-blend-mode:multiply" filter="url(#filter12_f)">
<path d="M1413.81 228.372C1427.94 230.779 1444.61 229.331 1455.58 219.604C1431.48 220.729 1382.18 207.662 1377.79 146.395C1358.5 195.69 1383.61 223.229 1413.81 228.372Z" fill="#00A1D3"/>
</g>
<g filter="url(#filter13_f)">
<path d="M1447.17 141.33C1447.17 141.33 1455.09 142.031 1461.04 149.872C1467 157.713 1469.92 177.253 1469.92 177.253C1469.92 177.253 1463.41 160.719 1458.17 152.277C1452.93 143.835 1447.17 141.33 1447.17 141.33Z" fill="#C9FFFA"/>
</g>
<g filter="url(#filter14_f)">
<circle cx="1460.19" cy="152.269" r="1.68863" transform="rotate(17.3802 1460.19 152.269)" fill="white"/>
</g>
<defs>
<filter id="filter0_f" x="763.008" y="318.125" width="228.053" height="229.764" filterUnits="userSpaceOnUse" color-interpolation-filters="sRGB">
<feFlood flood-opacity="0" result="BackgroundImageFix"/>
<feBlend mode="normal" in="SourceGraphic" in2="BackgroundImageFix" result="shape"/>
<feGaussianBlur stdDeviation="19.6364" result="effect1_foregroundBlur"/>
</filter>
<filter id="filter1_f" x="833.111" y="372.44" width="136.098" height="128.81" filterUnits="userSpaceOnUse" color-interpolation-filters="sRGB">
<feFlood flood-opacity="0" result="BackgroundImageFix"/>
<feBlend mode="normal" in="SourceGraphic" in2="BackgroundImageFix" result="shape"/>
<feGaussianBlur stdDeviation="6.90912" result="effect1_foregroundBlur"/>
</filter>
<filter id="filter2_f" x="866.128" y="359.718" width="179.368" height="118.211" filterUnits="userSpaceOnUse" color-interpolation-filters="sRGB">
<feFlood flood-opacity="0" result="BackgroundImageFix"/>
<feBlend mode="normal" in="SourceGraphic" in2="BackgroundImageFix" result="shape"/>
<feGaussianBlur stdDeviation="11.2728" result="effect1_foregroundBlur"/>
</filter>
<filter id="filter3_f" x="1008.07" y="372.555" width="28.648" height="67.1444" filterUnits="userSpaceOnUse" color-interpolation-filters="sRGB">
<feFlood flood-opacity="0" result="BackgroundImageFix"/>
<feBlend mode="normal" in="SourceGraphic" in2="BackgroundImageFix" result="shape"/>
<feGaussianBlur stdDeviation="3.27274" result="effect1_foregroundBlur"/>
</filter>
<filter id="filter4_f" x="1023.28" y="396.861" width="8.29781" height="8.29781" filterUnits="userSpaceOnUse" color-interpolation-filters="sRGB">
<feFlood flood-opacity="0" result="BackgroundImageFix"/>
<feBlend mode="normal" in="SourceGraphic" in2="BackgroundImageFix" result="shape"/>
<feGaussianBlur stdDeviation="0.363638" result="effect1_foregroundBlur"/>
</filter>
<filter id="filter5_f" x="975.553" y="392.864" width="90.413" height="89.2389" filterUnits="userSpaceOnUse" color-interpolation-filters="sRGB">
<feFlood flood-opacity="0" result="BackgroundImageFix"/>
<feBlend mode="normal" in="SourceGraphic" in2="BackgroundImageFix" result="shape"/>
<feGaussianBlur stdDeviation="11.9" result="effect1_foregroundBlur"/>
</filter>
<filter id="filter6_f" x="982.918" y="381.043" width="94.5906" height="95.9935" filterUnits="userSpaceOnUse" color-interpolation-filters="sRGB">
<feFlood flood-opacity="0" result="BackgroundImageFix"/>
<feBlend mode="normal" in="SourceGraphic" in2="BackgroundImageFix" result="shape"/>
<feGaussianBlur stdDeviation="14.2139" result="effect1_foregroundBlur"/>
</filter>
<filter id="filter7_f" x="993.814" y="388.694" width="63.5151" height="62.9047" filterUnits="userSpaceOnUse" color-interpolation-filters="sRGB">
<feFlood flood-opacity="0" result="BackgroundImageFix"/>
<feBlend mode="normal" in="SourceGraphic" in2="BackgroundImageFix" result="shape"/>
<feGaussianBlur stdDeviation="7.60278" result="effect1_foregroundBlur"/>
</filter>
<filter id="filter8_f" x="1036.19" y="399.272" width="14.1944" height="19.3532" filterUnits="userSpaceOnUse" color-interpolation-filters="sRGB">
<feFlood flood-opacity="0" result="BackgroundImageFix"/>
<feBlend mode="normal" in="SourceGraphic" in2="BackgroundImageFix" result="shape"/>
<feGaussianBlur stdDeviation="1.32222" result="effect1_foregroundBlur"/>
</filter>
<filter id="filter9_f" x="1042.6" y="404.877" width="2.6448" height="2.6448" filterUnits="userSpaceOnUse" color-interpolation-filters="sRGB">
<feFlood flood-opacity="0" result="BackgroundImageFix"/>
<feBlend mode="normal" in="SourceGraphic" in2="BackgroundImageFix" result="shape"/>
<feGaussianBlur stdDeviation="0.330556" result="effect1_foregroundBlur"/>
</filter>
<filter id="filter10_f" x="1285.54" y="118.206" width="230.936" height="227.937" filterUnits="userSpaceOnUse" color-interpolation-filters="sRGB">
<feFlood flood-opacity="0" result="BackgroundImageFix"/>
<feBlend mode="normal" in="SourceGraphic" in2="BackgroundImageFix" result="shape"/>
<feGaussianBlur stdDeviation="30.3954" result="effect1_foregroundBlur"/>
</filter>
<filter id="filter11_f" x="1304.36" y="88.0146" width="241.606" height="245.19" filterUnits="userSpaceOnUse" color-interpolation-filters="sRGB">
<feFlood flood-opacity="0" result="BackgroundImageFix"/>
<feBlend mode="normal" in="SourceGraphic" in2="BackgroundImageFix" result="shape"/>
<feGaussianBlur stdDeviation="36.3056" result="effect1_foregroundBlur"/>
</filter>
<filter id="filter12_f" x="1332.19" y="107.557" width="162.232" height="160.673" filterUnits="userSpaceOnUse" color-interpolation-filters="sRGB">
<feFlood flood-opacity="0" result="BackgroundImageFix"/>
<feBlend mode="normal" in="SourceGraphic" in2="BackgroundImageFix" result="shape"/>
<feGaussianBlur stdDeviation="19.4193" result="effect1_foregroundBlur"/>
</filter>
<filter id="filter13_f" x="1440.42" y="134.575" width="36.2557" height="49.4325" filterUnits="userSpaceOnUse" color-interpolation-filters="sRGB">
<feFlood flood-opacity="0" result="BackgroundImageFix"/>
<feBlend mode="normal" in="SourceGraphic" in2="BackgroundImageFix" result="shape"/>
<feGaussianBlur stdDeviation="3.37726" result="effect1_foregroundBlur"/>
</filter>
<filter id="filter14_f" x="1456.81" y="148.891" width="6.75543" height="6.75543" filterUnits="userSpaceOnUse" color-interpolation-filters="sRGB">
<feFlood flood-opacity="0" result="BackgroundImageFix"/>
<feBlend mode="normal" in="SourceGraphic" in2="BackgroundImageFix" result="shape"/>
<feGaussianBlur stdDeviation="0.844316" result="effect1_foregroundBlur"/>
</filter>
<linearGradient id="paint0_linear" x1="1020.57" y1="521.677" x2="1020.57" y2="4.16355" gradientUnits="userSpaceOnUse">
<stop stop-color="#E1E9F9"/>
<stop offset="1" stop-color="#F3F7FF"/>
</linearGradient>
<linearGradient id="paint1_linear" x1="963.082" y1="414.764" x2="870.713" y2="301.013" gradientUnits="userSpaceOnUse">
<stop stop-color="#D6DEF1"/>
<stop offset="1" stop-color="white" stop-opacity="0"/>
</linearGradient>
<radialGradient id="paint2_radial" cx="0" cy="0" r="1" gradientUnits="userSpaceOnUse" gradientTransform="translate(992.161 386.54) rotate(14.7827) scale(127.374)">
<stop stop-color="#CDDAF7"/>
<stop offset="1" stop-color="white" stop-opacity="0"/>
</radialGradient>
<radialGradient id="paint3_radial" cx="0" cy="0" r="1" gradientUnits="userSpaceOnUse" gradientTransform="translate(1089.66 546.475) rotate(-65.9387) scale(201.38)">
<stop stop-color="white"/>
<stop offset="1" stop-color="white" stop-opacity="0"/>
</radialGradient>
<linearGradient id="paint4_linear" x1="763.819" y1="211.005" x2="910.536" y2="406.349" gradientUnits="userSpaceOnUse">
<stop stop-color="white"/>
<stop offset="1" stop-color="white" stop-opacity="0"/>
</linearGradient>
<linearGradient id="paint5_linear" x1="1001.58" y1="398.512" x2="1027.5" y2="443.857" gradientUnits="userSpaceOnUse">
<stop stop-color="#2EFFEA"/>
<stop offset="1" stop-color="#2EFFEA" stop-opacity="0"/>
</linearGradient>
<linearGradient id="paint6_linear" x1="1048.84" y1="453.053" x2="1030.99" y2="433.881" gradientUnits="userSpaceOnUse">
<stop stop-color="#2EFFEA"/>
<stop offset="1" stop-color="#2EFFEA" stop-opacity="0"/>
</linearGradient>
<linearGradient id="paint7_linear" x1="996.286" y1="381.984" x2="1022.73" y2="426.609" gradientUnits="userSpaceOnUse">
<stop stop-color="white"/>
<stop offset="1" stop-color="white" stop-opacity="0"/>
</linearGradient>
<linearGradient id="paint8_linear" x1="1352.01" y1="132.632" x2="1418.24" y2="248.454" gradientUnits="userSpaceOnUse">
<stop stop-color="#2EFFEA"/>
<stop offset="1" stop-color="#2EFFEA" stop-opacity="0"/>
</linearGradient>
<linearGradient id="paint9_linear" x1="1472.75" y1="271.944" x2="1427.16" y2="222.974" gradientUnits="userSpaceOnUse">
<stop stop-color="#2EFFEA"/>
<stop offset="1" stop-color="#2EFFEA" stop-opacity="0"/>
</linearGradient>
<linearGradient id="paint10_linear" x1="1338.5" y1="90.4164" x2="1406.05" y2="204.399" gradientUnits="userSpaceOnUse">
<stop stop-color="white"/>
<stop offset="1" stop-color="white" stop-opacity="0"/>
</linearGradient>
</defs>
</svg>
