<svg width="224" height="236" viewBox="0 0 224 236" fill="none" xmlns="http://www.w3.org/2000/svg">
<g opacity="0.3" filter="url(#filter0_f)">
<ellipse cx="112.012" cy="125.174" rx="56.6787" ry="51.0324" transform="rotate(37.3112 112.012 125.174)" fill="#091326"/>
</g>
<g opacity="0.2" filter="url(#filter1_f)">
<ellipse cx="136.161" cy="103.609" rx="45.5998" ry="52.3534" transform="rotate(37.3112 136.161 103.609)" fill="#303E5A"/>
</g>
<circle cx="129.238" cy="75.2269" r="66.2269" transform="rotate(90 129.238 75.2269)" fill="#00E0CA"/>
<circle cx="129.238" cy="75.2269" r="66.2269" transform="rotate(90 129.238 75.2269)" fill="url(#paint0_linear)"/>
<circle cx="129.238" cy="75.2269" r="66.2269" transform="rotate(90 129.238 75.2269)" fill="url(#paint1_linear)"/>
<circle cx="129.238" cy="75.2269" r="66.2269" transform="rotate(90 129.238 75.2269)" fill="url(#paint2_linear)"/>
<g style="mix-blend-mode:multiply" filter="url(#filter2_f)">
<path d="M124.813 121.372C138.944 123.779 155.613 122.331 166.582 112.604C142.481 113.729 93.181 100.662 88.788 39.3953C69.4966 88.6903 94.6121 116.229 124.813 121.372Z" fill="#00A1D3"/>
</g>
<g filter="url(#filter3_f)">
<path d="M158.172 34.3297C158.172 34.3297 166.088 35.0309 172.042 42.872C177.996 50.7131 180.919 70.2531 180.919 70.2531C180.919 70.2531 174.405 53.7193 169.169 45.277C163.934 36.8348 158.172 34.3297 158.172 34.3297Z" fill="#C9FFFA"/>
</g>
<g filter="url(#filter4_f)">
<circle cx="171.186" cy="45.2689" r="1.68863" transform="rotate(17.3802 171.186 45.2689)" fill="white"/>
</g>
<defs>
<filter id="filter0_f" x="0.299019" y="14.5301" width="223.425" height="221.289" filterUnits="userSpaceOnUse" color-interpolation-filters="sRGB">
<feFlood flood-opacity="0" result="BackgroundImageFix"/>
<feBlend mode="normal" in="SourceGraphic" in2="BackgroundImageFix" result="shape"/>
<feGaussianBlur stdDeviation="17.85" result="effect1_foregroundBlur"/>
</filter>
<filter id="filter1_f" x="55.5981" y="21.7686" width="161.126" height="163.681" filterUnits="userSpaceOnUse" color-interpolation-filters="sRGB">
<feFlood flood-opacity="0" result="BackgroundImageFix"/>
<feBlend mode="normal" in="SourceGraphic" in2="BackgroundImageFix" result="shape"/>
<feGaussianBlur stdDeviation="6.28056" result="effect1_foregroundBlur"/>
</filter>
<filter id="filter2_f" x="21.64" y="0.556763" width="196.033" height="178.699" filterUnits="userSpaceOnUse" color-interpolation-filters="sRGB">
<feFlood flood-opacity="0" result="BackgroundImageFix"/>
<feBlend mode="normal" in="SourceGraphic" in2="BackgroundImageFix" result="shape"/>
<feGaussianBlur stdDeviation="19.4193" result="effect1_foregroundBlur"/>
</filter>
<filter id="filter3_f" x="148.436" y="27.5752" width="42.2177" height="49.4325" filterUnits="userSpaceOnUse" color-interpolation-filters="sRGB">
<feFlood flood-opacity="0" result="BackgroundImageFix"/>
<feBlend mode="normal" in="SourceGraphic" in2="BackgroundImageFix" result="shape"/>
<feGaussianBlur stdDeviation="3.37726" result="effect1_foregroundBlur"/>
</filter>
<filter id="filter4_f" x="167.382" y="41.4643" width="7.60916" height="7.60916" filterUnits="userSpaceOnUse" color-interpolation-filters="sRGB">
<feFlood flood-opacity="0" result="BackgroundImageFix"/>
<feBlend mode="normal" in="SourceGraphic" in2="BackgroundImageFix" result="shape"/>
<feGaussianBlur stdDeviation="0.844316" result="effect1_foregroundBlur"/>
</filter>
<linearGradient id="paint0_linear" x1="63.0111" y1="25.6322" x2="129.238" y2="141.454" gradientUnits="userSpaceOnUse">
<stop stop-color="#2EFFEA"/>
<stop offset="1" stop-color="#2EFFEA" stop-opacity="0"/>
</linearGradient>
<linearGradient id="paint1_linear" x1="183.748" y1="164.944" x2="138.155" y2="115.974" gradientUnits="userSpaceOnUse">
<stop stop-color="#2EFFEA"/>
<stop offset="1" stop-color="#2EFFEA" stop-opacity="0"/>
</linearGradient>
<linearGradient id="paint2_linear" x1="49.5021" y1="-16.5836" x2="117.047" y2="97.399" gradientUnits="userSpaceOnUse">
<stop stop-color="white"/>
<stop offset="1" stop-color="white" stop-opacity="0"/>
</linearGradient>
</defs>
</svg>
