<svg width="298" height="220" viewBox="0 0 298 220" fill="none" xmlns="http://www.w3.org/2000/svg">
<g opacity="0.3" filter="url(#filter0_f)">
<ellipse cx="104.671" cy="114.775" rx="66.9963" ry="69.9264" transform="rotate(37.3112 104.671 114.775)" fill="#091326"/>
</g>
<g opacity="0.2" filter="url(#filter1_f)">
<ellipse cx="119.632" cy="109.252" rx="53.6391" ry="41.0507" transform="rotate(37.3112 119.632 109.252)" fill="#303E5A"/>
</g>
<circle cx="176.816" cy="77.9027" r="77.9027" transform="rotate(90 176.816 77.9027)" fill="#132038"/>
<circle cx="176.816" cy="77.9027" r="77.9027" transform="rotate(90 176.816 77.9027)" fill="url(#paint0_linear)"/>
<circle cx="176.816" cy="77.9027" r="77.9027" transform="rotate(90 176.816 77.9027)" fill="url(#paint1_radial)"/>
<circle cx="176.816" cy="77.9027" r="77.9027" transform="rotate(90 176.816 77.9027)" fill="url(#paint2_radial)"/>
<circle cx="176.816" cy="77.9027" r="77.9027" transform="rotate(90 176.816 77.9027)" fill="url(#paint3_linear)"/>
<g opacity="0.3" filter="url(#filter2_f)">
<ellipse cx="231.596" cy="131.483" rx="22.1901" ry="19.9795" transform="rotate(37.3112 231.596 131.483)" fill="#091326"/>
</g>
<g filter="url(#filter3_f)">
<ellipse cx="241.051" cy="123.04" rx="17.8527" ry="20.4967" transform="rotate(37.3112 241.051 123.04)" fill="#E2EBF9" fill-opacity="0.4"/>
</g>
<circle cx="238.34" cy="111.928" r="25.9283" transform="rotate(90 238.34 111.928)" fill="#00E0CA"/>
<circle cx="238.34" cy="111.928" r="25.9283" transform="rotate(90 238.34 111.928)" fill="url(#paint4_linear)"/>
<circle cx="238.34" cy="111.928" r="25.9283" transform="rotate(90 238.34 111.928)" fill="url(#paint5_linear)"/>
<circle cx="238.34" cy="111.928" r="25.9283" transform="rotate(90 238.34 111.928)" fill="url(#paint6_linear)"/>
<g style="mix-blend-mode:multiply" filter="url(#filter4_f)">
<path d="M236.607 129.995C242.139 130.937 248.666 130.37 252.96 126.562C243.524 127.002 224.223 121.887 222.503 97.9002C214.95 117.2 224.783 127.981 236.607 129.995Z" fill="#00A1D3"/>
</g>
<g filter="url(#filter5_f)">
<path d="M249.668 95.9165C249.668 95.9165 252.767 96.191 255.098 99.2609C257.429 102.331 258.573 109.981 258.573 109.981C258.573 109.981 256.023 103.508 253.974 100.202C251.924 96.8972 249.668 95.9165 249.668 95.9165Z" fill="#C9FFFA"/>
</g>
<g filter="url(#filter6_f)">
<circle cx="254.763" cy="100.2" r="0.661111" transform="rotate(17.3802 254.763 100.2)" fill="white"/>
</g>
<defs>
<filter id="filter0_f" x="0.88105" y="10.2053" width="207.58" height="209.138" filterUnits="userSpaceOnUse" color-interpolation-filters="sRGB">
<feFlood flood-opacity="0" result="BackgroundImageFix"/>
<feBlend mode="normal" in="SourceGraphic" in2="BackgroundImageFix" result="shape"/>
<feGaussianBlur stdDeviation="17.85" result="effect1_foregroundBlur"/>
</filter>
<filter id="filter1_f" x="57.6742" y="50.6132" width="123.915" height="117.277" filterUnits="userSpaceOnUse" color-interpolation-filters="sRGB">
<feFlood flood-opacity="0" result="BackgroundImageFix"/>
<feBlend mode="normal" in="SourceGraphic" in2="BackgroundImageFix" result="shape"/>
<feGaussianBlur stdDeviation="6.28056" result="effect1_foregroundBlur"/>
</filter>
<filter id="filter2_f" x="166.137" y="66.4416" width="130.919" height="130.082" filterUnits="userSpaceOnUse" color-interpolation-filters="sRGB">
<feFlood flood-opacity="0" result="BackgroundImageFix"/>
<feBlend mode="normal" in="SourceGraphic" in2="BackgroundImageFix" result="shape"/>
<feGaussianBlur stdDeviation="17.85" result="effect1_foregroundBlur"/>
</filter>
<filter id="filter3_f" x="186" y="67.4887" width="110.102" height="111.103" filterUnits="userSpaceOnUse" color-interpolation-filters="sRGB">
<feFlood flood-opacity="0" result="BackgroundImageFix"/>
<feBlend mode="normal" in="SourceGraphic" in2="BackgroundImageFix" result="shape"/>
<feGaussianBlur stdDeviation="14.2139" result="effect1_foregroundBlur"/>
</filter>
<filter id="filter4_f" x="196.214" y="82.6948" width="76.7482" height="69.962" filterUnits="userSpaceOnUse" color-interpolation-filters="sRGB">
<feFlood flood-opacity="0" result="BackgroundImageFix"/>
<feBlend mode="normal" in="SourceGraphic" in2="BackgroundImageFix" result="shape"/>
<feGaussianBlur stdDeviation="7.60278" result="effect1_foregroundBlur"/>
</filter>
<filter id="filter5_f" x="245.857" y="93.2721" width="16.5286" height="19.3532" filterUnits="userSpaceOnUse" color-interpolation-filters="sRGB">
<feFlood flood-opacity="0" result="BackgroundImageFix"/>
<feBlend mode="normal" in="SourceGraphic" in2="BackgroundImageFix" result="shape"/>
<feGaussianBlur stdDeviation="1.32222" result="effect1_foregroundBlur"/>
</filter>
<filter id="filter6_f" x="253.273" y="98.71" width="2.97904" height="2.97904" filterUnits="userSpaceOnUse" color-interpolation-filters="sRGB">
<feFlood flood-opacity="0" result="BackgroundImageFix"/>
<feBlend mode="normal" in="SourceGraphic" in2="BackgroundImageFix" result="shape"/>
<feGaussianBlur stdDeviation="0.330556" result="effect1_foregroundBlur"/>
</filter>
<linearGradient id="paint0_linear" x1="204.125" y1="113.452" x2="98.9133" y2="-5.45319" gradientUnits="userSpaceOnUse">
<stop stop-color="#1C2942"/>
<stop offset="1" stop-color="#6D9CFF" stop-opacity="0"/>
</linearGradient>
<radialGradient id="paint1_radial" cx="0" cy="0" r="1" gradientUnits="userSpaceOnUse" gradientTransform="translate(209.535 72.4495) rotate(14.7827) scale(116.02)">
<stop stop-color="#3F4D6B"/>
<stop offset="1" stop-color="#3D4B69" stop-opacity="0"/>
</radialGradient>
<radialGradient id="paint2_radial" cx="0" cy="0" r="1" gradientUnits="userSpaceOnUse" gradientTransform="translate(298.344 218.128) rotate(-65.9387) scale(183.429)">
<stop stop-color="#76839D"/>
<stop offset="1" stop-color="#808CA6" stop-opacity="0"/>
</radialGradient>
<linearGradient id="paint3_linear" x1="1.54803" y1="-87.4379" x2="135.187" y2="90.4925" gradientUnits="userSpaceOnUse">
<stop stop-color="#ADB8CD"/>
<stop offset="1" stop-color="white" stop-opacity="0"/>
<stop offset="1" stop-color="#B2BFD3" stop-opacity="0"/>
</linearGradient>
<linearGradient id="paint4_linear" x1="212.412" y1="92.5116" x2="238.34" y2="137.857" gradientUnits="userSpaceOnUse">
<stop stop-color="#2EFFEA"/>
<stop offset="1" stop-color="#2EFFEA" stop-opacity="0"/>
</linearGradient>
<linearGradient id="paint5_linear" x1="259.681" y1="147.053" x2="241.831" y2="127.881" gradientUnits="userSpaceOnUse">
<stop stop-color="#2EFFEA"/>
<stop offset="1" stop-color="#2EFFEA" stop-opacity="0"/>
</linearGradient>
<linearGradient id="paint6_linear" x1="207.123" y1="75.9838" x2="233.568" y2="120.609" gradientUnits="userSpaceOnUse">
<stop stop-color="white"/>
<stop offset="1" stop-color="white" stop-opacity="0"/>
</linearGradient>
</defs>
</svg>
