<svg width="12" height="12" viewBox="0 0 12 12" fill="none" xmlns="http://www.w3.org/2000/svg">
<path d="M7.6151 6.00057L11.6514 1.96311C11.7605 1.85778 11.8475 1.73179 11.9073 1.59248C11.9671 1.45318 11.9986 1.30335 12 1.15174C12.0013 1.00013 11.9724 0.849774 11.915 0.709449C11.8576 0.569124 11.7728 0.441638 11.6656 0.33443C11.5584 0.227222 11.4309 0.142439 11.2906 0.0850271C11.1502 0.0276156 10.9999 -0.00127433 10.8483 4.31112e-05C10.6967 0.00136056 10.5468 0.032859 10.4075 0.0927004C10.2682 0.152542 10.1422 0.239528 10.0369 0.348583L5.99943 4.3849L1.96311 0.348583C1.85778 0.239528 1.73179 0.152542 1.59248 0.0927004C1.45318 0.032859 1.30335 0.00136056 1.15174 4.31112e-05C1.00013 -0.00127433 0.849774 0.0276156 0.709449 0.0850271C0.569124 0.142439 0.441638 0.227222 0.33443 0.33443C0.227222 0.441638 0.142439 0.569124 0.0850271 0.709449C0.0276156 0.849774 -0.00127433 1.00013 4.31112e-05 1.15174C0.00136056 1.30335 0.032859 1.45318 0.0927004 1.59248C0.152542 1.73179 0.239528 1.85778 0.348583 1.96311L4.3849 5.99943L0.348583 10.0369C0.239528 10.1422 0.152542 10.2682 0.0927004 10.4075C0.032859 10.5468 0.00136056 10.6967 4.31112e-05 10.8483C-0.00127433 10.9999 0.0276156 11.1502 0.0850271 11.2906C0.142439 11.4309 0.227222 11.5584 0.33443 11.6656C0.441638 11.7728 0.569124 11.8576 0.709449 11.915C0.849774 11.9724 1.00013 12.0013 1.15174 12C1.30335 11.9986 1.45318 11.9671 1.59248 11.9073C1.73179 11.8475 1.85778 11.7605 1.96311 11.6514L5.99943 7.6151L10.0369 11.6514C10.1422 11.7605 10.2682 11.8475 10.4075 11.9073C10.5468 11.9671 10.6967 11.9986 10.8483 12C10.9999 12.0013 11.1502 11.9724 11.2906 11.915C11.4309 11.8576 11.5584 11.7728 11.6656 11.6656C11.7728 11.5584 11.8576 11.4309 11.915 11.2906C11.9724 11.1502 12.0013 10.9999 12 10.8483C11.9986 10.6967 11.9671 10.5468 11.9073 10.4075C11.8475 10.2682 11.7605 10.1422 11.6514 10.0369L7.6151 5.99943V6.00057Z" fill="#9AADCE"/>
</svg>
