<svg width="16" height="16" viewBox="0 0 16 16" fill="none" xmlns="http://www.w3.org/2000/svg">
<path d="M13.3968 14.8787C13.7873 15.2692 14.4204 15.2692 14.811 14.8787L14.8785 14.8111C15.269 14.4206 15.269 13.7874 14.8785 13.3969L9.06744 7.58579L14.8785 1.77469C15.269 1.38416 15.269 0.750995 14.8785 0.360468L14.8109 0.292948C14.4204 -0.0975789 13.7873 -0.0975778 13.3967 0.292949L7.58572 6.10404L1.77465 0.292895C1.38412 -0.097632 0.750964 -0.0976315 0.360442 0.292895L0.292923 0.360415C-0.0975984 0.750942 -0.0975974 1.38411 0.292924 1.77464L6.10399 7.58579L0.292891 13.397C-0.0976306 13.7875 -0.0976302 14.4207 0.292891 14.8112L0.36041 14.8787C0.750932 15.2692 1.38409 15.2692 1.77461 14.8787L7.58572 9.06753L13.3968 14.8787Z" fill="#485776"/>
</svg>
