<svg width="18" height="18" viewBox="0 0 18 18" fill="none" xmlns="http://www.w3.org/2000/svg">
<path fill-rule="evenodd" clip-rule="evenodd" d="M16.3409 14.208C14.7099 16.5029 12.0298 18 9 18C4.02944 18 0 13.9706 0 9C0 4.02944 4.02944 0 9 0C12.0298 0 14.7099 1.49713 16.3409 3.79195C17.3594 5.0734 18 6.93197 18 9C18 11.068 17.3594 12.9266 16.3409 14.208ZM11.3333 15.6017C10.6035 15.8596 9.81815 16 9 16C5.13401 16 2 12.866 2 9C2 5.13401 5.13401 2 9 2C9.81815 2 10.6035 2.14036 11.3333 2.39831C9.39135 3.35927 8 5.95216 8 9C8 12.0478 9.39135 14.6407 11.3333 15.6017Z" fill="#485776"/>
</svg>
