<svg width="210" height="48" viewBox="0 0 210 48" fill="none" xmlns="http://www.w3.org/2000/svg">
<path d="M32.3205 10.3169C33.5157 10.3169 34.4845 9.35052 34.4845 8.15845C34.4845 6.96637 33.5157 6 32.3205 6C31.1254 6 30.1565 6.96637 30.1565 8.15845C30.1565 9.35052 31.1254 10.3169 32.3205 10.3169Z" fill="#F6F8FC"/>
<path d="M34.7551 40.8052C35.9502 40.8052 36.9191 39.8388 36.9191 38.6467C36.9191 37.4546 35.9502 36.4883 34.7551 36.4883C33.5599 36.4883 32.5911 37.4546 32.5911 38.6467C32.5911 39.8388 33.5599 40.8052 34.7551 40.8052Z" fill="#F6F8FC"/>
<path d="M32.939 15.7129C33.9421 15.7129 34.7553 14.9019 34.7553 13.9014C34.7553 12.9009 33.9421 12.0898 32.939 12.0898C31.936 12.0898 31.1228 12.9009 31.1228 13.9014C31.1228 14.9019 31.936 15.7129 32.939 15.7129Z" fill="#F6F8FC"/>
<path d="M37.7698 16.4063C38.7729 16.4063 39.5861 15.5952 39.5861 14.5948C39.5861 13.5943 38.7729 12.7832 37.7698 12.7832C36.7668 12.7832 35.9536 13.5943 35.9536 14.5948C35.9536 15.5952 36.7668 16.4063 37.7698 16.4063Z" fill="#F6F8FC"/>
<path d="M32.3209 20.2993C33.1746 20.2993 33.8666 19.6091 33.8666 18.7576C33.8666 17.9061 33.1746 17.2158 32.3209 17.2158C31.4672 17.2158 30.7751 17.9061 30.7751 18.7576C30.7751 19.6091 31.4672 20.2993 32.3209 20.2993Z" fill="#F6F8FC"/>
<path d="M37.1508 20.9556C38.0045 20.9556 38.6966 20.2653 38.6966 19.4138C38.6966 18.5623 38.0045 17.8721 37.1508 17.8721C36.2972 17.8721 35.6051 18.5623 35.6051 19.4138C35.6051 20.2653 36.2972 20.9556 37.1508 20.9556Z" fill="#F6F8FC"/>
<path d="M41.0155 22.4585C41.8691 22.4585 42.5612 21.7682 42.5612 20.9167C42.5612 20.0653 41.8691 19.375 41.0155 19.375C40.1618 19.375 39.4697 20.0653 39.4697 20.9167C39.4697 21.7682 40.1618 22.4585 41.0155 22.4585Z" fill="#F6F8FC"/>
<path d="M35.7212 24.6551C36.4681 24.6551 37.0737 24.0511 37.0737 23.3061C37.0737 22.561 36.4681 21.957 35.7212 21.957C34.9742 21.957 34.3687 22.561 34.3687 23.3061C34.3687 24.0511 34.9742 24.6551 35.7212 24.6551Z" fill="#F6F8FC"/>
<path d="M30.8911 23.9998C31.6381 23.9998 32.2436 23.3958 32.2436 22.6508C32.2436 21.9057 31.6381 21.3018 30.8911 21.3018C30.1441 21.3018 29.5386 21.9057 29.5386 22.6508C29.5386 23.3958 30.1441 23.9998 30.8911 23.9998Z" fill="#F6F8FC"/>
<path d="M39.6241 26.158C40.3711 26.158 40.9766 25.554 40.9766 24.809C40.9766 24.0639 40.3711 23.46 39.6241 23.46C38.8771 23.46 38.2716 24.0639 38.2716 24.809C38.2716 25.554 38.8771 26.158 39.6241 26.158Z" fill="#F6F8FC"/>
<path d="M33.7894 27.4689C34.4297 27.4689 34.9487 26.9512 34.9487 26.3126C34.9487 25.6739 34.4297 25.1562 33.7894 25.1562C33.1492 25.1562 32.6301 25.6739 32.6301 26.3126C32.6301 26.9512 33.1492 27.4689 33.7894 27.4689Z" fill="#F6F8FC"/>
<path d="M37.6924 28.9337C38.3326 28.9337 38.8517 28.416 38.8517 27.7774C38.8517 27.1388 38.3326 26.6211 37.6924 26.6211C37.0521 26.6211 36.5331 27.1388 36.5331 27.7774C36.5331 28.416 37.0521 28.9337 37.6924 28.9337Z" fill="#F6F8FC"/>
<path d="M28.9972 26.7745C29.6375 26.7745 30.1565 26.2568 30.1565 25.6182C30.1565 24.9796 29.6375 24.4619 28.9972 24.4619C28.3569 24.4619 27.8379 24.9796 27.8379 25.6182C27.8379 26.2568 28.3569 26.7745 28.9972 26.7745Z" fill="#F6F8FC"/>
<path d="M31.6637 29.3579C32.1973 29.3579 32.6298 28.9264 32.6298 28.3943C32.6298 27.8621 32.1973 27.4307 31.6637 27.4307C31.1302 27.4307 30.6976 27.8621 30.6976 28.3943C30.6976 28.9264 31.1302 29.3579 31.6637 29.3579Z" fill="#F6F8FC"/>
<path d="M33.3254 32.0172C33.7949 32.0172 34.1755 31.6376 34.1755 31.1693C34.1755 30.7009 33.7949 30.3213 33.3254 30.3213C32.8558 30.3213 32.4752 30.7009 32.4752 31.1693C32.4752 31.6376 32.8558 32.0172 33.3254 32.0172Z" fill="#F6F8FC"/>
<path d="M31.2772 32.5565C31.6614 32.5565 31.9728 32.2459 31.9728 31.8627C31.9728 31.4796 31.6614 31.1689 31.2772 31.1689C30.8931 31.1689 30.5817 31.4796 30.5817 31.8627C30.5817 32.2459 30.8931 32.5565 31.2772 32.5565Z" fill="#F6F8FC"/>
<path d="M29.4609 30.5524C29.9304 30.5524 30.311 30.1727 30.311 29.7044C30.311 29.2361 29.9304 28.8564 29.4609 28.8564C28.9913 28.8564 28.6107 29.2361 28.6107 29.7044C28.6107 30.1727 28.9913 30.5524 29.4609 30.5524Z" fill="#F6F8FC"/>
<path d="M26.8336 28.7026C27.3672 28.7026 27.7997 28.2712 27.7997 27.739C27.7997 27.2068 27.3672 26.7754 26.8336 26.7754C26.3001 26.7754 25.8676 27.2068 25.8676 27.739C25.8676 28.2712 26.3001 28.7026 26.8336 28.7026Z" fill="#F6F8FC"/>
<path d="M26.7946 21.4555C27.3281 21.4555 27.7607 21.0241 27.7607 20.4919C27.7607 19.9597 27.3281 19.5283 26.7946 19.5283C26.261 19.5283 25.8285 19.9597 25.8285 20.4919C25.8285 21.0241 26.261 21.4555 26.7946 21.4555Z" fill="#F6F8FC"/>
<path d="M27.2197 18.0641C27.6892 18.0641 28.0698 17.6844 28.0698 17.2161C28.0698 16.7478 27.6892 16.3682 27.2197 16.3682C26.7501 16.3682 26.3695 16.7478 26.3695 17.2161C26.3695 17.6844 26.7501 18.0641 27.2197 18.0641Z" fill="#F6F8FC"/>
<path d="M28.1474 15.2889C28.5315 15.2889 28.8429 14.9783 28.8429 14.5952C28.8429 14.212 28.5315 13.9014 28.1474 13.9014C27.7632 13.9014 27.4518 14.212 27.4518 14.5952C27.4518 14.9783 27.7632 15.2889 28.1474 15.2889Z" fill="#F6F8FC"/>
<path d="M26.5242 13.9781C26.9937 13.9781 27.3744 13.5985 27.3744 13.1302C27.3744 12.6619 26.9937 12.2822 26.5242 12.2822C26.0547 12.2822 25.6741 12.6619 25.6741 13.1302C25.6741 13.5985 26.0547 13.9781 26.5242 13.9781Z" fill="#F6F8FC"/>
<path d="M35.5281 30.8217C36.0616 30.8217 36.4942 30.3903 36.4942 29.8581C36.4942 29.3259 36.0616 28.8945 35.5281 28.8945C34.9945 28.8945 34.562 29.3259 34.562 29.8581C34.562 30.3903 34.9945 30.8217 35.5281 30.8217Z" fill="#F6F8FC"/>
<path d="M24.3216 12.8608C24.8551 12.8608 25.2876 12.4294 25.2876 11.8972C25.2876 11.365 24.8551 10.9336 24.3216 10.9336C23.788 10.9336 23.3555 11.365 23.3555 11.8972C23.3555 12.4294 23.788 12.8608 24.3216 12.8608Z" fill="#F6F8FC"/>
<path d="M24.9785 16.9467C25.5121 16.9467 25.9446 16.5153 25.9446 15.9831C25.9446 15.4509 25.5121 15.0195 24.9785 15.0195C24.445 15.0195 24.0125 15.4509 24.0125 15.9831C24.0125 16.5153 24.445 16.9467 24.9785 16.9467Z" fill="#F6F8FC"/>
<path d="M23.8967 20.839C24.537 20.839 25.056 20.3213 25.056 19.6827C25.056 19.0441 24.537 18.5264 23.8967 18.5264C23.2565 18.5264 22.7374 19.0441 22.7374 19.6827C22.7374 20.3213 23.2565 20.839 23.8967 20.839Z" fill="#F6F8FC"/>
<path d="M20.3797 20.8387C21.1267 20.8387 21.7323 20.2347 21.7323 19.4897C21.7323 18.7446 21.1267 18.1406 20.3797 18.1406C19.6328 18.1406 19.0272 18.7446 19.0272 19.4897C19.0272 20.2347 19.6328 20.8387 20.3797 20.8387Z" fill="#F6F8FC"/>
<path d="M16.284 21.7642C17.1377 21.7642 17.8297 21.0739 17.8297 20.2224C17.8297 19.3709 17.1377 18.6807 16.284 18.6807C15.4303 18.6807 14.7383 19.3709 14.7383 20.2224C14.7383 21.0739 15.4303 21.7642 16.284 21.7642Z" fill="#F6F8FC"/>
<path d="M11.8013 23.962C12.8044 23.962 13.6176 23.1509 13.6176 22.1504C13.6176 21.1499 12.8044 20.3389 11.8013 20.3389C10.7983 20.3389 9.98511 21.1499 9.98511 22.1504C9.98511 23.1509 10.7983 23.962 11.8013 23.962Z" fill="#F6F8FC"/>
<path d="M7.16403 27.6616C8.35918 27.6616 9.32805 26.6953 9.32805 25.5032C9.32805 24.3111 8.35918 23.3447 7.16403 23.3447C5.96887 23.3447 5 24.3111 5 25.5032C5 26.6953 5.96887 27.6616 7.16403 27.6616Z" fill="#F6F8FC"/>
<path d="M9.98542 19.4522C10.9885 19.4522 11.8017 18.6411 11.8017 17.6407C11.8017 16.6402 10.9885 15.8291 9.98542 15.8291C8.98234 15.8291 8.16919 16.6402 8.16919 17.6407C8.16919 18.6411 8.98234 19.4522 9.98542 19.4522Z" fill="#F6F8FC"/>
<path d="M14.4675 17.2544C15.3212 17.2544 16.0132 16.5641 16.0132 15.7126C16.0132 14.8612 15.3212 14.1709 14.4675 14.1709C13.6138 14.1709 12.9218 14.8612 12.9218 15.7126C12.9218 16.5641 13.6138 17.2544 14.4675 17.2544Z" fill="#F6F8FC"/>
<path d="M13.8104 13.1685C14.6641 13.1685 15.3561 12.4782 15.3561 11.6267C15.3561 10.7752 14.6641 10.085 13.8104 10.085C12.9567 10.085 12.2646 10.7752 12.2646 11.6267C12.2646 12.4782 12.9567 13.1685 13.8104 13.1685Z" fill="#F6F8FC"/>
<path d="M17.9068 12.244C18.6538 12.244 19.2593 11.64 19.2593 10.8949C19.2593 10.1499 18.6538 9.5459 17.9068 9.5459C17.1599 9.5459 16.5543 10.1499 16.5543 10.8949C16.5543 11.64 17.1599 12.244 17.9068 12.244Z" fill="#F6F8FC"/>
<path d="M21.4231 12.2443C22.0634 12.2443 22.5824 11.7266 22.5824 11.088C22.5824 10.4493 22.0634 9.93164 21.4231 9.93164C20.7828 9.93164 20.2638 10.4493 20.2638 11.088C20.2638 11.7266 20.7828 12.2443 21.4231 12.2443Z" fill="#F6F8FC"/>
<path d="M22.0802 16.3292C22.7205 16.3292 23.2395 15.8115 23.2395 15.1729C23.2395 14.5343 22.7205 14.0166 22.0802 14.0166C21.4399 14.0166 20.9209 14.5343 20.9209 15.1729C20.9209 15.8115 21.4399 16.3292 22.0802 16.3292Z" fill="#F6F8FC"/>
<path d="M18.5638 16.368C19.3108 16.368 19.9163 15.764 19.9163 15.019C19.9163 14.2739 19.3108 13.6699 18.5638 13.6699C17.8168 13.6699 17.2113 14.2739 17.2113 15.019C17.2113 15.764 17.8168 16.368 18.5638 16.368Z" fill="#F6F8FC"/>
<path d="M14.7379 26.621C15.1221 26.621 15.4335 26.3104 15.4335 25.9272C15.4335 25.544 15.1221 25.2334 14.7379 25.2334C14.3538 25.2334 14.0424 25.544 14.0424 25.9272C14.0424 26.3104 14.3538 26.621 14.7379 26.621Z" fill="#F6F8FC"/>
<path d="M17.5204 26.274C17.99 26.274 18.3706 25.8944 18.3706 25.4261C18.3706 24.9578 17.99 24.5781 17.5204 24.5781C17.0509 24.5781 16.6703 24.9578 16.6703 25.4261C16.6703 25.8944 17.0509 26.274 17.5204 26.274Z" fill="#F6F8FC"/>
<path d="M20.573 25.1176C21.1066 25.1176 21.5391 24.6862 21.5391 24.154C21.5391 23.6218 21.1066 23.1904 20.573 23.1904C20.0395 23.1904 19.6069 23.6218 19.6069 24.154C19.6069 24.6862 20.0395 25.1176 20.573 25.1176Z" fill="#F6F8FC"/>
<path d="M21.3072 28.2013C21.9475 28.2013 22.4665 27.6836 22.4665 27.045C22.4665 26.4064 21.9475 25.8887 21.3072 25.8887C20.667 25.8887 20.1479 26.4064 20.1479 27.045C20.1479 27.6836 20.667 28.2013 21.3072 28.2013Z" fill="#F6F8FC"/>
<path d="M17.598 28.933C18.1316 28.933 18.5641 28.5016 18.5641 27.9695C18.5641 27.4373 18.1316 27.0059 17.598 27.0059C17.0645 27.0059 16.632 27.4373 16.632 27.9695C16.632 28.5016 17.0645 28.933 17.598 28.933Z" fill="#F6F8FC"/>
<path d="M14.3129 28.8951C14.7825 28.8951 15.1631 28.5155 15.1631 28.0472C15.1631 27.5789 14.7825 27.1992 14.3129 27.1992C13.8434 27.1992 13.4628 27.5789 13.4628 28.0472C13.4628 28.5155 13.8434 28.8951 14.3129 28.8951Z" fill="#F6F8FC"/>
<path d="M14.3513 31.5541C14.8849 31.5541 15.3174 31.1227 15.3174 30.5905C15.3174 30.0584 14.8849 29.627 14.3513 29.627C13.8178 29.627 13.3853 30.0584 13.3853 30.5905C13.3853 31.1227 13.8178 31.5541 14.3513 31.5541Z" fill="#F6F8FC"/>
<path d="M18.2932 32.0558C18.9335 32.0558 19.4525 31.5381 19.4525 30.8995C19.4525 30.2609 18.9335 29.7432 18.2932 29.7432C17.6529 29.7432 17.1339 30.2609 17.1339 30.8995C17.1339 31.5381 17.6529 32.0558 18.2932 32.0558Z" fill="#F6F8FC"/>
<path d="M22.8921 31.5545C23.639 31.5545 24.2446 30.9505 24.2446 30.2055C24.2446 29.4604 23.639 28.8564 22.8921 28.8564C22.1451 28.8564 21.5396 29.4604 21.5396 30.2055C21.5396 30.9505 22.1451 31.5545 22.8921 31.5545Z" fill="#F6F8FC"/>
<path d="M25.5965 34.9077C26.4502 34.9077 27.1422 34.2175 27.1422 33.366C27.1422 32.5145 26.4502 31.8242 25.5965 31.8242C24.7428 31.8242 24.0508 32.5145 24.0508 33.366C24.0508 34.2175 24.7428 34.9077 25.5965 34.9077Z" fill="#F6F8FC"/>
<path d="M19.9164 35.3699C20.6633 35.3699 21.2689 34.7659 21.2689 34.0209C21.2689 33.2759 20.6633 32.6719 19.9164 32.6719C19.1694 32.6719 18.5638 33.2759 18.5638 34.0209C18.5638 34.7659 19.1694 35.3699 19.9164 35.3699Z" fill="#F6F8FC"/>
<path d="M16.7087 37.991C17.4557 37.991 18.0612 37.387 18.0612 36.642C18.0612 35.8969 17.4557 35.293 16.7087 35.293C15.9617 35.293 15.3562 35.8969 15.3562 36.642C15.3562 37.387 15.9617 37.991 16.7087 37.991Z" fill="#F6F8FC"/>
<path d="M19.3751 41.3833C20.2288 41.3833 20.9208 40.693 20.9208 39.8416C20.9208 38.9901 20.2288 38.2998 19.3751 38.2998C18.5214 38.2998 17.8293 38.9901 17.8293 39.8416C17.8293 40.693 18.5214 41.3833 19.3751 41.3833Z" fill="#F6F8FC"/>
<path d="M26.4857 42.0001C27.4887 42.0001 28.3019 41.189 28.3019 40.1885C28.3019 39.188 27.4887 38.377 26.4857 38.377C25.4826 38.377 24.6694 39.188 24.6694 40.1885C24.6694 41.189 25.4826 42.0001 26.4857 42.0001Z" fill="#F6F8FC"/>
<path d="M22.5826 38.7622C23.4363 38.7622 24.1283 38.0719 24.1283 37.2205C24.1283 36.369 23.4363 35.6787 22.5826 35.6787C21.7289 35.6787 21.0369 36.369 21.0369 37.2205C21.0369 38.0719 21.7289 38.7622 22.5826 38.7622Z" fill="#F6F8FC"/>
<path d="M29.4614 38.1456C30.4644 38.1456 31.2776 37.3345 31.2776 36.334C31.2776 35.3335 30.4644 34.5225 29.4614 34.5225C28.4583 34.5225 27.6451 35.3335 27.6451 36.334C27.6451 37.3345 28.4583 38.1456 29.4614 38.1456Z" fill="#F6F8FC"/>
<path d="M15.0857 34.6769C15.726 34.6769 16.245 34.1592 16.245 33.5206C16.245 32.882 15.726 32.3643 15.0857 32.3643C14.4454 32.3643 13.9264 32.882 13.9264 33.5206C13.9264 34.1592 14.4454 34.6769 15.0857 34.6769Z" fill="#F6F8FC"/>
<path d="M60 8H61V40H60V8Z" fill="#F6F8FC"/>
<path d="M74.584 31H85.912V28.048H77.992V24.328H85.744V21.4H77.992V17.92H85.912V14.992H74.584V31ZM99.4962 31H103.576L97.7682 22.768L103.216 14.992H99.1122L95.4882 20.464L91.8162 14.992H87.7602L93.2082 22.792L87.4002 31H91.4562L95.4882 25.144L99.4962 31ZM105.567 31H108.975V25.264H113.055C116.511 25.264 118.431 22.936 118.431 20.152C118.431 17.344 116.535 14.992 113.055 14.992H105.567V31ZM114.951 20.128C114.951 21.472 113.943 22.336 112.599 22.336H108.975V17.92H112.599C113.943 17.92 114.951 18.808 114.951 20.128ZM121.024 31H131.2V28H124.432V14.992H121.024V31ZM132.642 23.008C132.642 27.832 136.17 31.288 140.994 31.288C145.842 31.288 149.37 27.832 149.37 23.008C149.37 18.184 145.842 14.728 140.994 14.728C136.17 14.728 132.642 18.184 132.642 23.008ZM145.866 23.008C145.866 25.984 143.946 28.264 140.994 28.264C138.042 28.264 136.146 25.984 136.146 23.008C136.146 20.008 138.042 17.752 140.994 17.752C143.946 17.752 145.866 20.008 145.866 23.008ZM161.29 31H165.202L161.602 24.904C163.33 24.496 165.106 22.984 165.106 20.152C165.106 17.176 163.066 14.992 159.73 14.992H152.242V31H155.65V25.264H158.146L161.29 31ZM161.626 20.128C161.626 21.472 160.594 22.336 159.226 22.336H155.65V17.92H159.226C160.594 17.92 161.626 18.784 161.626 20.128ZM168.144 31H179.472V28.048H171.552V24.328H179.304V21.4H171.552V17.92H179.472V14.992H168.144V31ZM191.664 31H195.576L191.976 24.904C193.704 24.496 195.48 22.984 195.48 20.152C195.48 17.176 193.44 14.992 190.104 14.992H182.616V31H186.024V25.264H188.52L191.664 31ZM192 20.128C192 21.472 190.968 22.336 189.6 22.336H186.024V17.92H189.6C190.968 17.92 192 18.784 192 20.128Z" fill="#F6F8FC"/>
</svg>
