<svg width="24" height="24" viewBox="0 0 24 24" fill="none" xmlns="http://www.w3.org/2000/svg">
<path fill-rule="evenodd" clip-rule="evenodd" d="M19.3409 17.208C17.7099 19.5029 15.0298 21 12 21C7.02944 21 3 16.9706 3 12C3 7.02944 7.02944 3 12 3C15.0298 3 17.7099 4.49713 19.3409 6.79195C20.3594 8.0734 21 9.93197 21 12C21 14.068 20.3594 15.9266 19.3409 17.208ZM14.3333 18.6017C13.6035 18.8596 12.8182 19 12 19C8.13401 19 5 15.866 5 12C5 8.13401 8.13401 5 12 5C12.8182 5 13.6035 5.14036 14.3333 5.39831C12.3913 6.35927 11 8.95216 11 12C11 15.0478 12.3913 17.6407 14.3333 18.6017Z" fill="#485776"/>
</svg>
