<svg width="25" height="24" viewBox="0 0 25 24" fill="none" xmlns="http://www.w3.org/2000/svg">
<g clip-path="url(#clip0)">
<path d="M0.944531 0H24.9305C24.9344 0 24.9375 0.003148 24.9375 0.00703125V23.993C24.9375 23.9969 24.9344 24 24.9305 24H14.8125V15.4688H17.6063L18.1406 12H14.8125V9.75C14.8125 8.80313 15.2766 7.875 16.7672 7.875H18.2812V4.92188C18.2812 4.92188 16.9078 4.6875 15.5953 4.6875C12.8531 4.6875 11.0625 6.34688 11.0625 9.35625V12H8.01562V15.4688H11.0625V24H0.944531C0.940648 24 0.9375 23.9969 0.9375 23.993V0.00703125C0.9375 0.003148 0.940648 0 0.944531 0Z" fill="white"/>
</g>
<defs>
<clipPath id="clip0">
<rect x="0.9375" width="24" height="24" rx="6" fill="white"/>
</clipPath>
</defs>
</svg>
