<svg width="24" height="24" viewBox="0 0 24 24" fill="none" xmlns="http://www.w3.org/2000/svg">
<path d="M15 11C13.6938 11 12.5825 10.1652 12.1707 9L5 9C4.44772 9 4 8.55228 4 8C4 7.44771 4.44772 7 5 7L12.1707 7C12.5825 5.83481 13.6938 5 15 5C16.3062 5 17.4175 5.83481 17.8293 7L19 7C19.5523 7 20 7.44772 20 8C20 8.55228 19.5523 9 19 9H17.8293C17.4175 10.1652 16.3062 11 15 11Z" fill="#677695"/>
<path d="M11.8293 17L19 17C19.5523 17 20 16.5523 20 16C20 15.4477 19.5523 15 19 15L11.8293 15C11.4175 13.8348 10.3062 13 9 13C7.69378 13 6.58254 13.8348 6.17071 15H5C4.44772 15 4 15.4477 4 16C4 16.5523 4.44772 17 5 17H6.17071C6.58254 18.1652 7.69378 19 9 19C10.3062 19 11.4175 18.1652 11.8293 17Z" fill="#677695"/>
</svg>
