<svg width="387" height="1209" viewBox="0 0 387 1209" fill="none" xmlns="http://www.w3.org/2000/svg">
<path opacity="0.5" d="M245.625 1005.96C256.755 1017.09 271.839 1023.36 287.558 1023.38C303.277 1023.4 318.343 1017.18 329.443 1006.08C340.542 994.978 346.766 979.912 346.744 964.193C346.723 948.474 340.457 933.39 329.327 922.26L287.476 964.111L245.625 1005.96Z" fill="#9AADCE"/>
<path opacity="0.5" d="M141.219 539.409C130.089 528.279 115.005 522.014 99.286 521.992C83.5671 521.97 68.5006 528.194 57.401 539.293C46.3014 550.393 40.0778 565.459 40.0995 581.178C40.1212 596.897 46.3863 611.981 57.5166 623.111L99.3678 581.26L141.219 539.409Z" fill="#9AADCE"/>
<path opacity="0.5" d="M245.625 330.866C256.755 341.997 271.839 348.262 287.558 348.284C303.277 348.305 318.343 342.082 329.443 330.982C340.542 319.882 346.766 304.816 346.744 289.097C346.723 273.378 340.457 258.294 329.327 247.164L287.476 289.015L245.625 330.866Z" fill="#9AADCE"/>
<path d="M86.3806 1080.61C97.5109 1091.74 112.595 1098.01 128.314 1098.03C144.032 1098.05 159.099 1091.83 170.199 1080.73C181.298 1069.63 187.522 1054.56 187.5 1038.84C187.478 1023.12 181.213 1008.04 170.083 996.91L128.232 1038.76L86.3806 1080.61Z" fill="url(#paint0_linear_2717_43092)"/>
<path d="M300.462 464.759C289.332 453.628 274.248 447.363 258.529 447.341C242.81 447.32 227.744 453.543 216.644 464.643C205.545 475.743 199.321 490.809 199.343 506.528C199.364 522.247 205.629 537.331 216.76 548.461L235.59 529.631C229.467 523.508 226.021 515.211 226.009 506.565C225.997 497.918 229.421 489.631 235.526 483.525C241.632 477.419 249.919 473.996 258.566 474.008C267.213 474.02 275.51 477.466 281.632 483.589L300.462 464.759Z" fill="url(#paint1_linear_2717_43092)"/>
<path d="M86.3777 405.515C97.508 416.645 112.592 422.91 128.311 422.932C144.03 422.954 159.096 416.73 170.196 405.631C181.295 394.531 187.519 379.464 187.497 363.745C187.475 348.027 181.21 332.943 170.08 321.813L128.229 363.664L86.3777 405.515Z" fill="url(#paint2_linear_2717_43092)"/>
<path opacity="0.1" d="M260.556 843.234C271.687 854.364 286.77 860.629 302.489 860.651C318.208 860.672 333.275 854.449 344.374 843.349C355.474 832.25 361.698 817.183 361.676 801.464C361.654 785.745 355.389 770.662 344.259 759.531L302.408 801.382L260.556 843.234Z" fill="#9AADCE"/>
<path d="M126.286 702.134C115.156 691.003 100.072 684.738 84.3534 684.716C68.6345 684.695 53.568 690.918 42.4684 702.018C31.3687 713.118 25.1452 728.184 25.1669 743.903C25.1886 759.622 31.4537 774.706 42.584 785.836L63.1831 765.237C57.5311 759.585 54.3497 751.925 54.3387 743.943C54.3276 735.961 57.488 728.31 63.1244 722.674C68.7608 717.038 76.4116 713.877 84.3937 713.888C92.3758 713.899 100.035 717.081 105.687 722.733L126.286 702.134Z" fill="url(#paint3_linear_2717_43092)"/>
<path d="M260.556 168.138C271.687 179.268 286.77 185.533 302.489 185.555C318.208 185.577 333.275 179.353 344.374 168.254C355.474 157.154 361.698 142.087 361.676 126.369C361.654 110.65 355.389 95.5658 344.259 84.4356L320.201 108.493C324.934 113.225 327.597 119.638 327.606 126.322C327.616 133.005 324.97 139.41 320.25 144.13C315.531 148.849 309.126 151.495 302.442 151.486C295.759 151.476 289.346 148.813 284.614 144.08L260.556 168.138Z" fill="#9AADCE"/>
<path opacity="0.22" d="M104.296 916.888C115.426 928.018 130.51 934.283 146.229 934.305C161.948 934.327 177.014 928.103 188.114 917.004C199.213 905.904 205.437 890.837 205.415 875.119C205.393 859.4 199.128 844.316 187.998 833.186L179.17 842.014C187.953 850.796 192.896 862.698 192.913 875.101C192.93 887.504 188.02 899.393 179.261 908.151C170.503 916.909 158.615 921.82 146.211 921.803C133.808 921.786 121.906 916.842 113.124 908.06L104.296 916.888Z" fill="#9AADCE"/>
<path opacity="0.22" d="M282.547 628.489C271.417 617.359 256.333 611.094 240.614 611.072C224.895 611.05 209.829 617.274 198.729 628.373C187.629 639.473 181.406 654.54 181.428 670.258C181.449 685.977 187.714 701.061 198.845 712.191L207.673 703.363C198.89 694.581 193.947 682.679 193.93 670.276C193.912 657.872 198.823 645.984 207.582 637.226C216.34 628.467 228.228 623.557 240.631 623.574C253.035 623.591 264.937 628.534 273.719 637.317L282.547 628.489Z" fill="#9AADCE"/>
<path opacity="0.22" d="M104.297 241.786C115.427 252.917 130.511 259.182 146.23 259.203C161.949 259.225 177.015 253.002 188.115 241.902C199.214 230.802 205.438 215.736 205.416 200.017C205.394 184.298 199.129 169.214 187.999 158.084L179.171 166.912C187.954 175.694 192.897 187.596 192.914 200C192.931 212.403 188.021 224.291 179.262 233.05C170.504 241.808 158.616 246.719 146.212 246.702C133.809 246.684 121.907 241.741 113.125 232.958L104.297 241.786Z" fill="#9AADCE"/>
<path opacity="0.22" d="M159.53 1091.75C170.66 1102.88 185.744 1109.15 201.463 1109.17C217.182 1109.19 232.248 1102.97 243.348 1091.87C254.448 1080.77 260.671 1065.7 260.65 1049.98C260.628 1034.26 254.363 1019.18 243.232 1008.05L201.381 1049.9L159.53 1091.75Z" fill="#9AADCE"/>
<path opacity="0.22" d="M227.312 453.614C216.181 442.484 201.098 436.219 185.379 436.197C169.66 436.175 154.593 442.399 143.494 453.498C132.394 464.598 126.171 479.665 126.192 495.383C126.214 511.102 132.479 526.186 143.609 537.316L185.461 495.465L227.312 453.614Z" fill="#9AADCE"/>
<path opacity="0.22" d="M159.533 416.659C170.663 427.79 185.747 434.055 201.466 434.077C217.185 434.098 232.251 427.875 243.351 416.775C254.451 405.675 260.674 390.609 260.652 374.89C260.631 359.171 254.366 344.087 243.235 332.957L201.384 374.808L159.533 416.659Z" fill="#9AADCE"/>
<path opacity="0.22" d="M0.287837 1166.4C11.4181 1177.53 26.5019 1183.8 42.2208 1183.82C57.9397 1183.84 73.0062 1177.61 84.1059 1166.52C95.2055 1155.42 101.429 1140.35 101.407 1124.63C101.386 1108.91 95.1205 1093.83 83.9902 1082.7L77.206 1089.48C86.532 1098.81 91.7815 1111.45 91.7997 1124.62C91.8178 1137.79 86.6032 1150.41 77.3028 1159.71C68.0025 1169.01 55.3783 1174.23 42.2075 1174.21C29.0367 1174.19 16.3981 1168.94 7.07211 1159.62L0.287837 1166.4Z" fill="#9AADCE"/>
<path opacity="0.22" d="M386.556 378.971C375.426 367.841 360.342 361.576 344.623 361.554C328.904 361.533 313.838 367.756 302.738 378.856C291.638 389.955 285.415 405.022 285.436 420.741C285.458 436.46 291.723 451.544 302.854 462.674L309.638 455.89C300.312 446.564 295.062 433.925 295.044 420.754C295.026 407.583 300.241 394.959 309.541 385.659C318.841 376.358 331.465 371.144 344.636 371.162C357.807 371.18 370.446 376.43 379.772 385.756L386.556 378.971Z" fill="#9AADCE"/>
<path opacity="0.67" d="M0.285891 491.302C11.4162 502.432 26.4999 508.697 42.2188 508.719C57.9378 508.741 73.0043 502.517 84.1039 491.418C95.2035 480.318 101.427 465.251 101.405 449.533C101.384 433.814 95.1186 418.73 83.9883 407.6L77.204 414.384C86.53 423.71 91.7795 436.348 91.7977 449.519C91.8159 462.69 86.6012 475.314 77.3009 484.615C68.0006 493.915 55.3764 499.13 42.2056 499.111C29.0348 499.093 16.3962 493.844 7.07016 484.518L0.285891 491.302Z" fill="#9AADCE"/>
<path opacity="0.7" d="M174.464 929.027C185.594 940.157 200.678 946.422 216.397 946.444C232.115 946.465 247.182 940.242 258.282 929.142C269.381 918.043 275.605 902.976 275.583 887.257C275.561 871.538 269.296 856.455 258.166 845.324L216.315 887.175L174.464 929.027Z" fill="#9AADCE"/>
<path opacity="0.1" d="M212.38 616.344C201.25 605.214 186.166 598.949 170.447 598.927C154.728 598.906 139.662 605.129 128.562 616.229C117.462 627.328 111.239 642.395 111.261 658.114C111.282 673.833 117.547 688.917 128.678 700.047L170.529 658.196L212.38 616.344Z" fill="#9AADCE"/>
<path opacity="0.7" d="M174.461 253.927C185.591 265.057 200.675 271.322 216.394 271.344C232.113 271.366 247.179 265.142 258.279 254.043C269.378 242.943 275.602 227.876 275.58 212.158C275.558 196.439 269.293 181.355 258.163 170.225L216.312 212.076L174.461 253.927Z" fill="#9AADCE"/>
<path d="M14.0632 1005.91C25.1935 1017.04 40.2773 1023.3 55.9962 1023.33C71.7151 1023.35 86.7816 1017.12 97.8812 1006.03C108.981 994.925 115.204 979.859 115.183 964.14C115.161 948.421 108.896 933.337 97.7656 922.207L55.9144 964.058L14.0632 1005.91Z" fill="#9AADCE"/>
<path opacity="0.2" d="M372.78 539.464C361.649 528.333 346.566 522.068 330.847 522.047C315.128 522.025 300.061 528.248 288.962 539.348C277.862 550.448 271.638 565.514 271.66 581.233C271.682 596.952 277.947 612.036 289.077 623.166L330.928 581.315L372.78 539.464Z" fill="#9AADCE"/>
<path d="M14.0662 330.808C25.1965 341.938 40.2802 348.203 55.9991 348.225C71.718 348.247 86.7845 342.023 97.8842 330.923C108.984 319.824 115.207 304.757 115.186 289.038C115.164 273.319 108.899 258.236 97.7686 247.105L55.9174 288.957L14.0662 330.808Z" fill="#9AADCE"/>
<path d="M371.626 880.154C366.115 874.643 359.575 870.268 352.38 867.28C345.185 864.292 337.476 862.748 329.693 862.737C321.91 862.726 314.205 864.249 307.018 867.217C299.832 870.186 293.304 874.543 287.808 880.039C282.312 885.535 277.955 892.062 274.987 899.249C272.018 906.436 270.496 914.141 270.507 921.924C270.517 929.707 272.061 937.416 275.049 944.611C278.038 951.806 282.412 958.346 287.924 963.857L291.633 960.148C286.61 955.125 282.623 949.165 279.899 942.608C277.176 936.05 275.769 929.025 275.759 921.931C275.749 914.838 277.137 907.816 279.842 901.266C282.548 894.716 286.518 888.767 291.527 883.758C296.536 878.749 302.485 874.778 309.035 872.073C315.585 869.367 322.607 867.98 329.7 867.99C336.794 868 343.82 869.406 350.377 872.13C356.934 874.854 362.894 878.841 367.917 883.863L371.626 880.154Z" fill="#9AADCE"/>
<path opacity="0.8" d="M287.897 963.762C282.385 958.251 275.846 953.876 268.651 950.887C261.456 947.899 253.747 946.355 245.964 946.345C238.18 946.334 230.475 947.856 223.289 950.825C216.102 953.794 209.574 958.15 204.078 963.646C198.582 969.142 194.226 975.67 191.257 982.856C188.289 990.043 186.766 997.748 186.777 1005.53C186.788 1013.31 188.331 1021.02 191.32 1028.22C194.308 1035.41 198.683 1041.95 204.194 1047.46L246.045 1005.61L287.897 963.762Z" fill="#9AADCE"/>
<path d="M15.2173 665.219C20.7284 670.73 27.2681 675.105 34.463 678.093C41.6579 681.081 49.367 682.625 57.1502 682.636C64.9335 682.647 72.6384 681.124 79.825 678.156C87.0117 675.187 93.5393 670.83 99.0353 665.334C104.531 659.838 108.888 653.311 111.857 646.124C114.825 638.937 116.347 631.232 116.337 623.449C116.326 615.666 114.782 607.957 111.794 600.762C108.805 593.567 104.431 587.027 98.9196 581.516L95.2106 585.225C100.233 590.248 104.22 596.208 106.944 602.765C109.668 609.323 111.074 616.349 111.084 623.442C111.094 630.535 109.707 637.557 107.001 644.107C104.296 650.657 100.325 656.606 95.3161 661.615C90.3072 666.624 84.358 670.595 77.8083 673.3C71.2585 676.006 64.2364 677.393 57.143 677.383C50.0495 677.373 43.0236 675.967 36.4664 673.243C29.9091 670.519 23.949 666.533 18.9263 661.51L15.2173 665.219Z" fill="#9AADCE"/>
<path opacity="0.1" d="M98.9472 581.613C104.458 587.124 110.998 591.499 118.193 594.488C125.388 597.476 133.097 599.02 140.88 599.03C148.663 599.041 156.368 597.519 163.555 594.55C170.742 591.581 177.269 587.225 182.765 581.729C188.261 576.233 192.618 569.705 195.587 562.519C198.555 555.332 200.077 547.627 200.067 539.844C200.056 532.061 198.512 524.351 195.524 517.157C192.535 509.962 188.161 503.422 182.65 497.911L175.766 504.795C180.371 509.399 184.026 514.863 186.523 520.875C189.019 526.886 190.309 533.327 190.318 539.83C190.327 546.333 189.055 552.771 186.575 558.775C184.095 564.78 180.454 570.234 175.862 574.826C171.271 579.418 165.817 583.058 159.812 585.538C153.807 588.019 147.37 589.291 140.867 589.282C134.364 589.273 127.923 587.983 121.911 585.486C115.9 582.989 110.436 579.334 105.831 574.73L98.9472 581.613Z" fill="#9AADCE"/>
<path d="M371.626 205.057C366.115 199.545 359.575 195.171 352.38 192.182C345.185 189.194 337.476 187.65 329.693 187.64C321.91 187.629 314.205 189.151 307.018 192.12C299.832 195.088 293.304 199.445 287.808 204.941C282.312 210.437 277.955 216.965 274.987 224.151C272.018 231.338 270.496 239.043 270.507 246.826C270.517 254.609 272.061 262.319 275.049 269.513C278.038 276.708 282.412 283.248 287.924 288.759L291.633 285.05C286.61 280.027 282.623 274.067 279.899 267.51C277.176 260.953 275.769 253.927 275.759 246.833C275.749 239.74 277.137 232.718 279.842 226.168C282.548 219.618 286.518 213.669 291.527 208.66C296.536 203.651 302.485 199.681 309.035 196.975C315.585 194.27 322.607 192.882 329.7 192.892C336.794 192.902 343.82 194.309 350.377 197.032C356.934 199.756 362.894 203.743 367.917 208.766L371.626 205.057Z" fill="#9AADCE"/>
<path opacity="0.8" d="M287.897 288.664C282.385 283.153 275.846 278.778 268.651 275.79C261.456 272.801 253.747 271.258 245.964 271.247C238.18 271.236 230.475 272.759 223.289 275.727C216.102 278.696 209.574 283.053 204.078 288.549C198.582 294.044 194.226 300.572 191.257 307.759C188.289 314.945 186.766 322.65 186.777 330.434C186.788 338.217 188.331 345.926 191.32 353.121C194.308 360.316 198.683 366.855 204.194 372.367L246.045 330.515L287.897 288.664Z" fill="#9AADCE"/>
<path opacity="0.8" d="M212.381 954.801C206.87 949.29 200.33 944.915 193.135 941.927C185.94 938.938 178.231 937.394 170.448 937.384C162.665 937.373 154.96 938.895 147.773 941.864C140.586 944.833 134.059 949.189 128.563 954.685C123.067 960.181 118.71 966.709 115.742 973.896C112.773 981.082 111.251 988.787 111.261 996.57C111.272 1004.35 112.816 1012.06 115.804 1019.26C118.793 1026.45 123.167 1032.99 128.679 1038.5L159.018 1008.16C157.502 1006.65 156.298 1004.85 155.476 1002.87C154.654 1000.89 154.229 998.77 154.226 996.63C154.224 994.489 154.642 992.369 155.459 990.392C156.275 988.415 157.474 986.62 158.986 985.108C160.497 983.596 162.293 982.398 164.27 981.581C166.247 980.765 168.366 980.346 170.507 980.349C172.648 980.352 174.769 980.776 176.748 981.598C178.727 982.42 180.526 983.624 182.042 985.14L212.381 954.801Z" fill="#9AADCE"/>
<path d="M128.65 1038.41C123.139 1032.9 116.6 1028.52 109.405 1025.53C102.21 1022.54 94.5007 1021 86.7174 1020.99C78.9342 1020.98 71.2293 1022.5 64.0427 1025.47C56.856 1028.44 50.3283 1032.79 44.8324 1038.29C39.3364 1043.79 34.9797 1050.31 32.0112 1057.5C29.0426 1064.69 27.5202 1072.39 27.5309 1080.18C27.5417 1087.96 29.0853 1095.67 32.0738 1102.86C35.0622 1110.06 39.4369 1116.6 44.9481 1122.11L67.0863 1099.97C64.4904 1097.37 62.4298 1094.29 61.0221 1090.91C59.6145 1087.52 58.8874 1083.89 58.8823 1080.22C58.8773 1076.55 59.5944 1072.92 60.9926 1069.54C62.3909 1066.15 64.443 1063.08 67.0318 1060.49C69.6205 1057.9 72.6952 1055.85 76.0803 1054.45C79.4654 1053.05 83.0946 1052.34 86.7607 1052.34C90.4268 1052.35 94.058 1053.07 97.4469 1054.48C100.836 1055.89 103.916 1057.95 106.512 1060.54L128.65 1038.41Z" fill="url(#paint4_linear_2717_43092)"/>
<path opacity="0.1" d="M174.462 590.568C179.973 596.08 186.513 600.454 193.708 603.443C200.903 606.431 208.612 607.975 216.395 607.985C224.178 607.996 231.883 606.474 239.07 603.505C246.256 600.537 252.784 596.18 258.28 590.684C263.776 585.188 268.133 578.66 271.101 571.474C274.07 564.287 275.592 556.582 275.581 548.799C275.571 541.016 274.027 533.306 271.039 526.112C268.05 518.917 263.675 512.377 258.164 506.866L227.825 537.205C229.341 538.721 230.545 540.52 231.367 542.499C232.189 544.478 232.613 546.599 232.616 548.74C232.619 550.881 232.2 553 231.384 554.977C230.567 556.954 229.369 558.749 227.857 560.261C226.345 561.773 224.55 562.971 222.573 563.788C220.596 564.604 218.477 565.023 216.336 565.02C214.195 565.017 212.074 564.593 210.095 563.771C208.116 562.949 206.317 561.745 204.801 560.229L174.462 590.568Z" fill="#9AADCE"/>
<path opacity="0.3" d="M258.191 506.961C263.703 512.472 270.242 516.847 277.437 519.835C284.632 522.824 292.341 524.367 300.124 524.378C307.908 524.389 315.612 522.866 322.799 519.898C329.986 516.929 336.513 512.572 342.009 507.076C347.505 501.581 351.862 495.053 354.831 487.866C357.799 480.68 359.322 472.975 359.311 465.191C359.3 457.408 357.756 449.699 354.768 442.504C351.78 435.309 347.405 428.77 341.894 423.258L319.756 445.397C322.351 447.993 324.412 451.073 325.82 454.462C327.227 457.851 327.954 461.482 327.959 465.148C327.965 468.814 327.247 472.443 325.849 475.829C324.451 479.214 322.399 482.288 319.81 484.877C317.221 487.466 314.147 489.518 310.761 490.916C307.376 492.315 303.747 493.032 300.081 493.027C296.415 493.022 292.784 492.294 289.395 490.887C286.006 489.479 282.926 487.419 280.33 484.823L258.191 506.961Z" fill="url(#paint5_linear_2717_43092)"/>
<path opacity="0.5" d="M212.381 279.703C206.87 274.192 200.33 269.817 193.135 266.829C185.94 263.84 178.231 262.297 170.448 262.286C162.665 262.275 154.96 263.798 147.773 266.766C140.586 269.735 134.059 274.092 128.563 279.588C123.067 285.084 118.71 291.611 115.742 298.798C112.773 305.985 111.251 313.689 111.261 321.473C111.272 329.256 112.816 336.965 115.804 344.16C118.793 351.355 123.167 357.894 128.679 363.406L159.018 333.067C157.502 331.551 156.298 329.752 155.476 327.773C154.654 325.793 154.229 323.673 154.227 321.532C154.224 319.391 154.642 317.271 155.459 315.295C156.275 313.318 157.474 311.522 158.986 310.01C160.497 308.499 162.293 307.3 164.27 306.484C166.247 305.667 168.366 305.248 170.507 305.251C172.648 305.254 174.769 305.679 176.748 306.501C178.727 307.323 180.526 308.526 182.042 310.042L212.381 279.703Z" fill="#9AADCE"/>
<path d="M128.65 363.311C123.139 357.799 116.6 353.425 109.405 350.436C102.21 347.448 94.5007 345.904 86.7174 345.893C78.9342 345.883 71.2293 347.405 64.0427 350.374C56.856 353.342 50.3284 357.699 44.8324 363.195C39.3364 368.691 34.9797 375.219 32.0112 382.405C29.0426 389.592 27.5202 397.297 27.5309 405.08C27.5417 412.863 29.0853 420.572 32.0738 427.767C35.0622 434.962 39.4369 441.502 44.9481 447.013L67.0863 424.875C64.4904 422.279 62.4298 419.199 61.0221 415.81C59.6145 412.421 58.8874 408.789 58.8824 405.123C58.8773 401.457 59.5944 397.828 60.9927 394.443C62.3909 391.058 64.443 387.983 67.0318 385.394C69.6205 382.806 72.6952 380.754 76.0803 379.355C79.4654 377.957 83.0946 377.24 86.7607 377.245C90.4268 377.25 94.058 377.977 97.447 379.385C100.836 380.792 103.916 382.853 106.512 385.449L128.65 363.311Z" fill="url(#paint6_linear_2717_43092)"/>
<path opacity="0.22" d="M386.557 717.422C381.045 711.911 374.506 707.536 367.311 704.548C360.116 701.559 352.407 700.016 344.624 700.005C336.84 699.994 329.136 701.516 321.949 704.485C314.762 707.454 308.235 711.81 302.739 717.306C297.243 722.802 292.886 729.33 289.917 736.517C286.949 743.703 285.426 751.408 285.437 759.191C285.448 766.975 286.992 774.684 289.98 781.879C292.968 789.073 297.343 795.613 302.854 801.124L306.24 797.739C301.174 792.674 297.153 786.663 294.407 780.05C291.66 773.437 290.241 766.352 290.231 759.198C290.222 752.044 291.621 744.963 294.349 738.357C297.078 731.752 301.082 725.752 306.133 720.701C311.185 715.65 317.184 711.645 323.79 708.917C330.395 706.188 337.477 704.789 344.63 704.799C351.784 704.809 358.869 706.228 365.482 708.974C372.095 711.721 378.106 715.742 383.171 720.807L386.557 717.422Z" fill="#9AADCE"/>
<path opacity="0.2" d="M302.828 801.029C297.317 795.518 290.777 791.143 283.582 788.155C276.388 785.167 268.678 783.623 260.895 783.612C253.112 783.601 245.407 785.124 238.22 788.092C231.034 791.061 224.506 795.418 219.01 800.914C213.514 806.41 209.157 812.937 206.189 820.124C203.22 827.311 201.698 835.016 201.709 842.799C201.719 850.582 203.263 858.291 206.251 865.486C209.24 872.681 213.615 879.221 219.126 884.732L260.977 842.881L302.828 801.029Z" fill="#9AADCE"/>
<path opacity="0.22" d="M0.286115 827.945C5.79728 833.456 12.337 837.831 19.5319 840.82C26.7267 843.808 34.4359 845.352 42.2191 845.362C50.0023 845.373 57.7072 843.851 64.8939 840.882C72.0805 837.914 78.6082 833.557 84.1042 828.061C89.6001 822.565 93.9568 816.037 96.9254 808.851C99.894 801.664 101.416 793.959 101.406 786.176C101.395 778.393 99.8512 770.683 96.8628 763.489C93.8743 756.294 89.4996 749.754 83.9885 744.243L80.6031 747.628C85.6685 752.694 89.6893 758.704 92.436 765.317C95.1827 771.93 96.6015 779.016 96.6113 786.169C96.6212 793.323 95.222 800.404 92.4935 807.01C89.7651 813.615 85.7608 819.615 80.7094 824.666C75.658 829.718 69.6584 833.722 63.0531 836.45C56.4478 839.179 49.3661 840.578 42.2125 840.568C35.0588 840.558 27.9733 839.139 21.3604 836.393C14.7476 833.646 8.73685 829.625 3.67149 824.56L0.286115 827.945Z" fill="#9AADCE"/>
<path opacity="0.2" d="M84.0156 744.338C89.5268 749.849 96.0665 754.224 103.261 757.212C110.456 760.201 118.165 761.744 125.949 761.755C133.732 761.766 141.437 760.243 148.623 757.275C155.81 754.306 162.338 749.949 167.834 744.453C173.33 738.957 177.686 732.43 180.655 725.243C183.623 718.056 185.146 710.352 185.135 702.568C185.124 694.785 183.581 687.076 180.592 679.881C177.604 672.686 173.229 666.147 167.718 660.635L125.867 702.487L84.0156 744.338Z" fill="#9AADCE"/>
<path opacity="0.22" d="M386.559 42.3281C381.047 36.817 374.508 32.4423 367.313 29.4539C360.118 26.4654 352.409 24.9218 344.626 24.9111C336.842 24.9003 329.138 26.4227 321.951 29.3913C314.764 32.3599 308.237 36.7166 302.741 42.2126C297.245 47.7086 292.888 54.2362 289.919 61.4229C286.951 68.6095 285.428 76.3144 285.439 84.0977C285.45 91.8809 286.994 99.59 289.982 106.785C292.97 113.98 297.345 120.519 302.856 126.031L306.242 122.645C301.176 117.58 297.155 111.569 294.409 104.956C291.662 98.3434 290.243 91.2579 290.233 84.1043C290.224 76.9506 291.623 69.869 294.351 63.2637C297.08 56.6583 301.084 50.6587 306.135 45.6073C311.187 40.5559 317.186 36.5516 323.792 33.8232C330.397 31.0947 337.479 29.6954 344.632 29.7053C351.786 29.7152 358.871 31.134 365.484 33.8806C372.097 36.6273 378.108 40.6481 383.173 45.7135L386.559 42.3281Z" fill="#9AADCE"/>
<path opacity="0.2" d="M302.828 125.936C297.317 120.424 290.777 116.05 283.582 113.061C276.388 110.073 268.678 108.529 260.895 108.518C253.112 108.508 245.407 110.03 238.22 112.999C231.034 115.967 224.506 120.324 219.01 125.82C213.514 131.316 209.157 137.844 206.189 145.03C203.22 152.217 201.698 159.922 201.709 167.705C201.719 175.488 203.263 183.197 206.252 190.392C209.24 197.587 213.615 204.127 219.126 209.638L243.236 185.528C240.9 183.192 239.045 180.419 237.778 177.369C236.512 174.319 235.857 171.052 235.853 167.752C235.848 164.453 236.494 161.187 237.752 158.14C239.01 155.094 240.857 152.327 243.187 149.997C245.517 147.667 248.284 145.82 251.33 144.562C254.377 143.303 257.643 142.658 260.942 142.663C264.242 142.667 267.51 143.321 270.56 144.588C273.61 145.855 276.382 147.71 278.718 150.046L302.828 125.936Z" fill="#9AADCE"/>
<path opacity="0.4" d="M230.296 791.074C224.785 785.563 218.245 781.188 211.05 778.2C203.855 775.212 196.146 773.668 188.363 773.657C180.58 773.646 172.875 775.169 165.688 778.137C158.502 781.106 151.974 785.463 146.478 790.959C140.982 796.455 136.625 802.982 133.657 810.169C130.688 817.356 129.166 825.061 129.176 832.844C129.187 840.627 130.731 848.336 133.719 855.531C136.708 862.726 141.082 869.266 146.594 874.777L188.445 832.925L230.296 791.074Z" fill="#9AADCE"/>
<path opacity="0.8" d="M146.564 874.676C141.053 869.165 134.514 864.79 127.319 861.802C120.124 858.813 112.415 857.269 104.631 857.259C96.8483 857.248 89.1434 858.77 81.9567 861.739C74.7701 864.708 68.2424 869.064 62.7464 874.56C57.2505 880.056 52.8938 886.584 49.9252 893.771C46.9566 900.957 45.4342 908.662 45.445 916.445C45.4557 924.229 46.9994 931.938 49.9878 939.133C52.9763 946.327 57.351 952.867 62.8621 958.378L95.9079 925.332C94.7484 924.173 93.828 922.797 93.1992 921.283C92.5705 919.769 92.2457 918.147 92.2434 916.51C92.2412 914.872 92.5615 913.251 93.186 911.739C93.8106 910.227 94.7273 908.854 95.8836 907.697C97.0399 906.541 98.4133 905.624 99.9254 905C101.437 904.375 103.059 904.055 104.696 904.057C106.334 904.059 107.956 904.384 109.469 905.013C110.983 905.642 112.359 906.562 113.519 907.722L146.564 874.676Z" fill="#9AADCE"/>
<path opacity="0.4" d="M156.547 754.293C162.058 759.804 168.598 764.179 175.793 767.167C182.987 770.156 190.697 771.699 198.48 771.71C206.263 771.721 213.968 770.198 221.155 767.23C228.341 764.261 234.869 759.905 240.365 754.409C245.861 748.913 250.218 742.385 253.186 735.198C256.155 728.012 257.677 720.307 257.666 712.523C257.656 704.74 256.112 697.031 253.123 689.836C250.135 682.641 245.76 676.102 240.249 670.59L198.398 712.442L156.547 754.293Z" fill="#9AADCE"/>
<path opacity="0.05" d="M240.275 670.687C245.787 676.199 252.326 680.573 259.521 683.562C266.716 686.55 274.425 688.094 282.208 688.105C289.992 688.115 297.696 686.593 304.883 683.624C312.07 680.656 318.597 676.299 324.093 670.803C329.589 665.307 333.946 658.779 336.915 651.593C339.883 644.406 341.406 636.701 341.395 628.918C341.384 621.135 339.84 613.426 336.852 606.231C333.864 599.036 329.489 592.496 323.978 586.985L290.932 620.031C292.091 621.19 293.012 622.566 293.641 624.08C294.269 625.594 294.594 627.216 294.596 628.853C294.599 630.491 294.278 632.112 293.654 633.624C293.029 635.136 292.113 636.51 290.956 637.666C289.8 638.822 288.427 639.739 286.914 640.364C285.402 640.988 283.781 641.308 282.144 641.306C280.506 641.304 278.884 640.979 277.37 640.35C275.857 639.722 274.481 638.801 273.321 637.642L240.275 670.687Z" fill="#9AADCE"/>
<path opacity="0.4" d="M230.296 115.977C224.785 110.465 218.245 106.091 211.05 103.102C203.855 100.114 196.146 98.5702 188.363 98.5595C180.58 98.5488 172.875 100.071 165.688 103.04C158.502 106.008 151.974 110.365 146.478 115.861C140.982 121.357 136.625 127.885 133.657 135.071C130.688 142.258 129.166 149.963 129.176 157.746C129.187 165.529 130.731 173.238 133.719 180.433C136.708 187.628 141.082 194.168 146.594 199.679L188.445 157.828L230.296 115.977Z" fill="#9AADCE"/>
<path opacity="0.8" d="M146.566 199.584C141.055 194.073 134.516 189.698 127.321 186.71C120.126 183.721 112.417 182.178 104.633 182.167C96.8502 182.156 89.1453 183.679 81.9587 186.647C74.772 189.616 68.2444 193.972 62.7484 199.468C57.2524 204.964 52.8958 211.492 49.9272 218.679C46.9586 225.865 45.4362 233.57 45.447 241.354C45.4577 249.137 47.0014 256.846 49.9898 264.041C52.9782 271.236 57.3529 277.775 62.8641 283.286L95.9099 250.241C94.7504 249.081 93.8299 247.705 93.2012 246.191C92.5724 244.678 92.2476 243.056 92.2454 241.418C92.2431 239.78 92.5634 238.159 93.188 236.647C93.8126 235.135 94.7292 233.762 95.8856 232.606C97.0419 231.449 98.4153 230.533 99.9273 229.908C101.439 229.283 103.06 228.963 104.698 228.965C106.336 228.968 107.958 229.292 109.471 229.921C110.985 230.55 112.361 231.47 113.521 232.63L146.566 199.584Z" fill="#9AADCE"/>
<defs>
<linearGradient id="paint0_linear_2717_43092" x1="77.8245" y1="1068.59" x2="160.833" y2="985.579" gradientUnits="userSpaceOnUse">
<stop stop-color="#CAD6E9"/>
<stop offset="1" stop-color="#DEE5F2" stop-opacity="0"/>
</linearGradient>
<linearGradient id="paint1_linear_2717_43092" x1="309.018" y1="476.783" x2="226.01" y2="559.792" gradientUnits="userSpaceOnUse">
<stop stop-color="#CAD6E9"/>
<stop offset="1" stop-color="#DEE5F2" stop-opacity="0"/>
</linearGradient>
<linearGradient id="paint2_linear_2717_43092" x1="77.8216" y1="393.49" x2="160.83" y2="310.482" gradientUnits="userSpaceOnUse">
<stop stop-color="#CAD6E9"/>
<stop offset="1" stop-color="#DEE5F2" stop-opacity="0"/>
</linearGradient>
<linearGradient id="paint3_linear_2717_43092" x1="134.842" y1="714.158" x2="51.8337" y2="797.167" gradientUnits="userSpaceOnUse">
<stop stop-color="#CAD6E9"/>
<stop offset="1" stop-color="#DEE5F2" stop-opacity="0"/>
</linearGradient>
<linearGradient id="paint4_linear_2717_43092" x1="36.3919" y1="1110.08" x2="119.401" y2="1027.08" gradientUnits="userSpaceOnUse">
<stop stop-color="#CAD6E9"/>
<stop offset="1" stop-color="#DEE5F2" stop-opacity="0"/>
</linearGradient>
<linearGradient id="paint5_linear_2717_43092" x1="350.45" y1="435.283" x2="267.441" y2="518.292" gradientUnits="userSpaceOnUse">
<stop stop-color="#CAD6E9"/>
<stop offset="1" stop-color="#DEE5F2" stop-opacity="0"/>
</linearGradient>
<linearGradient id="paint6_linear_2717_43092" x1="36.3919" y1="434.989" x2="119.401" y2="351.98" gradientUnits="userSpaceOnUse">
<stop stop-color="#CAD6E9"/>
<stop offset="1" stop-color="#DEE5F2" stop-opacity="0"/>
</linearGradient>
</defs>
</svg>
