<svg width="387" height="1209" viewBox="0 0 387 1209" fill="none" xmlns="http://www.w3.org/2000/svg">
<path opacity="0.5" d="M245.625 1005.96C256.755 1017.09 271.839 1023.36 287.558 1023.38C303.277 1023.4 318.343 1017.18 329.443 1006.08C340.542 994.978 346.766 979.912 346.744 964.193C346.723 948.474 340.457 933.39 329.327 922.26L287.476 964.111L245.625 1005.96Z" fill="white"/>
<path opacity="0.5" d="M141.22 539.409C130.09 528.279 115.006 522.014 99.287 521.992C83.5681 521.97 68.5016 528.194 57.402 539.293C46.3023 550.393 40.0788 565.459 40.1005 581.178C40.1222 596.897 46.3873 611.981 57.5176 623.111L99.3688 581.26L141.22 539.409Z" fill="white"/>
<path opacity="0.5" d="M245.625 330.866C256.755 341.997 271.839 348.262 287.558 348.284C303.277 348.305 318.343 342.082 329.443 330.982C340.542 319.882 346.766 304.816 346.744 289.097C346.723 273.378 340.457 258.294 329.327 247.164L287.476 289.015L245.625 330.866Z" fill="white"/>
<path d="M86.3806 1080.61C97.5109 1091.74 112.595 1098.01 128.314 1098.03C144.032 1098.05 159.099 1091.83 170.199 1080.73C181.298 1069.63 187.522 1054.56 187.5 1038.84C187.478 1023.12 181.213 1008.04 170.083 996.91L128.232 1038.76L86.3806 1080.61Z" fill="url(#paint0_linear_2717_43281)"/>
<path d="M300.463 464.759C289.333 453.628 274.249 447.363 258.53 447.341C242.811 447.32 227.745 453.543 216.645 464.643C205.545 475.743 199.322 490.809 199.344 506.528C199.365 522.247 205.63 537.331 216.761 548.461L235.591 529.631C229.468 523.508 226.022 515.211 226.01 506.565C225.998 497.918 229.422 489.631 235.527 483.525C241.633 477.419 249.92 473.996 258.567 474.008C267.214 474.02 275.511 477.466 281.633 483.589L300.463 464.759Z" fill="url(#paint1_linear_2717_43281)"/>
<path d="M86.3767 405.515C97.507 416.645 112.591 422.91 128.31 422.932C144.029 422.954 159.095 416.73 170.195 405.631C181.294 394.531 187.518 379.464 187.496 363.745C187.475 348.027 181.209 332.943 170.079 321.813L128.228 363.664L86.3767 405.515Z" fill="url(#paint2_linear_2717_43281)"/>
<path opacity="0.1" d="M260.555 843.234C271.686 854.364 286.769 860.629 302.488 860.651C318.207 860.672 333.274 854.449 344.373 843.349C355.473 832.25 361.697 817.183 361.675 801.464C361.653 785.745 355.388 770.662 344.258 759.531L302.407 801.382L260.555 843.234Z" fill="white"/>
<path d="M126.287 702.134C115.157 691.003 100.073 684.738 84.3544 684.716C68.6355 684.695 53.569 690.918 42.4693 702.018C31.3697 713.118 25.1462 728.184 25.1679 743.903C25.1896 759.622 31.4547 774.706 42.585 785.836L63.1841 765.237C57.5321 759.585 54.3506 751.925 54.3396 743.943C54.3286 735.961 57.4889 728.31 63.1253 722.674C68.7618 717.038 76.4125 713.877 84.3946 713.888C92.3767 713.899 100.036 717.081 105.688 722.733L126.287 702.134Z" fill="url(#paint3_linear_2717_43281)"/>
<path d="M260.555 168.138C271.686 179.268 286.769 185.533 302.488 185.555C318.207 185.577 333.274 179.353 344.373 168.254C355.473 157.154 361.697 142.087 361.675 126.369C361.653 110.65 355.388 95.5658 344.258 84.4356L320.2 108.493C324.933 113.225 327.596 119.638 327.605 126.322C327.615 133.005 324.969 139.41 320.249 144.13C315.53 148.849 309.125 151.495 302.441 151.486C295.758 151.476 289.345 148.813 284.613 144.08L260.555 168.138Z" fill="white"/>
<path opacity="0.22" d="M104.295 916.888C115.425 928.018 130.509 934.283 146.228 934.305C161.947 934.327 177.013 928.103 188.113 917.004C199.212 905.904 205.436 890.837 205.414 875.119C205.392 859.4 199.127 844.316 187.997 833.186L179.169 842.014C187.952 850.796 192.895 862.698 192.912 875.101C192.929 887.504 188.019 899.393 179.26 908.151C170.502 916.909 158.614 921.82 146.21 921.803C133.807 921.786 121.905 916.842 113.123 908.06L104.295 916.888Z" fill="white"/>
<path opacity="0.22" d="M282.548 628.489C271.418 617.359 256.334 611.094 240.615 611.072C224.896 611.05 209.83 617.274 198.73 628.373C187.63 639.473 181.407 654.54 181.429 670.258C181.45 685.977 187.715 701.061 198.846 712.191L207.674 703.363C198.891 694.581 193.948 682.679 193.931 670.276C193.913 657.872 198.824 645.984 207.582 637.226C216.341 628.467 228.229 623.557 240.632 623.574C253.036 623.591 264.938 628.534 273.72 637.317L282.548 628.489Z" fill="white"/>
<path opacity="0.22" d="M104.297 241.786C115.427 252.917 130.511 259.182 146.23 259.203C161.949 259.225 177.015 253.002 188.115 241.902C199.214 230.802 205.438 215.736 205.416 200.017C205.394 184.298 199.129 169.214 187.999 158.084L179.171 166.912C187.954 175.694 192.897 187.596 192.914 200C192.931 212.403 188.021 224.291 179.262 233.05C170.504 241.808 158.616 246.719 146.212 246.702C133.809 246.684 121.907 241.741 113.125 232.958L104.297 241.786Z" fill="white"/>
<path opacity="0.22" d="M159.53 1091.75C170.66 1102.88 185.744 1109.15 201.463 1109.17C217.182 1109.19 232.248 1102.97 243.348 1091.87C254.448 1080.77 260.671 1065.7 260.65 1049.98C260.628 1034.26 254.363 1019.18 243.232 1008.05L201.381 1049.9L159.53 1091.75Z" fill="white"/>
<path opacity="0.22" d="M227.312 453.614C216.181 442.484 201.098 436.219 185.379 436.197C169.66 436.175 154.593 442.399 143.494 453.498C132.394 464.598 126.171 479.665 126.192 495.383C126.214 511.102 132.479 526.186 143.609 537.316L185.461 495.465L227.312 453.614Z" fill="white"/>
<path opacity="0.22" d="M159.533 416.659C170.663 427.79 185.747 434.055 201.466 434.077C217.185 434.098 232.251 427.875 243.351 416.775C254.451 405.675 260.674 390.609 260.652 374.89C260.631 359.171 254.366 344.087 243.235 332.957L201.384 374.808L159.533 416.659Z" fill="white"/>
<path opacity="0.22" d="M0.287837 1166.4C11.4181 1177.53 26.5019 1183.8 42.2208 1183.82C57.9397 1183.84 73.0062 1177.61 84.1059 1166.52C95.2055 1155.42 101.429 1140.35 101.407 1124.63C101.386 1108.91 95.1205 1093.83 83.9902 1082.7L77.206 1089.48C86.532 1098.81 91.7815 1111.45 91.7997 1124.62C91.8178 1137.79 86.6032 1150.41 77.3028 1159.71C68.0025 1169.01 55.3783 1174.23 42.2075 1174.21C29.0367 1174.19 16.3981 1168.94 7.07211 1159.62L0.287837 1166.4Z" fill="white"/>
<path opacity="0.22" d="M386.557 378.971C375.427 367.841 360.343 361.576 344.624 361.554C328.905 361.533 313.838 367.756 302.739 378.856C291.639 389.955 285.416 405.022 285.437 420.741C285.459 436.46 291.724 451.544 302.854 462.674L309.639 455.89C300.313 446.564 295.063 433.925 295.045 420.754C295.027 407.583 300.242 394.959 309.542 385.659C318.842 376.358 331.466 371.144 344.637 371.162C357.808 371.18 370.447 376.43 379.773 385.756L386.557 378.971Z" fill="white"/>
<path opacity="0.67" d="M0.284914 491.302C11.4152 502.432 26.4989 508.697 42.2179 508.719C57.9368 508.741 73.0033 502.517 84.1029 491.418C95.2026 480.318 101.426 465.251 101.404 449.533C101.383 433.814 95.1176 418.73 83.9873 407.6L77.203 414.384C86.5291 423.71 91.7786 436.348 91.7967 449.519C91.8149 462.69 86.6002 475.314 77.2999 484.615C67.9996 493.915 55.3754 499.13 42.2046 499.111C29.0338 499.093 16.3952 493.844 7.06919 484.518L0.284914 491.302Z" fill="white"/>
<path opacity="0.7" d="M174.463 929.027C185.593 940.157 200.677 946.422 216.396 946.444C232.115 946.465 247.181 940.242 258.281 929.142C269.38 918.043 275.604 902.976 275.582 887.257C275.56 871.538 269.295 856.455 258.165 845.324L216.314 887.175L174.463 929.027Z" fill="white"/>
<path opacity="0.1" d="M212.381 616.344C201.251 605.214 186.167 598.949 170.448 598.927C154.729 598.906 139.663 605.129 128.563 616.229C117.463 627.328 111.24 642.395 111.262 658.114C111.283 673.833 117.548 688.917 128.679 700.047L170.53 658.196L212.381 616.344Z" fill="white"/>
<path opacity="0.7" d="M174.461 253.927C185.591 265.057 200.675 271.322 216.394 271.344C232.113 271.366 247.179 265.142 258.279 254.043C269.378 242.943 275.602 227.876 275.58 212.158C275.558 196.439 269.293 181.355 258.163 170.225L216.312 212.076L174.461 253.927Z" fill="white"/>
<path d="M14.0642 1005.91C25.1945 1017.04 40.2782 1023.3 55.9972 1023.33C71.7161 1023.35 86.7826 1017.12 97.8822 1006.03C108.982 994.925 115.205 979.859 115.184 964.14C115.162 948.421 108.897 933.337 97.7666 922.207L55.9154 964.058L14.0642 1005.91Z" fill="white"/>
<path opacity="0.2" d="M372.78 539.464C361.649 528.333 346.566 522.068 330.847 522.047C315.128 522.025 300.061 528.248 288.962 539.348C277.862 550.448 271.638 565.514 271.66 581.233C271.682 596.952 277.947 612.036 289.077 623.166L330.928 581.315L372.78 539.464Z" fill="white"/>
<path d="M14.0652 330.808C25.1955 341.938 40.2792 348.203 55.9981 348.225C71.7171 348.247 86.7836 342.023 97.8832 330.923C108.983 319.824 115.206 304.757 115.185 289.038C115.163 273.319 108.898 258.236 97.7676 247.105L55.9164 288.957L14.0652 330.808Z" fill="white"/>
<path d="M371.626 880.152C366.115 874.641 359.575 870.267 352.38 867.278C345.185 864.29 337.476 862.746 329.693 862.735C321.91 862.725 314.205 864.247 307.018 867.216C299.832 870.184 293.304 874.541 287.808 880.037C282.312 885.533 277.955 892.06 274.987 899.247C272.018 906.434 270.496 914.139 270.507 921.922C270.517 929.705 272.061 937.414 275.049 944.609C278.038 951.804 282.412 958.344 287.924 963.855L291.633 960.146C286.61 955.123 282.623 949.163 279.899 942.606C277.176 936.048 275.769 929.023 275.759 921.929C275.749 914.836 277.137 907.814 279.842 901.264C282.548 894.714 286.518 888.765 291.527 883.756C296.536 878.747 302.485 874.777 309.035 872.071C315.585 869.366 322.607 867.978 329.7 867.988C336.794 867.998 343.82 869.404 350.377 872.128C356.934 874.852 362.894 878.839 367.917 883.861L371.626 880.152Z" fill="white"/>
<path opacity="0.8" d="M287.896 963.76C282.384 958.249 275.845 953.874 268.65 950.886C261.455 947.897 253.746 946.353 245.963 946.343C238.179 946.332 230.474 947.854 223.288 950.823C216.101 953.792 209.573 958.148 204.077 963.644C198.582 969.14 194.225 975.668 191.256 982.855C188.288 990.041 186.765 997.746 186.776 1005.53C186.787 1013.31 188.33 1021.02 191.319 1028.22C194.307 1035.41 198.682 1041.95 204.193 1047.46L246.044 1005.61L287.896 963.76Z" fill="white"/>
<path d="M15.2178 665.219C20.7289 670.73 27.2686 675.105 34.4635 678.093C41.6584 681.081 49.3675 682.625 57.1507 682.636C64.934 682.647 72.6388 681.124 79.8255 678.156C87.0122 675.187 93.5398 670.83 99.0358 665.334C104.532 659.838 108.888 653.311 111.857 646.124C114.826 638.937 116.348 631.232 116.337 623.449C116.326 615.666 114.783 607.957 111.794 600.762C108.806 593.567 104.431 587.027 98.9201 581.516L95.2111 585.225C100.234 590.248 104.221 596.208 106.944 602.765C109.668 609.323 111.075 616.349 111.085 623.442C111.094 630.535 109.707 637.557 107.002 644.107C104.296 650.657 100.325 656.606 95.3166 661.615C90.3077 666.624 84.3585 670.595 77.8087 673.3C71.259 676.006 64.2369 677.393 57.1435 677.383C50.05 677.373 43.0241 675.967 36.4669 673.243C29.9096 670.519 23.9495 666.533 18.9267 661.51L15.2178 665.219Z" fill="white"/>
<path opacity="0.1" d="M98.9472 581.613C104.458 587.124 110.998 591.499 118.193 594.488C125.388 597.476 133.097 599.02 140.88 599.03C148.663 599.041 156.368 597.519 163.555 594.55C170.742 591.581 177.269 587.225 182.765 581.729C188.261 576.233 192.618 569.705 195.587 562.519C198.555 555.332 200.077 547.627 200.067 539.844C200.056 532.061 198.512 524.351 195.524 517.157C192.535 509.962 188.161 503.422 182.65 497.911L175.766 504.795C180.371 509.399 184.026 514.863 186.523 520.875C189.019 526.886 190.309 533.327 190.318 539.83C190.327 546.333 189.055 552.771 186.575 558.775C184.095 564.78 180.454 570.234 175.862 574.826C171.271 579.418 165.817 583.058 159.812 585.538C153.807 588.019 147.37 589.291 140.867 589.282C134.364 589.273 127.923 587.983 121.911 585.486C115.9 582.989 110.436 579.334 105.831 574.73L98.9472 581.613Z" fill="white"/>
<path d="M371.625 205.057C366.114 199.545 359.574 195.171 352.379 192.182C345.184 189.194 337.475 187.65 329.692 187.64C321.909 187.629 314.204 189.151 307.017 192.12C299.831 195.088 293.303 199.445 287.807 204.941C282.311 210.437 277.954 216.965 274.986 224.151C272.017 231.338 270.495 239.043 270.506 246.826C270.516 254.609 272.06 262.319 275.048 269.513C278.037 276.708 282.412 283.248 287.923 288.759L291.632 285.05C286.609 280.027 282.622 274.067 279.898 267.51C277.175 260.953 275.768 253.927 275.758 246.833C275.748 239.74 277.136 232.718 279.841 226.168C282.547 219.618 286.517 213.669 291.526 208.66C296.535 203.651 302.484 199.681 309.034 196.975C315.584 194.27 322.606 192.882 329.699 192.892C336.793 192.902 343.819 194.309 350.376 197.032C356.933 199.756 362.893 203.743 367.916 208.766L371.625 205.057Z" fill="white"/>
<path opacity="0.8" d="M287.896 288.664C282.384 283.153 275.845 278.778 268.65 275.79C261.455 272.801 253.746 271.258 245.963 271.247C238.179 271.236 230.474 272.759 223.288 275.727C216.101 278.696 209.573 283.053 204.077 288.549C198.582 294.044 194.225 300.572 191.256 307.759C188.288 314.945 186.765 322.65 186.776 330.434C186.787 338.217 188.33 345.926 191.319 353.121C194.307 360.316 198.682 366.855 204.193 372.367L246.044 330.515L287.896 288.664Z" fill="white"/>
<path opacity="0.8" d="M212.38 954.801C206.869 949.29 200.329 944.915 193.134 941.927C185.939 938.938 178.23 937.394 170.447 937.384C162.664 937.373 154.959 938.895 147.772 941.864C140.586 944.833 134.058 949.189 128.562 954.685C123.066 960.181 118.709 966.709 115.741 973.896C112.772 981.082 111.25 988.787 111.26 996.57C111.271 1004.35 112.815 1012.06 115.803 1019.26C118.792 1026.45 123.166 1032.99 128.678 1038.5L159.017 1008.16C157.501 1006.65 156.297 1004.85 155.475 1002.87C154.653 1000.89 154.228 998.77 154.226 996.63C154.223 994.489 154.641 992.369 155.458 990.392C156.274 988.415 157.473 986.62 158.985 985.108C160.497 983.596 162.292 982.398 164.269 981.581C166.246 980.765 168.365 980.346 170.506 980.349C172.647 980.352 174.768 980.776 176.747 981.598C178.726 982.42 180.525 983.624 182.041 985.14L212.38 954.801Z" fill="white"/>
<path d="M128.651 1038.41C123.14 1032.9 116.601 1028.52 109.406 1025.53C102.211 1022.54 94.5016 1021 86.7184 1020.99C78.9352 1020.98 71.2303 1022.5 64.0436 1025.47C56.857 1028.44 50.3293 1032.79 44.8333 1038.29C39.3374 1043.79 34.9807 1050.31 32.0121 1057.5C29.0435 1064.69 27.5212 1072.39 27.5319 1080.18C27.5426 1087.96 29.0863 1095.67 32.0747 1102.86C35.0632 1110.06 39.4379 1116.6 44.949 1122.11L67.0872 1099.97C64.4913 1097.37 62.4307 1094.29 61.0231 1090.91C59.6155 1087.52 58.8884 1083.89 58.8833 1080.22C58.8783 1076.55 59.5953 1072.92 60.9936 1069.54C62.3919 1066.15 64.444 1063.08 67.0327 1060.49C69.6215 1057.9 72.6962 1055.85 76.0813 1054.45C79.4664 1053.05 83.0956 1052.34 86.7617 1052.34C90.4278 1052.35 94.059 1053.07 97.4479 1054.48C100.837 1055.89 103.917 1057.95 106.513 1060.54L128.651 1038.41Z" fill="url(#paint4_linear_2717_43281)"/>
<path opacity="0.1" d="M174.464 590.568C179.975 596.08 186.515 600.454 193.71 603.443C200.904 606.431 208.614 607.975 216.397 607.985C224.18 607.996 231.885 606.474 239.072 603.505C246.258 600.537 252.786 596.18 258.282 590.684C263.778 585.188 268.135 578.66 271.103 571.474C274.072 564.287 275.594 556.582 275.583 548.799C275.573 541.016 274.029 533.306 271.04 526.112C268.052 518.917 263.677 512.377 258.166 506.866L227.827 537.205C229.343 538.721 230.547 540.52 231.369 542.499C232.191 544.478 232.615 546.599 232.618 548.74C232.621 550.881 232.202 553 231.386 554.977C230.569 556.954 229.371 558.749 227.859 560.261C226.347 561.773 224.552 562.971 222.575 563.788C220.598 564.604 218.479 565.023 216.338 565.02C214.197 565.017 212.076 564.593 210.097 563.771C208.118 562.949 206.319 561.745 204.803 560.229L174.464 590.568Z" fill="white"/>
<path opacity="0.3" d="M258.192 506.961C263.704 512.472 270.243 516.847 277.438 519.835C284.633 522.824 292.342 524.367 300.125 524.378C307.909 524.389 315.613 522.866 322.8 519.898C329.987 516.929 336.514 512.572 342.01 507.076C347.506 501.581 351.863 495.053 354.832 487.866C357.8 480.68 359.323 472.975 359.312 465.191C359.301 457.408 357.757 449.699 354.769 442.504C351.781 435.309 347.406 428.77 341.895 423.258L319.757 445.397C322.352 447.993 324.413 451.073 325.821 454.462C327.228 457.851 327.955 461.482 327.96 465.148C327.965 468.814 327.248 472.443 325.85 475.829C324.452 479.214 322.4 482.288 319.811 484.877C317.222 487.466 314.148 489.518 310.762 490.916C307.377 492.315 303.748 493.032 300.082 493.027C296.416 493.022 292.785 492.294 289.396 490.887C286.007 489.479 282.926 487.419 280.331 484.823L258.192 506.961Z" fill="url(#paint5_linear_2717_43281)"/>
<path opacity="0.5" d="M212.381 279.703C206.87 274.192 200.33 269.817 193.135 266.829C185.94 263.84 178.231 262.297 170.448 262.286C162.665 262.275 154.96 263.798 147.773 266.766C140.586 269.735 134.059 274.092 128.563 279.588C123.067 285.084 118.71 291.611 115.742 298.798C112.773 305.985 111.251 313.689 111.261 321.473C111.272 329.256 112.816 336.965 115.804 344.16C118.793 351.355 123.167 357.894 128.679 363.406L159.018 333.067C157.502 331.551 156.298 329.752 155.476 327.773C154.654 325.793 154.229 323.673 154.227 321.532C154.224 319.391 154.642 317.271 155.459 315.295C156.275 313.318 157.474 311.522 158.986 310.01C160.497 308.499 162.293 307.3 164.27 306.484C166.247 305.667 168.366 305.248 170.507 305.251C172.648 305.254 174.769 305.679 176.748 306.501C178.727 307.323 180.526 308.526 182.042 310.042L212.381 279.703Z" fill="white"/>
<path d="M128.65 363.311C123.139 357.799 116.6 353.425 109.405 350.436C102.21 347.448 94.5007 345.904 86.7174 345.893C78.9342 345.883 71.2293 347.405 64.0427 350.374C56.856 353.342 50.3284 357.699 44.8324 363.195C39.3364 368.691 34.9797 375.219 32.0112 382.405C29.0426 389.592 27.5202 397.297 27.5309 405.08C27.5417 412.863 29.0853 420.572 32.0738 427.767C35.0622 434.962 39.4369 441.502 44.9481 447.013L67.0863 424.875C64.4904 422.279 62.4298 419.199 61.0221 415.81C59.6145 412.421 58.8874 408.789 58.8824 405.123C58.8773 401.457 59.5944 397.828 60.9927 394.443C62.3909 391.058 64.443 387.983 67.0318 385.394C69.6205 382.806 72.6952 380.754 76.0803 379.355C79.4654 377.957 83.0946 377.24 86.7607 377.245C90.4268 377.25 94.058 377.977 97.447 379.385C100.836 380.792 103.916 382.853 106.512 385.449L128.65 363.311Z" fill="url(#paint6_linear_2717_43281)"/>
<path opacity="0.22" d="M386.556 717.422C381.045 711.911 374.505 707.536 367.31 704.548C360.115 701.559 352.406 700.016 344.623 700.005C336.839 699.994 329.135 701.516 321.948 704.485C314.761 707.454 308.234 711.81 302.738 717.306C297.242 722.802 292.885 729.33 289.916 736.517C286.948 743.703 285.425 751.408 285.436 759.191C285.447 766.975 286.991 774.684 289.979 781.879C292.967 789.073 297.342 795.613 302.853 801.124L306.239 797.739C301.173 792.674 297.153 786.663 294.406 780.05C291.659 773.437 290.24 766.352 290.23 759.198C290.221 752.044 291.62 744.963 294.348 738.357C297.077 731.752 301.081 725.752 306.132 720.701C311.184 715.65 317.183 711.645 323.789 708.917C330.394 706.188 337.476 704.789 344.629 704.799C351.783 704.809 358.868 706.228 365.481 708.974C372.094 711.721 378.105 715.742 383.17 720.807L386.556 717.422Z" fill="white"/>
<path opacity="0.2" d="M302.827 801.029C297.316 795.518 290.776 791.143 283.581 788.155C276.387 785.167 268.677 783.623 260.894 783.612C253.111 783.601 245.406 785.124 238.219 788.092C231.033 791.061 224.505 795.418 219.009 800.914C213.513 806.41 209.156 812.937 206.188 820.124C203.219 827.311 201.697 835.016 201.708 842.799C201.718 850.582 203.262 858.291 206.251 865.486C209.239 872.681 213.614 879.221 219.125 884.732L260.976 842.881L302.827 801.029Z" fill="white"/>
<path opacity="0.22" d="M0.287092 827.945C5.79826 833.456 12.338 837.831 19.5328 840.82C26.7277 843.808 34.4368 845.352 42.2201 845.362C50.0033 845.373 57.7082 843.851 64.8948 840.882C72.0815 837.914 78.6092 833.557 84.1051 828.061C89.6011 822.565 93.9578 816.037 96.9263 808.851C99.8949 801.664 101.417 793.959 101.407 786.176C101.396 778.393 99.8522 770.683 96.8637 763.489C93.8753 756.294 89.5006 749.754 83.9894 744.243L80.6041 747.628C85.6694 752.694 89.6903 758.704 92.437 765.317C95.1837 771.93 96.6024 779.016 96.6123 786.169C96.6222 793.323 95.223 800.404 92.4945 807.01C89.766 813.615 85.7618 819.615 80.7104 824.666C75.659 829.718 69.6594 833.722 63.054 836.45C56.4487 839.179 49.3671 840.578 42.2134 840.568C35.0598 840.558 27.9743 839.139 21.3614 836.393C14.7485 833.646 8.73783 829.625 3.67247 824.56L0.287092 827.945Z" fill="white"/>
<path opacity="0.2" d="M84.0166 744.338C89.5277 749.849 96.0675 754.224 103.262 757.212C110.457 760.201 118.166 761.744 125.95 761.755C133.733 761.766 141.438 760.243 148.624 757.275C155.811 754.306 162.339 749.949 167.835 744.453C173.331 738.957 177.687 732.43 180.656 725.243C183.624 718.056 185.147 710.352 185.136 702.568C185.125 694.785 183.582 687.076 180.593 679.881C177.605 672.686 173.23 666.147 167.719 660.635L125.868 702.487L84.0166 744.338Z" fill="white"/>
<path opacity="0.22" d="M386.558 42.3281C381.046 36.817 374.507 32.4423 367.312 29.4539C360.117 26.4654 352.408 24.9218 344.625 24.9111C336.841 24.9003 329.137 26.4227 321.95 29.3913C314.763 32.3599 308.236 36.7166 302.74 42.2126C297.244 47.7086 292.887 54.2362 289.918 61.4229C286.95 68.6095 285.427 76.3144 285.438 84.0977C285.449 91.8809 286.993 99.59 289.981 106.785C292.969 113.98 297.344 120.519 302.855 126.031L306.241 122.645C301.175 117.58 297.154 111.569 294.408 104.956C291.661 98.3434 290.242 91.2579 290.232 84.1043C290.223 76.9506 291.622 69.869 294.35 63.2637C297.079 56.6583 301.083 50.6587 306.134 45.6073C311.186 40.5559 317.185 36.5516 323.791 33.8232C330.396 31.0947 337.478 29.6954 344.631 29.7053C351.785 29.7152 358.87 31.134 365.483 33.8806C372.096 36.6273 378.107 40.6481 383.172 45.7135L386.558 42.3281Z" fill="white"/>
<path opacity="0.2" d="M302.828 125.936C297.317 120.424 290.777 116.05 283.582 113.061C276.388 110.073 268.678 108.529 260.895 108.518C253.112 108.508 245.407 110.03 238.22 112.999C231.034 115.967 224.506 120.324 219.01 125.82C213.514 131.316 209.157 137.844 206.189 145.03C203.22 152.217 201.698 159.922 201.709 167.705C201.719 175.488 203.263 183.197 206.252 190.392C209.24 197.587 213.615 204.127 219.126 209.638L243.236 185.528C240.9 183.192 239.045 180.419 237.778 177.369C236.512 174.319 235.857 171.052 235.853 167.752C235.848 164.453 236.494 161.187 237.752 158.14C239.01 155.094 240.857 152.327 243.187 149.997C245.517 147.667 248.284 145.82 251.33 144.562C254.377 143.303 257.643 142.658 260.942 142.663C264.242 142.667 267.51 143.321 270.56 144.588C273.61 145.855 276.382 147.71 278.718 150.046L302.828 125.936Z" fill="white"/>
<path opacity="0.4" d="M230.295 791.074C224.784 785.563 218.244 781.188 211.049 778.2C203.854 775.212 196.145 773.668 188.362 773.657C180.579 773.646 172.874 775.169 165.687 778.137C158.501 781.106 151.973 785.463 146.477 790.959C140.981 796.455 136.624 802.982 133.656 810.169C130.687 817.356 129.165 825.061 129.175 832.844C129.186 840.627 130.73 848.336 133.718 855.531C136.707 862.726 141.081 869.266 146.593 874.777L188.444 832.925L230.295 791.074Z" fill="white"/>
<path opacity="0.8" d="M146.564 874.676C141.053 869.165 134.514 864.79 127.319 861.802C120.124 858.813 112.415 857.269 104.631 857.259C96.8483 857.248 89.1434 858.77 81.9567 861.739C74.7701 864.708 68.2424 869.064 62.7464 874.56C57.2505 880.056 52.8938 886.584 49.9252 893.771C46.9566 900.957 45.4342 908.662 45.445 916.445C45.4557 924.229 46.9994 931.938 49.9878 939.133C52.9763 946.327 57.351 952.867 62.8621 958.378L95.9079 925.332C94.7484 924.173 93.828 922.797 93.1992 921.283C92.5705 919.769 92.2457 918.147 92.2434 916.51C92.2412 914.872 92.5615 913.251 93.186 911.739C93.8106 910.227 94.7273 908.854 95.8836 907.697C97.0399 906.541 98.4133 905.624 99.9254 905C101.437 904.375 103.059 904.055 104.696 904.057C106.334 904.059 107.956 904.384 109.469 905.013C110.983 905.642 112.359 906.562 113.519 907.722L146.564 874.676Z" fill="white"/>
<path opacity="0.4" d="M156.548 754.293C162.059 759.804 168.599 764.179 175.794 767.167C182.988 770.156 190.698 771.699 198.481 771.71C206.264 771.721 213.969 770.198 221.156 767.23C228.342 764.261 234.87 759.905 240.366 754.409C245.862 748.913 250.218 742.385 253.187 735.198C256.156 728.012 257.678 720.307 257.667 712.523C257.657 704.74 256.113 697.031 253.124 689.836C250.136 682.641 245.761 676.102 240.25 670.59L198.399 712.442L156.548 754.293Z" fill="white"/>
<path opacity="0.05" d="M240.276 670.687C245.788 676.199 252.327 680.573 259.522 683.562C266.717 686.55 274.426 688.094 282.209 688.105C289.993 688.115 297.697 686.593 304.884 683.624C312.071 680.656 318.598 676.299 324.094 670.803C329.59 665.307 333.947 658.779 336.916 651.593C339.884 644.406 341.407 636.701 341.396 628.918C341.385 621.135 339.841 613.426 336.853 606.231C333.865 599.036 329.49 592.496 323.979 586.985L290.933 620.031C292.092 621.19 293.013 622.566 293.642 624.08C294.27 625.594 294.595 627.216 294.597 628.853C294.6 630.491 294.279 632.112 293.655 633.624C293.03 635.136 292.114 636.51 290.957 637.666C289.801 638.822 288.427 639.739 286.915 640.364C285.403 640.988 283.782 641.308 282.145 641.306C280.507 641.304 278.885 640.979 277.371 640.35C275.858 639.722 274.482 638.801 273.322 637.642L240.276 670.687Z" fill="white"/>
<path opacity="0.4" d="M230.295 115.977C224.784 110.465 218.244 106.091 211.049 103.102C203.854 100.114 196.145 98.5702 188.362 98.5595C180.579 98.5488 172.874 100.071 165.687 103.04C158.501 106.008 151.973 110.365 146.477 115.861C140.981 121.357 136.624 127.885 133.656 135.071C130.687 142.258 129.165 149.963 129.175 157.746C129.186 165.529 130.73 173.238 133.718 180.433C136.707 187.628 141.081 194.168 146.593 199.679L188.444 157.828L230.295 115.977Z" fill="white"/>
<path opacity="0.8" d="M146.566 199.584C141.055 194.073 134.516 189.698 127.321 186.71C120.126 183.721 112.417 182.178 104.633 182.167C96.8502 182.156 89.1453 183.679 81.9587 186.647C74.772 189.616 68.2444 193.972 62.7484 199.468C57.2524 204.964 52.8958 211.492 49.9272 218.679C46.9586 225.865 45.4362 233.57 45.447 241.354C45.4577 249.137 47.0014 256.846 49.9898 264.041C52.9782 271.236 57.3529 277.775 62.8641 283.286L95.9099 250.241C94.7504 249.081 93.8299 247.705 93.2012 246.191C92.5724 244.678 92.2476 243.056 92.2454 241.418C92.2431 239.78 92.5634 238.159 93.188 236.647C93.8126 235.135 94.7292 233.762 95.8856 232.606C97.0419 231.449 98.4153 230.533 99.9273 229.908C101.439 229.283 103.06 228.963 104.698 228.965C106.336 228.968 107.958 229.292 109.471 229.921C110.985 230.55 112.361 231.47 113.521 232.63L146.566 199.584Z" fill="white"/>
<defs>
<linearGradient id="paint0_linear_2717_43281" x1="77.8245" y1="1068.59" x2="160.833" y2="985.579" gradientUnits="userSpaceOnUse">
<stop stop-color="white"/>
<stop offset="1" stop-color="white" stop-opacity="0"/>
</linearGradient>
<linearGradient id="paint1_linear_2717_43281" x1="309.019" y1="476.783" x2="226.011" y2="559.792" gradientUnits="userSpaceOnUse">
<stop stop-color="white"/>
<stop offset="1" stop-color="white" stop-opacity="0"/>
</linearGradient>
<linearGradient id="paint2_linear_2717_43281" x1="77.8206" y1="393.49" x2="160.829" y2="310.482" gradientUnits="userSpaceOnUse">
<stop stop-color="white"/>
<stop offset="1" stop-color="white" stop-opacity="0"/>
</linearGradient>
<linearGradient id="paint3_linear_2717_43281" x1="134.843" y1="714.158" x2="51.8347" y2="797.167" gradientUnits="userSpaceOnUse">
<stop stop-color="white"/>
<stop offset="1" stop-color="white" stop-opacity="0"/>
</linearGradient>
<linearGradient id="paint4_linear_2717_43281" x1="36.3929" y1="1110.08" x2="119.402" y2="1027.08" gradientUnits="userSpaceOnUse">
<stop stop-color="white"/>
<stop offset="1" stop-color="white" stop-opacity="0"/>
</linearGradient>
<linearGradient id="paint5_linear_2717_43281" x1="350.451" y1="435.283" x2="267.442" y2="518.292" gradientUnits="userSpaceOnUse">
<stop stop-color="white"/>
<stop offset="1" stop-color="white" stop-opacity="0"/>
</linearGradient>
<linearGradient id="paint6_linear_2717_43281" x1="36.3919" y1="434.989" x2="119.401" y2="351.98" gradientUnits="userSpaceOnUse">
<stop stop-color="white"/>
<stop offset="1" stop-color="white" stop-opacity="0"/>
</linearGradient>
</defs>
</svg>
