    <svg
      xmlns="http://www.w3.org/2000/svg"
      fillRule="evenodd"
      strokeLinejoin="round"
      strokeMiterlimit="2"
      clipRule="evenodd"
      width="24" height="24" viewBox="0 0 26 25"
    >
      <path
        fill="#fff"
        d="M12.337 15.154c0-.581.468-1.052 1.045-1.052h11.754c2.63 0 5.077.799 7.111 2.17.48.323.608.976.287 1.459a1.04 1.04 0 01-1.449.289 10.607 10.607 0 00-5.949-1.815H13.382c-.577 0-1.045-.47-1.045-1.051zm21.465 3.769a1.04 1.04 0 011.465.188 12.887 12.887 0 012.668 7.873 12.89 12.89 0 01-7.252 11.613 1.042 1.042 0 01-1.395-.491 1.055 1.055 0 01.488-1.404 10.784 10.784 0 006.069-9.718c0-2.481-.832-4.765-2.231-6.586a1.055 1.055 0 01.188-1.475zM12.337 38.815c0-.581.468-1.051 1.045-1.051h13.321c.577 0 1.045.47 1.045 1.051s-.468 1.052-1.045 1.052H13.382a1.049 1.049 0 01-1.045-1.052z"
        transform="translate(-11.111 -13.51) scale(.96454)"
      ></path>
      <path
        fill="#fff"
        d="M14.426 19.886c0-.581.468-1.052 1.045-1.052h9.665a8.073 8.073 0 016.63 3.471 1.055 1.055 0 01-.255 1.465 1.04 1.04 0 01-1.455-.257 5.99 5.99 0 00-4.92-2.576h-9.665a1.048 1.048 0 01-1.045-1.051zm17.762 6.046c.577 0 1.045.471 1.045 1.052 0 4.501-3.625 8.15-8.097 8.15h-9.665a1.048 1.048 0 01-1.045-1.051c0-.581.468-1.052 1.045-1.052h9.665c3.317 0 6.007-2.707 6.007-6.047 0-.581.468-1.052 1.045-1.052z"
        transform="translate(-11.111 -13.51) scale(.96454)"
      ></path>
      <path
        fill="#fff"
        d="M15.994 24.355c0-.58.467-1.051 1.045-1.051h7.574c2.02 0 3.657 1.648 3.657 3.68 0 2.033-1.637 3.681-3.657 3.681a1.048 1.048 0 01-1.044-1.052c0-.58.467-1.051 1.044-1.051.866 0 1.568-.706 1.568-1.578 0-.871-.702-1.577-1.568-1.577h-7.574a1.048 1.048 0 01-1.045-1.052zm0 5.258c0-.58.467-1.051 1.045-1.051h3.656c.577 0 1.045.471 1.045 1.051 0 .581-.468 1.052-1.045 1.052h-3.656a1.048 1.048 0 01-1.045-1.052z"
        transform="translate(-11.111 -13.51) scale(.96454)"
      ></path>
    </svg>
