<svg width="48" height="54" viewBox="0 0 48 54" fill="none" xmlns="http://www.w3.org/2000/svg">
<path d="M16.9233 1.9934C21.2729 -0.664466 26.7271 -0.664465 31.0767 1.9934L41.4225 8.3153C45.5059 10.8105 48 15.2752 48 20.0896V33.9104C48 38.7248 45.5059 43.1895 41.4225 45.6847L31.0767 52.0066C26.7271 54.6645 21.2729 54.6645 16.9233 52.0066L6.57752 45.6847C2.49413 43.1895 0 38.7248 0 33.9104V20.0896C0 15.2752 2.49413 10.8105 6.57752 8.3153L16.9233 1.9934Z" fill="url(#paint0_linear)"/>
<path fill-rule="evenodd" clip-rule="evenodd" d="M12.3367 15.1537C12.3367 14.5729 12.8045 14.1021 13.3815 14.1021H25.1358C27.7655 14.1021 30.2128 14.9014 32.2472 16.272C32.7267 16.5951 32.8552 17.2482 32.5342 17.7309C32.2133 18.2135 31.5643 18.3429 31.0848 18.0198C29.3836 16.8737 27.3389 16.2053 25.1358 16.2053H13.3815C12.8045 16.2053 12.3367 15.7345 12.3367 15.1537ZM33.8015 18.9225C34.2581 18.5673 34.9142 18.6518 35.2672 19.1113C36.9394 21.2883 37.935 24.0208 37.935 26.9844C37.935 32.1008 34.9715 36.5184 30.6827 38.5972C30.1628 38.8492 29.5384 38.6293 29.288 38.106C29.0376 37.5827 29.2561 36.9542 29.776 36.7022C33.3692 34.9606 35.8453 31.2626 35.8453 26.9844C35.8453 24.5026 35.0133 22.2194 33.614 20.3977C33.2611 19.9382 33.345 19.2778 33.8015 18.9225ZM12.3367 38.8152C12.3367 38.2344 12.8045 37.7635 13.3815 37.7635H26.7031C27.2801 37.7635 27.7479 38.2344 27.7479 38.8152C27.7479 39.3959 27.2801 39.8668 26.7031 39.8668H13.3815C12.8045 39.8668 12.3367 39.3959 12.3367 38.8152Z" fill="white"/>
<path fill-rule="evenodd" clip-rule="evenodd" d="M14.426 19.8856C14.426 19.3048 14.8938 18.834 15.4709 18.834H25.1355C27.8787 18.834 30.3029 20.2079 31.7659 22.3046C32.0976 22.7799 31.9836 23.4358 31.5114 23.7696C31.0392 24.1034 30.3876 23.9887 30.0559 23.5134C28.9673 21.9533 27.1692 20.9372 25.1355 20.9372H15.4709C14.8938 20.9372 14.426 20.4664 14.426 19.8856ZM32.1881 25.9324C32.7651 25.9324 33.2329 26.4033 33.2329 26.9841C33.2329 31.4852 29.6076 35.1341 25.1355 35.1341H15.4709C14.8938 35.1341 14.426 34.6633 14.426 34.0825C14.426 33.5017 14.8938 33.0309 15.4709 33.0309H25.1355C28.4535 33.0309 31.1433 30.3236 31.1433 26.9841C31.1433 26.4033 31.6111 25.9324 32.1881 25.9324Z" fill="white"/>
<path fill-rule="evenodd" clip-rule="evenodd" d="M15.9937 24.3553C15.9937 23.7745 16.4614 23.3037 17.0385 23.3037H24.6135C26.6331 23.3037 28.2704 24.9516 28.2704 26.9844C28.2704 29.0172 26.6331 30.6651 24.6135 30.6651C24.0364 30.6651 23.5687 30.1942 23.5687 29.6134C23.5687 29.0326 24.0364 28.5618 24.6135 28.5618C25.479 28.5618 26.1807 27.8556 26.1807 26.9844C26.1807 26.1132 25.479 25.407 24.6135 25.407H17.0385C16.4614 25.407 15.9937 24.9361 15.9937 24.3553ZM15.9937 29.6134C15.9937 29.0326 16.4614 28.5618 17.0385 28.5618H20.6954C21.2724 28.5618 21.7402 29.0326 21.7402 29.6134C21.7402 30.1942 21.2724 30.6651 20.6954 30.6651H17.0385C16.4614 30.6651 15.9937 30.1942 15.9937 29.6134Z" fill="white"/>
<defs>
<linearGradient id="paint0_linear" x1="23.9999" y1="-2.33077" x2="23.9999" y2="56.331" gradientUnits="userSpaceOnUse">
<stop stop-color="#8493AD"/>
<stop offset="1" stop-color="#1B2840"/>
</linearGradient>
</defs>
</svg>
