<svg fill="none" height="49" viewBox="0 0 48 49" width="48" xmlns="http://www.w3.org/2000/svg" xmlns:xlink="http://www.w3.org/1999/xlink"><clipPath id="a"><path d="m0 .5h48v48h-48z"/></clipPath><g clip-path="url(#a)"><path d="m23.9989 48.4834c13.2456 0 23.9832-10.7377 23.9832-23.9833 0-13.2455-10.7376-23.983193-23.9832-23.983193s-23.983275 10.737693-23.983275 23.983193c0 13.2456 10.737675 23.9833 23.983275 23.9833z" fill="#909fbe"/><path clip-rule="evenodd" d="m27.4486 25.8954c-.5508.5494-.729 1.3556-.6339 2.1277.2667 2.1667-.4293 4.4298-2.088 6.0932-2.8578 2.8658-7.4912 2.8658-10.349 0-2.8578-2.8659-2.8578-7.5123 0-10.3782.9498-.9524 2.0957-1.5884 3.3073-1.9077 2.4188-.6376 5.1185-1.0285 6.8848-2.7997l5.2597-5.2745c.652-.6538 1.5373-1.0213 2.4606-1.0213h1.155c1.2813 0 2.32 1.0387 2.32 2.32v.4816c0 1.0641-.901 1.9112-1.9638 1.8588-1.0874-.0536-1.9946.8448-1.9413 1.9322.0531 1.0843-.8406 1.9808-1.925 1.9273-1.0843-.0534-1.9782.8402-1.925 1.9246l.0549 1.1214c.0292.5947-.1947 1.1741-.6163 1.5946zm-6.5526 1.6843c.7421.7442.7421 1.9508 0 2.695-.7422.7443-1.9454.7443-2.6876 0-.7421-.7442-.7421-1.9508 0-2.695.7422-.7443 1.9454-.7443 2.6876 0z" fill="#fff" fill-rule="evenodd"/></g></svg>