<svg width="23" height="23" viewBox="0 0 23 23" fill="none" xmlns="http://www.w3.org/2000/svg">
<path d="M11.2441 15.2441C13.4532 15.2441 15.2441 13.4532 15.2441 11.2441C15.2441 9.03493 13.4532 7.24406 11.2441 7.24406C9.03492 7.24406 7.24406 9.03493 7.24406 11.2441C7.24406 13.4532 9.03492 15.2441 11.2441 15.2441Z" fill="#909FBE"/>
<path fill-rule="evenodd" clip-rule="evenodd" d="M10.422 0.430527C10.8197 -0.143509 11.6683 -0.143509 12.066 0.430527L13.5243 2.53545C14.3283 2.74538 15.0884 3.06367 15.7882 3.47383L18.3092 3.01637C18.9963 2.89171 19.5964 3.49178 19.4717 4.17885L19.0142 6.69978C19.4244 7.39958 19.7427 8.15971 19.9526 8.96364L22.0576 10.422C22.6316 10.8197 22.6316 11.6683 22.0576 12.066L19.9527 13.5243C19.7427 14.3282 19.4244 15.0884 19.0143 15.7882L19.4717 18.3091C19.5964 18.9962 18.9963 19.5962 18.3093 19.4715L15.7885 19.0141C15.0887 19.4243 14.3285 19.7427 13.5245 19.9526L12.0661 22.0576C11.6684 22.6316 10.8198 22.6316 10.4221 22.0576L8.96378 19.9527C8.15983 19.7428 7.39967 19.4245 6.69987 19.0143L4.17893 19.4718C3.49184 19.5964 2.89178 18.9964 3.01646 18.3093L3.4739 15.7884C3.06374 15.0886 2.74543 14.3284 2.53548 13.5245L0.430504 12.0661C-0.143501 11.6684 -0.143501 10.8198 0.430504 10.4221L2.53545 8.96376C2.74538 8.15984 3.06368 7.3997 3.47381 6.69991L3.01637 4.17906C2.89169 3.49196 3.49175 2.89189 4.17884 3.01659L6.69959 3.47401C7.39942 3.06383 8.15961 2.74547 8.96362 2.53551L10.422 0.430527ZM18.2441 11.2441C18.2441 15.1101 15.1101 18.2441 11.2441 18.2441C7.37806 18.2441 4.24406 15.1101 4.24406 11.2441C4.24406 7.37807 7.37806 4.24406 11.2441 4.24406C15.1101 4.24406 18.2441 7.37807 18.2441 11.2441Z" fill="#909FBE"/>
</svg>
