<svg width="24" height="24" viewBox="0 0 24 24" fill="none" xmlns="http://www.w3.org/2000/svg">
<path d="M12.2441 16.2441C14.4532 16.2441 16.2441 14.4532 16.2441 12.2441C16.2441 10.0349 14.4532 8.24406 12.2441 8.24406C10.0349 8.24406 8.24406 10.0349 8.24406 12.2441C8.24406 14.4532 10.0349 16.2441 12.2441 16.2441Z" fill="#909FBE"/>
<path fill-rule="evenodd" clip-rule="evenodd" d="M11.422 1.43053C11.8197 0.856491 12.6683 0.856491 13.066 1.43053L14.5243 3.53545C15.3283 3.74538 16.0884 4.06367 16.7882 4.47383L19.3092 4.01637C19.9963 3.89171 20.5964 4.49178 20.4717 5.17885L20.0142 7.69978C20.4244 8.39958 20.7427 9.15971 20.9526 9.96364L23.0576 11.422C23.6316 11.8197 23.6316 12.6683 23.0576 13.066L20.9527 14.5243C20.7427 15.3282 20.4244 16.0884 20.0143 16.7882L20.4717 19.3091C20.5964 19.9962 19.9963 20.5962 19.3093 20.4715L16.7885 20.0141C16.0887 20.4243 15.3285 20.7427 14.5245 20.9526L13.0661 23.0576C12.6684 23.6316 11.8198 23.6316 11.4221 23.0576L9.96378 20.9527C9.15983 20.7428 8.39967 20.4245 7.69987 20.0143L5.17893 20.4718C4.49184 20.5964 3.89178 19.9964 4.01646 19.3093L4.4739 16.7884C4.06374 16.0886 3.74543 15.3284 3.53548 14.5245L1.4305 13.0661C0.856499 12.6684 0.856499 11.8198 1.4305 11.4221L3.53545 9.96376C3.74538 9.15984 4.06368 8.3997 4.47381 7.69991L4.01637 5.17906C3.89169 4.49196 4.49175 3.89189 5.17884 4.01659L7.69959 4.47401C8.39942 4.06383 9.15961 3.74547 9.96362 3.53551L11.422 1.43053ZM19.2441 12.2441C19.2441 16.1101 16.1101 19.2441 12.2441 19.2441C8.37806 19.2441 5.24406 16.1101 5.24406 12.2441C5.24406 8.37807 8.37806 5.24406 12.2441 5.24406C16.1101 5.24406 19.2441 8.37807 19.2441 12.2441Z" fill="#909FBE"/>
</svg>
