<?xml version="1.0" encoding="UTF-8" standalone="no"?><!DOCTYPE svg PUBLIC "-//W3C//DTD SVG 1.1//EN" "http://www.w3.org/Graphics/SVG/1.1/DTD/svg11.dtd"><svg width="100%" height="100%" viewBox="0 0 226921 223925" version="1.1" xmlns="http://www.w3.org/2000/svg" xmlns:xlink="http://www.w3.org/1999/xlink" xml:space="preserve" xmlns:serif="http://www.serif.com/" style="fill-rule:evenodd;clip-rule:evenodd;stroke-linecap:round;stroke-linejoin:round;stroke-miterlimit:1.5;"><g><g><g><path d="M114548,35449.4c880.9,1849 3109.65,2661.64 4973.96,1813.57c1864.29,-848.066 2662.68,-3037.75 1781.78,-4886.75c-880.904,-1849 -3109.65,-2661.64 -4973.96,-1813.57c-1864.29,848.07 -2662.68,3037.75 -1781.78,4886.75l0,0.004Z" style="fill:#66a462;"/><g><path d="M159918,36540.2c359.075,1083.77 1674.73,1635.5 2936.18,1231.32c1261.45,-404.183 1994.06,-1612.21 1634.99,-2695.98c-359.071,-1083.77 -1674.73,-1635.5 -2936.18,-1231.32c-1261.45,404.184 -1994.06,1612.21 -1634.99,2695.98Z" style="fill:#66a462;"/></g><path d="M130525,46872.1c611.512,1845.69 2815.88,2796.93 4919.5,2122.89c2103.64,-674.037 3315.06,-2719.73 2703.55,-4565.42c-611.517,-1845.69 -2815.88,-2796.93 -4919.54,-2122.89c-2103.65,674.037 -3315.06,2719.73 -2703.55,4565.42l0.038,0Z" style="fill:#66a462;"/><path d="M140374,68480c655.017,1976.99 2812.01,3061.33 4813.79,2419.93c2001.79,-641.4 3095.19,-2767.2 2440.18,-4744.21c-655.017,-1976.99 -2812.01,-3061.32 -4813.79,-2419.93c-2001.79,641.4 -3095.19,2767.2 -2440.18,4744.21Z" style="fill:#66a462;"/><path d="M196517,59220.8c540.184,1630.4 2324.26,2522.96 3981.55,1991.94c1657.29,-531.017 2564.24,-2285.81 2024.05,-3916.21c-540.187,-1630.39 -2324.26,-2522.95 -3981.55,-1991.94c-1657.29,531.021 -2564.24,2285.82 -2024.05,3916.21Z" style="fill:#66a462;"/><path d="M157331,63204.6c859.742,2594.9 3744.17,4001.08 6437.21,3138.18c2693.06,-862.892 4181.5,-3670.18 3321.74,-6265.08c-859.746,-2594.9 -3744.17,-4001.08 -6437.25,-3138.18c-2693.06,862.892 -4181.5,3670.18 -3321.73,6265.08l0.037,0Z" style="fill:#66a462;"/><path d="M177670,60927.1c859.745,2594.9 3744.18,4001.07 6437.25,3138.18c2693.06,-862.892 4181.5,-3670.18 3321.74,-6265.08c-859.746,-2594.9 -3744.17,-4001.08 -6437.25,-3138.18c-2693.06,862.896 -4181.5,3670.18 -3321.74,6265.08l0,0.004Z" style="fill:#66a462;"/><g><path d="M98965.4,53684.2c444.729,933.479 1624.16,1319.06 2632.17,860.521c1008.01,-458.542 1465.32,-1588.69 1020.59,-2522.16c-444.725,-933.479 -1624.16,-1319.07 -2632.17,-860.521c-1008,458.542 -1465.32,1588.69 -1020.59,2522.16Z" style="fill:#66a462;"/></g><path d="M104974,44585c757.383,1589.75 2737.03,2259.59 4418.04,1494.9c1680.99,-764.683 2430.84,-2676.18 1673.46,-4265.92c-757.384,-1589.74 -2737.03,-2259.58 -4418.04,-1494.89c-1680.99,764.683 -2430.85,2676.18 -1673.46,4265.92l0,-0.004Z" style="fill:#66a462;"/><g><path d="M125391,27463.6c826.929,1735.72 3009.47,2457.46 4870.83,1610.73c1861.36,-846.733 2701.18,-2943.36 1874.25,-4679.08c-826.929,-1735.72 -3009.47,-2457.46 -4870.83,-1610.73c-1861.36,846.737 -2701.18,2943.36 -1874.25,4679.08Z" style="fill:#66a462;"/></g><g><path d="M108746,64527.9c359.075,1083.77 1674.73,1635.5 2936.18,1231.32c1261.45,-404.187 1994.06,-1612.22 1634.99,-2695.98c-359.075,-1083.77 -1674.73,-1635.5 -2936.18,-1231.32c-1261.45,404.188 -1994.06,1612.22 -1634.99,2695.98Z" style="fill:#66a462;"/></g><g><path d="M125904,76027.9c454.121,1370.63 1975.4,2114.11 3395.06,1659.23c1419.67,-454.879 2203.57,-1936.97 1749.45,-3307.6c-454.121,-1370.63 -1975.4,-2114.11 -3395.06,-1659.23c-1419.67,454.879 -2203.57,1936.97 -1749.45,3307.6Z" style="fill:#66a462;"/></g><path d="M117659,55360.4c611.516,1845.69 2815.88,2796.93 4919.54,2122.89c2103.64,-674.033 3315.06,-2719.73 2703.55,-4565.42c-611.516,-1845.69 -2815.88,-2796.93 -4919.54,-2122.89c-2103.64,674.033 -3315.06,2719.73 -2703.55,4565.42Z" style="fill:#66a462;"/><path d="M137718,21687.9c444.725,933.475 1624.16,1319.06 2632.17,860.52c1008,-458.545 1465.32,-1588.69 1020.59,-2522.17c-444.729,-933.475 -1624.16,-1319.06 -2632.17,-860.521c-1008.01,458.546 -1465.32,1588.69 -1020.59,2522.17Z" style="fill:#66a462;"/><path d="M144155,40630.6c667.671,2015.17 3100.88,3045.29 5430.25,2298.93c2329.36,-746.359 3678.44,-2988.37 3010.78,-5003.54c-667.667,-2015.17 -3100.88,-3045.29 -5430.25,-2298.93c-2329.36,746.358 -3678.44,2988.37 -3010.78,5003.54Z" style="fill:#66a462;"/></g><g><path d="M93251.3,107125c385.563,2011.5 -928.704,3986.45 -2933.08,4407.5c-2004.37,421.071 -3944.7,-870.159 -4330.25,-2881.66c-385.562,-2011.5 928.704,-3986.45 2933.08,-4407.5c2004.37,-421.071 3944.7,870.159 4330.25,2881.66Z" style="fill:#66a462;"/><g><path d="M63955.8,82679.6c-191.612,1125.51 -1409.08,1869.25 -2717.04,1659.83c-1307.96,-209.425 -2214.29,-1293.22 -2022.68,-2418.73c191.612,-1125.51 1409.08,-1869.25 2717.04,-1659.83c1307.96,209.425 2214.29,1293.22 2022.68,2418.73Z" style="fill:#66a462;"/></g><path d="M94570,88462.9c-326.321,1916.78 -2362.12,3189.42 -4543.33,2840.17c-2181.21,-349.241 -3687.14,-2188.97 -3360.82,-4105.74c326.321,-1916.78 2362.12,-3189.42 4543.33,-2840.17c2181.21,349.246 3687.14,2188.97 3360.82,4105.75Z" style="fill:#66a462;"/><path d="M108243,80617.5c-1154.19,1733.61 -3521.05,2209.37 -5282.17,1061.76c-1761.12,-1147.61 -2253.87,-3486.79 -1099.68,-5220.38c1154.19,-1733.61 3521.05,-2209.37 5282.17,-1061.77c1761.12,1147.61 2253.87,3486.79 1099.68,5220.38l0,0.004Z" style="fill:#66a462;"/><path d="M56541.7,56850.4c-951.842,1429.68 -2908.36,1819.04 -4366.42,868.925c-1458.04,-950.109 -1869.01,-2882.2 -917.167,-4311.88c951.842,-1429.68 2908.36,-1819.04 4366.42,-868.925c1458.04,950.108 1869.01,2882.2 917.167,4311.88Z" style="fill:#66a462;"/><path d="M93282.1,71048.3c-1514.93,2275.45 -4668.42,2869.37 -7037.71,1325.46c-2369.28,-1543.9 -3062.91,-4644.75 -1547.98,-6920.17c1514.93,-2275.45 4668.42,-2869.37 7037.71,-1325.46c2369.29,1543.91 3062.92,4644.75 1547.99,6920.21l-0.005,-0.038Z" style="fill:#66a462;"/><path d="M74267.5,63476.7c-1514.93,2275.45 -4668.42,2869.37 -7037.71,1325.46c-2369.29,-1543.9 -3062.91,-4644.75 -1547.98,-6920.17c1514.93,-2275.45 4668.42,-2869.37 7037.71,-1325.46c2369.29,1543.91 3062.91,4644.75 1547.98,6920.21l0,-0.037Z" style="fill:#66a462;"/><g><path d="M116607,112586c194.655,1015.52 -527.175,2024.83 -1610.92,2252.49c-1083.75,227.671 -2121.64,-411.963 -2316.3,-1427.48c-194.654,-1015.52 527.175,-2024.83 1610.92,-2252.5c1083.75,-227.667 2121.64,411.962 2316.3,1427.48Z" style="fill:#66a462;"/></g><path d="M106376,108815c331.5,1729.46 -866.662,3441.8 -2673.96,3821.47c-1807.3,379.671 -3543.73,-716.187 -3875.23,-2445.64c-331.5,-1729.45 866.663,-3441.8 2673.96,-3821.47c1807.3,-379.671 3543.73,716.183 3875.23,2445.64Z" style="fill:#66a462;"/><g><path d="M79784.6,107115c361.942,1888.26 -968.941,3762.61 -2970.16,4183.04c-2001.22,420.404 -3919.8,-771.304 -4281.75,-2659.57c-361.938,-1888.26 968.946,-3762.61 2970.16,-4183c2001.22,-420.408 3919.8,771.304 4281.75,2659.56l-0.005,-0.038Z" style="fill:#66a462;"/></g><g><path d="M118763,102634c-191.608,1125.51 -1409.07,1869.25 -2717.03,1659.83c-1307.96,-209.425 -2214.3,-1293.22 -2022.68,-2418.73c191.613,-1125.51 1409.08,-1869.25 2717.03,-1659.83c1307.96,209.425 2214.3,1293.22 2022.68,2418.73Z" style="fill:#66a462;"/></g><path d="M108569,94915c-326.321,1916.78 -2362.12,3189.42 -4543.33,2840.17c-2181.21,-349.242 -3687.14,-2188.97 -3360.82,-4105.74c326.321,-1916.78 2362.12,-3189.42 4543.33,-2840.18c2181.21,349.246 3687.14,2188.97 3360.82,4105.75Z" style="fill:#66a462;"/><path d="M66432.5,109763c194.654,1015.52 -527.179,2024.83 -1610.92,2252.49c-1083.75,227.671 -2121.64,-411.962 -2316.3,-1427.48c-194.65,-1015.52 527.179,-2024.83 1610.92,-2252.49c1083.75,-227.667 2121.64,411.962 2316.3,1427.48Z" style="fill:#66a462;"/><path d="M80155,84347.1c-356.283,2092.78 -2606.41,3477.9 -5021.67,3091.18c-2415.24,-386.721 -4086.86,-2399.76 -3730.58,-4492.54c356.288,-2092.79 2606.42,-3477.9 5021.67,-3091.18c2415.25,386.716 4086.86,2399.76 3730.58,4492.54l0.004,0Z" style="fill:#66a462;"/><g><path d="M116088,89801.3c-174.754,1019.13 566.675,2014.13 1654.67,2220.56c1087.99,206.43 2113.18,-453.375 2287.94,-1472.5c174.754,-1019.13 -566.675,-2014.13 -1654.67,-2220.56c-1087.99,-206.434 -2113.18,453.375 -2287.94,1472.5Z" style="fill:#66a462;"/></g></g><g><g><path d="M163680,82919.6c-1033.82,19.209 -1872.35,933.867 -1871.37,2041.27c0.988,1107.4 841.121,1990.88 1874.95,1971.67c1033.83,-19.204 1872.36,-933.867 1871.37,-2041.27c-0.987,-1107.4 -841.125,-1990.88 -1874.95,-1971.67Z" style="fill:#66a462;"/></g><path d="M174580,119181c-1760.64,32.708 -3188.71,1558.58 -3187.07,3405.33c1.646,1846.75 1432.4,3319.51 3193.03,3286.81c1760.64,-32.709 3188.71,-1558.59 3187.07,-3405.33c-1.646,-1846.75 -1432.4,-3319.52 -3193.03,-3286.81Z" style="fill:#66a462;"/><path d="M168926,92383.8c-1760.64,32.708 -3188.71,1558.58 -3187.07,3405.33c1.65,1846.75 1432.4,3319.52 3193.03,3286.81c1760.64,-32.709 3188.71,-1558.59 3187.07,-3405.33c-1.646,-1846.75 -1432.4,-3319.52 -3193.03,-3286.81Z" style="fill:#66a462;"/><g><path d="M172430,105228c-1922.3,35.712 -3481.49,1724.9 -3479.67,3769.8c1.825,2044.9 1563.98,3676.1 3486.28,3640.39c1922.3,-35.712 3481.49,-1724.9 3479.67,-3769.8c-1.825,-2044.89 -1563.98,-3676.1 -3486.28,-3640.39Z" style="fill:#66a462;"/></g><g><path d="M153078,146910c-1135.29,-120.9 -2181.41,849.146 -2334.66,2164.88c-153.25,1315.73 644.038,2482.08 1779.32,2602.98c1135.28,120.9 2181.41,-849.146 2334.66,-2164.88c153.25,-1315.73 -644.037,-2482.08 -1779.32,-2602.98Z" style="fill:#66a462;"/></g><g><path d="M148152,86305.4c-1135.28,-120.9 -2181.41,849.145 -2334.66,2164.87c-153.25,1315.73 644.038,2482.08 1779.33,2602.98c1135.28,120.9 2181.41,-849.15 2334.66,-2164.88c153.245,-1315.73 -644.042,-2482.08 -1779.33,-2602.98Z" style="fill:#66a462;"/></g><path d="M155040,130899c-1933.42,-205.896 -3710.6,1408.32 -3966.17,3602.48c-255.562,2194.16 1106.65,4142.7 3040.07,4348.58c1933.42,205.896 3710.61,-1408.32 3966.17,-3602.48c255.567,-2194.16 -1106.65,-4142.7 -3040.07,-4348.58Z" style="fill:#66a462;"/><path d="M152580,98278.3c-1933.42,-205.895 -3710.6,1408.32 -3966.17,3602.48c-255.562,2194.16 1106.65,4142.69 3040.07,4348.58c1933.42,205.896 3710.6,-1408.32 3966.17,-3602.48c255.567,-2194.16 -1106.65,-4142.7 -3040.07,-4348.58Z" style="fill:#66a462;"/><path d="M174505,132667c-1033.83,19.204 -1872.36,933.867 -1871.37,2041.27c0.988,1107.4 841.121,1990.88 1874.95,1971.67c1033.83,-19.208 1872.36,-933.867 1871.37,-2041.27c-0.987,-1107.4 -841.125,-1990.88 -1874.95,-1971.67Z" style="fill:#66a462;"/><path d="M154629,114024c-2110.96,-224.804 -4054.54,1565.2 -4337.54,3994.79c-282.983,2429.58 1201.1,4584.63 3312.06,4809.42c2110.96,224.8 4054.54,-1565.2 4337.54,-3994.79c282.983,-2429.58 -1201.1,-4584.63 -3312.06,-4809.42Z" style="fill:#66a462;"/></g></g></g><g><path d="M97675,185618c-6009.13,7873.5 -12843.8,15967 -20489.3,24942.8c-5665.13,6650.83 31355.3,5055.46 31355.3,5055.46c6306.04,-9807.96 11358.5,-19372.7 15302.3,-28799" style="fill:#9d6545;"/><path d="M-23056.3,190203c0,-1188.43 93780.4,3910.3 93780.4,3910.3" style="fill:none;"/></g><path d="M30701.5,221585c13273.9,-13313.1 26562.7,-23146.3 39946.9,-29515.9c34138.4,-16246.6 68897.5,-9959.04 105612,18594.7c-8269.13,5749.92 -19320,8942.83 -44312.1,10403.3c-16931,989.375 -40364.4,-6881.96 -59912.1,-7665.71c-23495.2,-928.558 -34866.5,1474.12 -41335,8183.67l0.209,-0.042Z" style="fill:#d88000;stroke:#0060b8;stroke-width:3298.63px;"/><path d="M123843,186817c495.367,-1184.04 973.238,-2365.9 1433.9,-3545.77c12901.8,-33044.9 12305.5,-64539.2 4510.88,-99043.3c-393.3,49494.2 -11302.5,74122.5 -32113.1,101390" style="fill:#9d6545;"/></svg>