<svg width="196" height="48" viewBox="0 0 196 48" fill="none" xmlns="http://www.w3.org/2000/svg">
<path d="M32.3208 10.3169C33.5159 10.3169 34.4848 9.35052 34.4848 8.15845C34.4848 6.96637 33.5159 6 32.3208 6C31.1256 6 30.1567 6.96637 30.1567 8.15845C30.1567 9.35052 31.1256 10.3169 32.3208 10.3169Z" fill="#131F37"/>
<path d="M34.7548 40.8054C35.95 40.8054 36.9189 39.839 36.9189 38.647C36.9189 37.4549 35.95 36.4885 34.7548 36.4885C33.5597 36.4885 32.5908 37.4549 32.5908 38.647C32.5908 39.839 33.5597 40.8054 34.7548 40.8054Z" fill="#131F37"/>
<path d="M32.9388 15.7132C33.9419 15.7132 34.755 14.9021 34.755 13.9016C34.755 12.9011 33.9419 12.0901 32.9388 12.0901C31.9357 12.0901 31.1226 12.9011 31.1226 13.9016C31.1226 14.9021 31.9357 15.7132 32.9388 15.7132Z" fill="#131F37"/>
<path d="M37.7698 16.4068C38.7729 16.4068 39.5861 15.5957 39.5861 14.5952C39.5861 13.5948 38.7729 12.7837 37.7698 12.7837C36.7668 12.7837 35.9536 13.5948 35.9536 14.5952C35.9536 15.5957 36.7668 16.4068 37.7698 16.4068Z" fill="#131F37"/>
<path d="M32.3206 20.2998C33.1743 20.2998 33.8664 19.6095 33.8664 18.7581C33.8664 17.9066 33.1743 17.2163 32.3206 17.2163C31.4669 17.2163 30.7749 17.9066 30.7749 18.7581C30.7749 19.6095 31.4669 20.2998 32.3206 20.2998Z" fill="#131F37"/>
<path d="M37.1507 20.9553C38.0044 20.9553 38.6964 20.2651 38.6964 19.4136C38.6964 18.5621 38.0044 17.8718 37.1507 17.8718C36.297 17.8718 35.605 18.5621 35.605 19.4136C35.605 20.2651 36.297 20.9553 37.1507 20.9553Z" fill="#131F37"/>
<path d="M41.0155 22.4583C41.8691 22.4583 42.5612 21.768 42.5612 20.9165C42.5612 20.065 41.8691 19.3748 41.0155 19.3748C40.1618 19.3748 39.4697 20.065 39.4697 20.9165C39.4697 21.768 40.1618 22.4583 41.0155 22.4583Z" fill="#131F37"/>
<path d="M35.7212 24.6553C36.4681 24.6553 37.0737 24.0514 37.0737 23.3063C37.0737 22.5613 36.4681 21.9573 35.7212 21.9573C34.9742 21.9573 34.3687 22.5613 34.3687 23.3063C34.3687 24.0514 34.9742 24.6553 35.7212 24.6553Z" fill="#131F37"/>
<path d="M30.8911 23.9996C31.6381 23.9996 32.2436 23.3956 32.2436 22.6505C32.2436 21.9055 31.6381 21.3015 30.8911 21.3015C30.1441 21.3015 29.5386 21.9055 29.5386 22.6505C29.5386 23.3956 30.1441 23.9996 30.8911 23.9996Z" fill="#131F37"/>
<path d="M39.624 26.1583C40.371 26.1583 40.9765 25.5543 40.9765 24.8092C40.9765 24.0642 40.371 23.4602 39.624 23.4602C38.877 23.4602 38.2715 24.0642 38.2715 24.8092C38.2715 25.5543 38.877 26.1583 39.624 26.1583Z" fill="#131F37"/>
<path d="M33.7897 27.4686C34.4299 27.4686 34.949 26.9509 34.949 26.3123C34.949 25.6737 34.4299 25.156 33.7897 25.156C33.1494 25.156 32.6304 25.6737 32.6304 26.3123C32.6304 26.9509 33.1494 27.4686 33.7897 27.4686Z" fill="#131F37"/>
<path d="M37.6925 28.9335C38.3328 28.9335 38.8518 28.4158 38.8518 27.7772C38.8518 27.1385 38.3328 26.6208 37.6925 26.6208C37.0522 26.6208 36.5332 27.1385 36.5332 27.7772C36.5332 28.4158 37.0522 28.9335 37.6925 28.9335Z" fill="#131F37"/>
<path d="M28.9972 26.7748C29.6375 26.7748 30.1565 26.2571 30.1565 25.6185C30.1565 24.9799 29.6375 24.4622 28.9972 24.4622C28.3569 24.4622 27.8379 24.9799 27.8379 25.6185C27.8379 26.2571 28.3569 26.7748 28.9972 26.7748Z" fill="#131F37"/>
<path d="M31.6638 29.3576C32.1974 29.3576 32.6299 28.9262 32.6299 28.394C32.6299 27.8618 32.1974 27.4304 31.6638 27.4304C31.1303 27.4304 30.6978 27.8618 30.6978 28.394C30.6978 28.9262 31.1303 29.3576 31.6638 29.3576Z" fill="#131F37"/>
<path d="M33.3252 32.017C33.7948 32.017 34.1754 31.6373 34.1754 31.169C34.1754 30.7007 33.7948 30.321 33.3252 30.321C32.8557 30.321 32.4751 30.7007 32.4751 31.169C32.4751 31.6373 32.8557 32.017 33.3252 32.017Z" fill="#131F37"/>
<path d="M31.2771 32.557C31.6613 32.557 31.9727 32.2464 31.9727 31.8632C31.9727 31.4801 31.6613 31.1694 31.2771 31.1694C30.893 31.1694 30.5815 31.4801 30.5815 31.8632C30.5815 32.2464 30.893 32.557 31.2771 32.557Z" fill="#131F37"/>
<path d="M29.461 30.5524C29.9305 30.5524 30.3111 30.1727 30.3111 29.7044C30.3111 29.2361 29.9305 28.8564 29.461 28.8564C28.9915 28.8564 28.6108 29.2361 28.6108 29.7044C28.6108 30.1727 28.9915 30.5524 29.461 30.5524Z" fill="#131F37"/>
<path d="M26.8338 28.7026C27.3673 28.7026 27.7998 28.2712 27.7998 27.739C27.7998 27.2068 27.3673 26.7754 26.8338 26.7754C26.3002 26.7754 25.8677 27.2068 25.8677 27.739C25.8677 28.2712 26.3002 28.7026 26.8338 28.7026Z" fill="#131F37"/>
<path d="M26.7947 21.4558C27.3282 21.4558 27.7608 21.0243 27.7608 20.4922C27.7608 19.96 27.3282 19.5286 26.7947 19.5286C26.2611 19.5286 25.8286 19.96 25.8286 20.4922C25.8286 21.0243 26.2611 21.4558 26.7947 21.4558Z" fill="#131F37"/>
<path d="M27.2198 18.0641C27.6893 18.0641 28.0699 17.6844 28.0699 17.2161C28.0699 16.7478 27.6893 16.3682 27.2198 16.3682C26.7503 16.3682 26.3696 16.7478 26.3696 17.2161C26.3696 17.6844 26.7503 18.0641 27.2198 18.0641Z" fill="#131F37"/>
<path d="M28.1472 15.2887C28.5314 15.2887 28.8428 14.9781 28.8428 14.5949C28.8428 14.2117 28.5314 13.9011 28.1472 13.9011C27.7631 13.9011 27.4517 14.2117 27.4517 14.5949C27.4517 14.9781 27.7631 15.2887 28.1472 15.2887Z" fill="#131F37"/>
<path d="M26.524 13.9786C26.9935 13.9786 27.3741 13.599 27.3741 13.1307C27.3741 12.6624 26.9935 12.2827 26.524 12.2827C26.0545 12.2827 25.6738 12.6624 25.6738 13.1307C25.6738 13.599 26.0545 13.9786 26.524 13.9786Z" fill="#131F37"/>
<path d="M35.5281 30.822C36.0616 30.822 36.4942 30.3905 36.4942 29.8584C36.4942 29.3262 36.0616 28.8948 35.5281 28.8948C34.9945 28.8948 34.562 29.3262 34.562 29.8584C34.562 30.3905 34.9945 30.822 35.5281 30.822Z" fill="#131F37"/>
<path d="M24.3216 12.8608C24.8551 12.8608 25.2876 12.4294 25.2876 11.8972C25.2876 11.365 24.8551 10.9336 24.3216 10.9336C23.788 10.9336 23.3555 11.365 23.3555 11.8972C23.3555 12.4294 23.788 12.8608 24.3216 12.8608Z" fill="#131F37"/>
<path d="M24.9783 16.9465C25.5118 16.9465 25.9444 16.5151 25.9444 15.9829C25.9444 15.4507 25.5118 15.0193 24.9783 15.0193C24.4447 15.0193 24.0122 15.4507 24.0122 15.9829C24.0122 16.5151 24.4447 16.9465 24.9783 16.9465Z" fill="#131F37"/>
<path d="M23.8966 20.8392C24.5369 20.8392 25.0559 20.3215 25.0559 19.6829C25.0559 19.0443 24.5369 18.5266 23.8966 18.5266C23.2563 18.5266 22.7373 19.0443 22.7373 19.6829C22.7373 20.3215 23.2563 20.8392 23.8966 20.8392Z" fill="#131F37"/>
<path d="M20.3799 20.8389C21.1268 20.8389 21.7324 20.2349 21.7324 19.4899C21.7324 18.7448 21.1268 18.1409 20.3799 18.1409C19.6329 18.1409 19.0273 18.7448 19.0273 19.4899C19.0273 20.2349 19.6329 20.8389 20.3799 20.8389Z" fill="#131F37"/>
<path d="M16.284 21.7644C17.1377 21.7644 17.8297 21.0741 17.8297 20.2227C17.8297 19.3712 17.1377 18.6809 16.284 18.6809C15.4303 18.6809 14.7383 19.3712 14.7383 20.2227C14.7383 21.0741 15.4303 21.7644 16.284 21.7644Z" fill="#131F37"/>
<path d="M11.8016 23.9617C12.8047 23.9617 13.6178 23.1507 13.6178 22.1502C13.6178 21.1497 12.8047 20.3386 11.8016 20.3386C10.7985 20.3386 9.98535 21.1497 9.98535 22.1502C9.98535 23.1507 10.7985 23.9617 11.8016 23.9617Z" fill="#131F37"/>
<path d="M7.16403 27.6616C8.35918 27.6616 9.32805 26.6953 9.32805 25.5032C9.32805 24.3111 8.35918 23.3447 7.16403 23.3447C5.96887 23.3447 5 24.3111 5 25.5032C5 26.6953 5.96887 27.6616 7.16403 27.6616Z" fill="#131F37"/>
<path d="M9.98518 19.452C10.9883 19.452 11.8014 18.6409 11.8014 17.6404C11.8014 16.6399 10.9883 15.8289 9.98518 15.8289C8.9821 15.8289 8.16895 16.6399 8.16895 17.6404C8.16895 18.6409 8.9821 19.452 9.98518 19.452Z" fill="#131F37"/>
<path d="M14.4676 17.2546C15.3213 17.2546 16.0133 16.5644 16.0133 15.7129C16.0133 14.8614 15.3213 14.1711 14.4676 14.1711C13.6139 14.1711 12.9219 14.8614 12.9219 15.7129C12.9219 16.5644 13.6139 17.2546 14.4676 17.2546Z" fill="#131F37"/>
<path d="M13.8104 13.1689C14.6641 13.1689 15.3561 12.4787 15.3561 11.6272C15.3561 10.7757 14.6641 10.0854 13.8104 10.0854C12.9567 10.0854 12.2646 10.7757 12.2646 11.6272C12.2646 12.4787 12.9567 13.1689 13.8104 13.1689Z" fill="#131F37"/>
<path d="M17.9067 12.244C18.6537 12.244 19.2592 11.64 19.2592 10.8949C19.2592 10.1499 18.6537 9.5459 17.9067 9.5459C17.1597 9.5459 16.5542 10.1499 16.5542 10.8949C16.5542 11.64 17.1597 12.244 17.9067 12.244Z" fill="#131F37"/>
<path d="M21.423 12.244C22.0632 12.244 22.5823 11.7263 22.5823 11.0877C22.5823 10.4491 22.0632 9.9314 21.423 9.9314C20.7827 9.9314 20.2637 10.4491 20.2637 11.0877C20.2637 11.7263 20.7827 12.244 21.423 12.244Z" fill="#131F37"/>
<path d="M22.0802 16.3295C22.7205 16.3295 23.2395 15.8118 23.2395 15.1732C23.2395 14.5345 22.7205 14.0168 22.0802 14.0168C21.4399 14.0168 20.9209 14.5345 20.9209 15.1732C20.9209 15.8118 21.4399 16.3295 22.0802 16.3295Z" fill="#131F37"/>
<path d="M18.5639 16.3682C19.3109 16.3682 19.9165 15.7642 19.9165 15.0192C19.9165 14.2741 19.3109 13.6702 18.5639 13.6702C17.817 13.6702 17.2114 14.2741 17.2114 15.0192C17.2114 15.7642 17.817 16.3682 18.5639 16.3682Z" fill="#131F37"/>
<path d="M14.7381 26.6207C15.1222 26.6207 15.4336 26.3101 15.4336 25.9269C15.4336 25.5438 15.1222 25.2332 14.7381 25.2332C14.3539 25.2332 14.0425 25.5438 14.0425 25.9269C14.0425 26.3101 14.3539 26.6207 14.7381 26.6207Z" fill="#131F37"/>
<path d="M17.5206 26.274C17.9901 26.274 18.3707 25.8944 18.3707 25.4261C18.3707 24.9578 17.9901 24.5781 17.5206 24.5781C17.051 24.5781 16.6704 24.9578 16.6704 25.4261C16.6704 25.8944 17.051 26.274 17.5206 26.274Z" fill="#131F37"/>
<path d="M20.573 25.1181C21.1066 25.1181 21.5391 24.6867 21.5391 24.1545C21.5391 23.6223 21.1066 23.1909 20.573 23.1909C20.0395 23.1909 19.6069 23.6223 19.6069 24.1545C19.6069 24.6867 20.0395 25.1181 20.573 25.1181Z" fill="#131F37"/>
<path d="M21.3072 28.2013C21.9475 28.2013 22.4665 27.6836 22.4665 27.045C22.4665 26.4064 21.9475 25.8887 21.3072 25.8887C20.667 25.8887 20.1479 26.4064 20.1479 27.045C20.1479 27.6836 20.667 28.2013 21.3072 28.2013Z" fill="#131F37"/>
<path d="M17.5979 28.9333C18.1315 28.9333 18.564 28.5019 18.564 27.9697C18.564 27.4375 18.1315 27.0061 17.5979 27.0061C17.0644 27.0061 16.6318 27.4375 16.6318 27.9697C16.6318 28.5019 17.0644 28.9333 17.5979 28.9333Z" fill="#131F37"/>
<path d="M14.313 28.8947C14.7826 28.8947 15.1632 28.515 15.1632 28.0467C15.1632 27.5784 14.7826 27.1987 14.313 27.1987C13.8435 27.1987 13.4629 27.5784 13.4629 28.0467C13.4629 28.515 13.8435 28.8947 14.313 28.8947Z" fill="#131F37"/>
<path d="M14.3513 31.5546C14.8849 31.5546 15.3174 31.1232 15.3174 30.591C15.3174 30.0589 14.8849 29.6274 14.3513 29.6274C13.8178 29.6274 13.3853 30.0589 13.3853 30.591C13.3853 31.1232 13.8178 31.5546 14.3513 31.5546Z" fill="#131F37"/>
<path d="M18.2931 32.0555C18.9334 32.0555 19.4524 31.5378 19.4524 30.8992C19.4524 30.2606 18.9334 29.7429 18.2931 29.7429C17.6528 29.7429 17.1338 30.2606 17.1338 30.8992C17.1338 31.5378 17.6528 32.0555 18.2931 32.0555Z" fill="#131F37"/>
<path d="M22.8921 31.5545C23.639 31.5545 24.2446 30.9505 24.2446 30.2055C24.2446 29.4604 23.639 28.8564 22.8921 28.8564C22.1451 28.8564 21.5396 29.4604 21.5396 30.2055C21.5396 30.9505 22.1451 31.5545 22.8921 31.5545Z" fill="#131F37"/>
<path d="M25.5965 34.9075C26.4502 34.9075 27.1422 34.2172 27.1422 33.3657C27.1422 32.5142 26.4502 31.824 25.5965 31.824C24.7428 31.824 24.0508 32.5142 24.0508 33.3657C24.0508 34.2172 24.7428 34.9075 25.5965 34.9075Z" fill="#131F37"/>
<path d="M19.9165 35.3702C20.6635 35.3702 21.269 34.7662 21.269 34.0211C21.269 33.2761 20.6635 32.6721 19.9165 32.6721C19.1695 32.6721 18.564 33.2761 18.564 34.0211C18.564 34.7662 19.1695 35.3702 19.9165 35.3702Z" fill="#131F37"/>
<path d="M16.709 37.991C17.4559 37.991 18.0615 37.387 18.0615 36.642C18.0615 35.8969 17.4559 35.293 16.709 35.293C15.962 35.293 15.3564 35.8969 15.3564 36.642C15.3564 37.387 15.962 37.991 16.709 37.991Z" fill="#131F37"/>
<path d="M19.3748 41.3831C20.2285 41.3831 20.9206 40.6928 20.9206 39.8413C20.9206 38.9898 20.2285 38.2996 19.3748 38.2996C18.5211 38.2996 17.8291 38.9898 17.8291 39.8413C17.8291 40.6928 18.5211 41.3831 19.3748 41.3831Z" fill="#131F37"/>
<path d="M26.4857 42.0001C27.4887 42.0001 28.3019 41.189 28.3019 40.1885C28.3019 39.188 27.4887 38.377 26.4857 38.377C25.4826 38.377 24.6694 39.188 24.6694 40.1885C24.6694 41.189 25.4826 42.0001 26.4857 42.0001Z" fill="#131F37"/>
<path d="M22.5828 38.762C23.4365 38.762 24.1286 38.0717 24.1286 37.2202C24.1286 36.3687 23.4365 35.6785 22.5828 35.6785C21.7292 35.6785 21.0371 36.3687 21.0371 37.2202C21.0371 38.0717 21.7292 38.762 22.5828 38.762Z" fill="#131F37"/>
<path d="M29.4613 38.1458C30.4643 38.1458 31.2775 37.3347 31.2775 36.3343C31.2775 35.3338 30.4643 34.5227 29.4613 34.5227C28.4582 34.5227 27.645 35.3338 27.645 36.3343C27.645 37.3347 28.4582 38.1458 29.4613 38.1458Z" fill="#131F37"/>
<path d="M15.0856 34.6766C15.7258 34.6766 16.2449 34.1589 16.2449 33.5203C16.2449 32.8817 15.7258 32.364 15.0856 32.364C14.4453 32.364 13.9263 32.8817 13.9263 33.5203C13.9263 34.1589 14.4453 34.6766 15.0856 34.6766Z" fill="#131F37"/>
<path d="M60 8H61V40H60V8Z" fill="#131F37"/>
<path d="M90.6906 31.7217V29.3333H82.737V25.0435H90.5269V22.6551H82.737V18.6435H90.6906V16.2551H80V31.7217H90.6906Z" fill="#131F37"/>
<path d="M107.677 31.7217L101.853 23.7681L107.327 16.2551H104.028L100.028 21.9362L96.0043 16.2551H92.7293L98.2267 23.7913L92.3784 31.7217H95.6534L100.028 25.6696L104.402 31.7217H107.677Z" fill="#131F37"/>
<path d="M112.64 31.7217V25.9478H116.757C120.009 25.9478 121.857 23.7217 121.857 21.1014C121.857 18.4812 120.032 16.2551 116.757 16.2551H109.903V31.7217H112.64ZM116.383 23.5594H112.64V18.6435H116.383C117.927 18.6435 119.05 19.6174 119.05 21.1014C119.05 22.5855 117.927 23.5594 116.383 23.5594Z" fill="#131F37"/>
<path d="M134.218 31.7217V29.3333H127.34V16.2551H124.603V31.7217H134.218Z" fill="#131F37"/>
<path d="M143.723 32C148.402 32 151.7 28.6145 151.7 24C151.7 19.3855 148.402 16 143.723 16C139.044 16 135.746 19.3855 135.746 24C135.746 28.6145 139.044 32 143.723 32ZM143.723 29.5884C140.565 29.5884 138.553 27.1768 138.553 24C138.553 20.8 140.565 18.4116 143.723 18.4116C146.858 18.4116 148.893 20.8 148.893 24C148.893 27.1768 146.858 29.5884 143.723 29.5884Z" fill="#131F37"/>
<path d="M166.874 31.7217L163.061 25.6464C164.932 25.3449 166.757 23.8609 166.757 21.1014C166.757 18.2493 164.745 16.2551 161.657 16.2551H154.803V31.7217H157.54V25.9478H160.254L163.716 31.7217H166.874ZM161.283 23.5594H157.54V18.6435H161.283C162.827 18.6435 163.95 19.6174 163.95 21.1014C163.95 22.5855 162.827 23.5594 161.283 23.5594Z" fill="#131F37"/>
<path d="M180.651 31.7217V29.3333H172.697V25.0435H180.487V22.6551H172.697V18.6435H180.651V16.2551H169.96V31.7217H180.651Z" fill="#131F37"/>
<path d="M196 31.7217L192.187 25.6464C194.058 25.3449 195.883 23.8609 195.883 21.1014C195.883 18.2493 193.871 16.2551 190.783 16.2551H183.929V31.7217H186.666V25.9478H189.38L192.842 31.7217H196ZM190.409 23.5594H186.666V18.6435H190.409C191.953 18.6435 193.076 19.6174 193.076 21.1014C193.076 22.5855 191.953 23.5594 190.409 23.5594Z" fill="#131F37"/>
</svg>
