<?xml version="1.0" encoding="UTF-8" standalone="no"?><svg xmlns="http://www.w3.org/2000/svg" xmlns:xlink="http://www.w3.org/1999/xlink" style="isolation:isolate" viewBox="0 0 152 48" width="152pt" height="48pt"><g><path d=" M 32.007 9.472 C 33.276 9.472 34.305 8.446 34.305 7.18 C 34.305 5.915 33.276 4.889 32.007 4.889 C 30.738 4.889 29.71 5.915 29.71 7.18 C 29.71 8.446 30.738 9.472 32.007 9.472 Z " fill="rgb(246,248,252)"/><path d=" M 34.592 41.843 C 35.861 41.843 36.89 40.817 36.89 39.551 C 36.89 38.285 35.861 37.259 34.592 37.259 C 33.323 37.259 32.295 38.285 32.295 39.551 C 32.295 40.817 33.323 41.843 34.592 41.843 Z " fill="rgb(246,248,252)"/><path d=" M 32.664 15.201 C 33.729 15.201 34.592 14.34 34.592 13.278 C 34.592 12.216 33.729 11.354 32.664 11.354 C 31.599 11.354 30.736 12.216 30.736 13.278 C 30.736 14.34 31.599 15.201 32.664 15.201 Z " fill="rgb(246,248,252)"/><path d=" M 37.793 15.937 C 38.858 15.937 39.721 15.076 39.721 14.014 C 39.721 12.952 38.858 12.091 37.793 12.091 C 36.728 12.091 35.865 12.952 35.865 14.014 C 35.865 15.076 36.728 15.937 37.793 15.937 Z " fill="rgb(246,248,252)"/><path d=" M 32.008 20.071 C 32.914 20.071 33.649 19.338 33.649 18.434 C 33.649 17.53 32.914 16.797 32.008 16.797 C 31.101 16.797 30.366 17.53 30.366 18.434 C 30.366 19.338 31.101 20.071 32.008 20.071 Z " fill="rgb(246,248,252)"/><path d=" M 37.136 20.768 C 38.042 20.768 38.777 20.035 38.777 19.131 C 38.777 18.227 38.042 17.494 37.136 17.494 C 36.23 17.494 35.495 18.227 35.495 19.131 C 35.495 20.035 36.23 20.768 37.136 20.768 Z " fill="rgb(246,248,252)"/><path d=" M 41.239 22.363 C 42.145 22.363 42.88 21.63 42.88 20.726 C 42.88 19.822 42.145 19.089 41.239 19.089 C 40.333 19.089 39.598 19.822 39.598 20.726 C 39.598 21.63 40.333 22.363 41.239 22.363 Z " fill="rgb(246,248,252)"/><path d=" M 35.618 24.695 C 36.411 24.695 37.054 24.054 37.054 23.263 C 37.054 22.472 36.411 21.831 35.618 21.831 C 34.825 21.831 34.182 22.472 34.182 23.263 C 34.182 24.054 34.825 24.695 35.618 24.695 Z " fill="rgb(246,248,252)"/><path d=" M 30.49 24 C 31.283 24 31.926 23.358 31.926 22.567 C 31.926 21.776 31.283 21.135 30.49 21.135 C 29.697 21.135 29.054 21.776 29.054 22.567 C 29.054 23.358 29.697 24 30.49 24 Z " fill="rgb(246,248,252)"/><path d=" M 39.762 26.291 C 40.555 26.291 41.198 25.65 41.198 24.859 C 41.198 24.068 40.555 23.427 39.762 23.427 C 38.969 23.427 38.326 24.068 38.326 24.859 C 38.326 25.65 38.969 26.291 39.762 26.291 Z " fill="rgb(246,248,252)"/><path d=" M 33.567 27.683 C 34.247 27.683 34.798 27.133 34.798 26.455 C 34.798 25.777 34.247 25.228 33.567 25.228 C 32.887 25.228 32.336 25.777 32.336 26.455 C 32.336 27.133 32.887 27.683 33.567 27.683 Z " fill="rgb(246,248,252)"/><path d=" M 37.711 29.238 C 38.391 29.238 38.942 28.689 38.942 28.011 C 38.942 27.333 38.391 26.783 37.711 26.783 C 37.031 26.783 36.48 27.333 36.48 28.011 C 36.48 28.689 37.031 29.238 37.711 29.238 Z " fill="rgb(246,248,252)"/><path d=" M 28.479 26.946 C 29.159 26.946 29.71 26.396 29.71 25.718 C 29.71 25.04 29.159 24.49 28.479 24.49 C 27.799 24.49 27.248 25.04 27.248 25.718 C 27.248 26.396 27.799 26.946 28.479 26.946 Z " fill="rgb(246,248,252)"/><path d=" M 31.31 29.689 C 31.876 29.689 32.336 29.231 32.336 28.666 C 32.336 28.1 31.876 27.642 31.31 27.642 C 30.744 27.642 30.284 28.1 30.284 28.666 C 30.284 29.231 30.744 29.689 31.31 29.689 Z " fill="rgb(246,248,252)"/><path d=" M 33.074 32.512 C 33.573 32.512 33.977 32.109 33.977 31.612 C 33.977 31.115 33.573 30.712 33.074 30.712 C 32.576 30.712 32.172 31.115 32.172 31.612 C 32.172 32.109 32.576 32.512 33.074 32.512 Z " fill="rgb(246,248,252)"/><path d=" M 30.9 33.085 C 31.308 33.085 31.638 32.755 31.638 32.348 C 31.638 31.941 31.308 31.611 30.9 31.611 C 30.492 31.611 30.161 31.941 30.161 32.348 C 30.161 32.755 30.492 33.085 30.9 33.085 Z " fill="rgb(246,248,252)"/><path d=" M 28.971 30.957 C 29.47 30.957 29.874 30.554 29.874 30.057 C 29.874 29.559 29.47 29.156 28.971 29.156 C 28.473 29.156 28.068 29.559 28.068 30.057 C 28.068 30.554 28.473 30.957 28.971 30.957 Z " fill="rgb(246,248,252)"/><path d=" M 26.182 28.993 C 26.748 28.993 27.207 28.535 27.207 27.97 C 27.207 27.405 26.748 26.947 26.182 26.947 C 25.615 26.947 25.156 27.405 25.156 27.97 C 25.156 28.535 25.615 28.993 26.182 28.993 Z " fill="rgb(246,248,252)"/><path d=" M 26.14 21.298 C 26.707 21.298 27.166 20.84 27.166 20.275 C 27.166 19.71 26.707 19.252 26.14 19.252 C 25.574 19.252 25.114 19.71 25.114 20.275 C 25.114 20.84 25.574 21.298 26.14 21.298 Z " fill="rgb(246,248,252)"/><path d=" M 26.592 17.698 C 27.09 17.698 27.494 17.294 27.494 16.797 C 27.494 16.3 27.09 15.897 26.592 15.897 C 26.093 15.897 25.689 16.3 25.689 16.797 C 25.689 17.294 26.093 17.698 26.592 17.698 Z " fill="rgb(246,248,252)"/><path d=" M 27.577 14.751 C 27.984 14.751 28.315 14.421 28.315 14.014 C 28.315 13.608 27.984 13.278 27.577 13.278 C 27.169 13.278 26.838 13.608 26.838 14.014 C 26.838 14.421 27.169 14.751 27.577 14.751 Z " fill="rgb(246,248,252)"/><path d=" M 25.853 13.359 C 26.352 13.359 26.756 12.956 26.756 12.459 C 26.756 11.962 26.352 11.559 25.853 11.559 C 25.355 11.559 24.951 11.962 24.951 12.459 C 24.951 12.956 25.355 13.359 25.853 13.359 Z " fill="rgb(246,248,252)"/><path d=" M 35.413 31.243 C 35.979 31.243 36.439 30.785 36.439 30.22 C 36.439 29.655 35.979 29.197 35.413 29.197 C 34.846 29.197 34.387 29.655 34.387 30.22 C 34.387 30.785 34.846 31.243 35.413 31.243 Z " fill="rgb(246,248,252)"/><path d=" M 23.515 12.173 C 24.081 12.173 24.54 11.715 24.54 11.15 C 24.54 10.585 24.081 10.127 23.515 10.127 C 22.948 10.127 22.489 10.585 22.489 11.15 C 22.489 11.715 22.948 12.173 23.515 12.173 Z " fill="rgb(246,248,252)"/><path d=" M 24.212 16.511 C 24.779 16.511 25.238 16.053 25.238 15.488 C 25.238 14.923 24.779 14.465 24.212 14.465 C 23.646 14.465 23.186 14.923 23.186 15.488 C 23.186 16.053 23.646 16.511 24.212 16.511 Z " fill="rgb(246,248,252)"/><path d=" M 23.063 20.644 C 23.743 20.644 24.294 20.094 24.294 19.416 C 24.294 18.738 23.743 18.188 23.063 18.188 C 22.384 18.188 21.833 18.738 21.833 19.416 C 21.833 20.094 22.384 20.644 23.063 20.644 Z " fill="rgb(246,248,252)"/><path d=" M 19.329 20.643 C 20.122 20.643 20.765 20.002 20.765 19.211 C 20.765 18.42 20.122 17.779 19.329 17.779 C 18.536 17.779 17.893 18.42 17.893 19.211 C 17.893 20.002 18.536 20.643 19.329 20.643 Z " fill="rgb(246,248,252)"/><path d=" M 14.981 21.626 C 15.887 21.626 16.622 20.893 16.622 19.989 C 16.622 19.085 15.887 18.352 14.981 18.352 C 14.074 18.352 13.34 19.085 13.34 19.989 C 13.34 20.893 14.074 21.626 14.981 21.626 Z " fill="rgb(246,248,252)"/><path d=" M 10.221 23.96 C 11.286 23.96 12.15 23.098 12.15 22.036 C 12.15 20.974 11.286 20.113 10.221 20.113 C 9.156 20.113 8.293 20.974 8.293 22.036 C 8.293 23.098 9.156 23.96 10.221 23.96 Z " fill="rgb(246,248,252)"/><path d=" M 5.298 27.888 C 6.567 27.888 7.595 26.862 7.595 25.596 C 7.595 24.33 6.567 23.304 5.298 23.304 C 4.029 23.304 3 24.33 3 25.596 C 3 26.862 4.029 27.888 5.298 27.888 Z " fill="rgb(246,248,252)"/><path d=" M 8.293 19.171 C 9.358 19.171 10.222 18.31 10.222 17.248 C 10.222 16.186 9.358 15.325 8.293 15.325 C 7.228 15.325 6.365 16.186 6.365 17.248 C 6.365 18.31 7.228 19.171 8.293 19.171 Z " fill="rgb(246,248,252)"/><path d=" M 13.052 16.838 C 13.958 16.838 14.693 16.105 14.693 15.201 C 14.693 14.297 13.958 13.564 13.052 13.564 C 12.146 13.564 11.411 14.297 11.411 15.201 C 11.411 16.105 12.146 16.838 13.052 16.838 Z " fill="rgb(246,248,252)"/><path d=" M 12.354 12.5 C 13.261 12.5 13.995 11.767 13.995 10.863 C 13.995 9.959 13.261 9.226 12.354 9.226 C 11.448 9.226 10.713 9.959 10.713 10.863 C 10.713 11.767 11.448 12.5 12.354 12.5 Z " fill="rgb(246,248,252)"/><path d=" M 16.704 11.518 C 17.497 11.518 18.14 10.877 18.14 10.086 C 18.14 9.295 17.497 8.653 16.704 8.653 C 15.911 8.653 15.268 9.295 15.268 10.086 C 15.268 10.877 15.911 11.518 16.704 11.518 Z " fill="rgb(246,248,252)"/><path d=" M 20.437 11.518 C 21.117 11.518 21.668 10.969 21.668 10.291 C 21.668 9.613 21.117 9.063 20.437 9.063 C 19.757 9.063 19.206 9.613 19.206 10.291 C 19.206 10.969 19.757 11.518 20.437 11.518 Z " fill="rgb(246,248,252)"/><path d=" M 21.135 15.856 C 21.815 15.856 22.366 15.306 22.366 14.628 C 22.366 13.95 21.815 13.4 21.135 13.4 C 20.455 13.4 19.904 13.95 19.904 14.628 C 19.904 15.306 20.455 15.856 21.135 15.856 Z " fill="rgb(246,248,252)"/><path d=" M 17.401 15.897 C 18.194 15.897 18.837 15.255 18.837 14.464 C 18.837 13.673 18.194 13.032 17.401 13.032 C 16.608 13.032 15.965 13.673 15.965 14.464 C 15.965 15.255 16.608 15.897 17.401 15.897 Z " fill="rgb(246,248,252)"/><path d=" M 13.339 26.783 C 13.747 26.783 14.078 26.453 14.078 26.046 C 14.078 25.639 13.747 25.309 13.339 25.309 C 12.931 25.309 12.601 25.639 12.601 26.046 C 12.601 26.453 12.931 26.783 13.339 26.783 Z " fill="rgb(246,248,252)"/><path d=" M 16.293 26.414 C 16.792 26.414 17.196 26.011 17.196 25.514 C 17.196 25.017 16.792 24.614 16.293 24.614 C 15.795 24.614 15.391 25.017 15.391 25.514 C 15.391 26.011 15.795 26.414 16.293 26.414 Z " fill="rgb(246,248,252)"/><path d=" M 19.534 25.187 C 20.101 25.187 20.56 24.729 20.56 24.163 C 20.56 23.598 20.101 23.14 19.534 23.14 C 18.968 23.14 18.509 23.598 18.509 24.163 C 18.509 24.729 18.968 25.187 19.534 25.187 Z " fill="rgb(246,248,252)"/><path d=" M 20.314 28.461 C 20.994 28.461 21.545 27.911 21.545 27.233 C 21.545 26.555 20.994 26.005 20.314 26.005 C 19.634 26.005 19.083 26.555 19.083 27.233 C 19.083 27.911 19.634 28.461 20.314 28.461 Z " fill="rgb(246,248,252)"/><path d=" M 16.376 29.238 C 16.942 29.238 17.402 28.779 17.402 28.215 C 17.402 27.649 16.942 27.191 16.376 27.191 C 15.809 27.191 15.35 27.649 15.35 28.215 C 15.35 28.779 15.809 29.238 16.376 29.238 Z " fill="rgb(246,248,252)"/><path d=" M 12.888 29.197 C 13.386 29.197 13.791 28.794 13.791 28.297 C 13.791 27.8 13.386 27.397 12.888 27.397 C 12.389 27.397 11.985 27.8 11.985 28.297 C 11.985 28.794 12.389 29.197 12.888 29.197 Z " fill="rgb(246,248,252)"/><path d=" M 12.929 32.02 C 13.495 32.02 13.954 31.562 13.954 30.997 C 13.954 30.432 13.495 29.974 12.929 29.974 C 12.362 29.974 11.903 30.432 11.903 30.997 C 11.903 31.562 12.362 32.02 12.929 32.02 Z " fill="rgb(246,248,252)"/><path d=" M 17.114 32.553 C 17.794 32.553 18.345 32.003 18.345 31.325 C 18.345 30.647 17.794 30.098 17.114 30.098 C 16.434 30.098 15.883 30.647 15.883 31.325 C 15.883 32.003 16.434 32.553 17.114 32.553 Z " fill="rgb(246,248,252)"/><path d=" M 21.997 32.021 C 22.79 32.021 23.433 31.38 23.433 30.589 C 23.433 29.797 22.79 29.156 21.997 29.156 C 21.204 29.156 20.561 29.797 20.561 30.589 C 20.561 31.38 21.204 32.021 21.997 32.021 Z " fill="rgb(246,248,252)"/><path d=" M 24.868 35.581 C 25.775 35.581 26.509 34.848 26.509 33.944 C 26.509 33.04 25.775 32.307 24.868 32.307 C 23.962 32.307 23.227 33.04 23.227 33.944 C 23.227 34.848 23.962 35.581 24.868 35.581 Z " fill="rgb(246,248,252)"/><path d=" M 18.837 36.072 C 19.63 36.072 20.273 35.431 20.273 34.64 C 20.273 33.849 19.63 33.207 18.837 33.207 C 18.044 33.207 17.401 33.849 17.401 34.64 C 17.401 35.431 18.044 36.072 18.837 36.072 Z " fill="rgb(246,248,252)"/><path d=" M 15.432 38.855 C 16.225 38.855 16.868 38.213 16.868 37.422 C 16.868 36.631 16.225 35.99 15.432 35.99 C 14.638 35.99 13.996 36.631 13.996 37.422 C 13.996 38.213 14.638 38.855 15.432 38.855 Z " fill="rgb(246,248,252)"/><path d=" M 18.263 42.457 C 19.169 42.457 19.904 41.724 19.904 40.82 C 19.904 39.916 19.169 39.183 18.263 39.183 C 17.356 39.183 16.621 39.916 16.621 40.82 C 16.621 41.724 17.356 42.457 18.263 42.457 Z " fill="rgb(246,248,252)"/><path d=" M 25.812 43.111 C 26.877 43.111 27.741 42.25 27.741 41.188 C 27.741 40.126 26.877 39.265 25.812 39.265 C 24.747 39.265 23.884 40.126 23.884 41.188 C 23.884 42.25 24.747 43.111 25.812 43.111 Z " fill="rgb(246,248,252)"/><path d=" M 21.668 39.674 C 22.575 39.674 23.309 38.941 23.309 38.037 C 23.309 37.133 22.575 36.4 21.668 36.4 C 20.762 36.4 20.027 37.133 20.027 38.037 C 20.027 38.941 20.762 39.674 21.668 39.674 Z " fill="rgb(246,248,252)"/><path d=" M 28.972 39.019 C 30.037 39.019 30.9 38.158 30.9 37.095 C 30.9 36.033 30.037 35.172 28.972 35.172 C 27.907 35.172 27.043 36.033 27.043 37.095 C 27.043 38.158 27.907 39.019 28.972 39.019 Z " fill="rgb(246,248,252)"/><path d=" M 13.708 35.336 C 14.388 35.336 14.939 34.786 14.939 34.108 C 14.939 33.43 14.388 32.881 13.708 32.881 C 13.029 32.881 12.478 33.43 12.478 34.108 C 12.478 34.786 13.029 35.336 13.708 35.336 Z " fill="rgb(246,248,252)"/><path d=" M 62.089 11.711 L 59.272 11.711 L 59.272 36.411 L 62.089 36.411 L 62.089 11.711 Z " fill="rgb(246,248,252)"/><path d=" M 71.157 24.042 C 71.157 17.121 76.957 11.259 83.778 11.259 C 90.638 11.259 96.356 17.077 96.356 24.042 C 96.356 31.006 90.599 36.824 83.778 36.824 C 76.997 36.864 71.157 31.006 71.157 24.042 Z  M 93.539 24.042 C 93.539 18.553 89.088 13.882 83.778 13.882 C 78.469 13.882 73.978 18.553 73.978 24.042 C 73.978 29.574 78.469 34.241 83.778 34.241 C 89.088 34.241 93.539 29.574 93.539 24.042 Z " fill="rgb(246,248,252)"/><path d=" M 110.812 14.374 L 102.523 14.374 L 102.523 11.711 L 121.882 11.711 L 121.882 14.374 L 113.59 14.374 L 113.59 36.411 L 110.773 36.411 L 110.812 14.374 Z " fill="rgb(246,248,252)"/><path d=" M 136.664 15.152 L 127.311 36.411 L 124.249 36.411 L 134.5 13.104 C 134.867 12.243 135.726 11.711 136.624 11.711 C 137.562 11.711 138.38 12.243 138.749 13.104 L 149 36.411 L 145.937 36.411 L 136.664 15.152 Z " fill="rgb(246,248,252)"/></g></svg>