<svg width="116" height="40" viewBox="0 0 116 40" fill="none" xmlns="http://www.w3.org/2000/svg">
<path d="M23.0187 8.48645C24.0256 8.48645 24.8419 7.68115 24.8419 6.68775C24.8419 5.69435 24.0256 4.88904 23.0187 4.88904C22.0117 4.88904 21.1954 5.69435 21.1954 6.68775C21.1954 7.68115 22.0117 8.48645 23.0187 8.48645Z" fill="#131F37"/>
<path d="M25.0698 33.8933C26.0768 33.8933 26.8931 33.088 26.8931 32.0946C26.8931 31.1012 26.0768 30.2959 25.0698 30.2959C24.0629 30.2959 23.2466 31.1012 23.2466 32.0946C23.2466 33.088 24.0629 33.8933 25.0698 33.8933Z" fill="#131F37"/>
<path d="M23.5398 12.9832C24.385 12.9832 25.0701 12.3073 25.0701 11.4736C25.0701 10.6399 24.385 9.96397 23.5398 9.96397C22.6947 9.96397 22.0096 10.6399 22.0096 11.4736C22.0096 12.3073 22.6947 12.9832 23.5398 12.9832Z" fill="#131F37"/>
<path d="M27.61 13.5612C28.4551 13.5612 29.1402 12.8853 29.1402 12.0516C29.1402 11.2178 28.4551 10.5419 27.61 10.5419C26.7648 10.5419 26.0797 11.2178 26.0797 12.0516C26.0797 12.8853 26.7648 13.5612 27.61 13.5612Z" fill="#131F37"/>
<path d="M23.019 16.8054C23.7383 16.8054 24.3214 16.2302 24.3214 15.5206C24.3214 14.8111 23.7383 14.2358 23.019 14.2358C22.2997 14.2358 21.7167 14.8111 21.7167 15.5206C21.7167 16.2302 22.2997 16.8054 23.019 16.8054Z" fill="#131F37"/>
<path d="M27.0884 17.3516C27.8077 17.3516 28.3908 16.7764 28.3908 16.0668C28.3908 15.3573 27.8077 14.782 27.0884 14.782C26.3692 14.782 25.7861 15.3573 25.7861 16.0668C25.7861 16.7764 26.3692 17.3516 27.0884 17.3516Z" fill="#131F37"/>
<path d="M30.3445 18.6041C31.0637 18.6041 31.6468 18.0288 31.6468 17.3193C31.6468 16.6097 31.0637 16.0345 30.3445 16.0345C29.6252 16.0345 29.0421 16.6097 29.0421 17.3193C29.0421 18.0288 29.6252 18.6041 30.3445 18.6041Z" fill="#131F37"/>
<path d="M25.8839 20.4349C26.5132 20.4349 27.0234 19.9316 27.0234 19.3107C27.0234 18.6898 26.5132 18.1865 25.8839 18.1865C25.2545 18.1865 24.7443 18.6898 24.7443 19.3107C24.7443 19.9316 25.2545 20.4349 25.8839 20.4349Z" fill="#131F37"/>
<path d="M21.8143 19.8887C22.4436 19.8887 22.9538 19.3854 22.9538 18.7646C22.9538 18.1437 22.4436 17.6404 21.8143 17.6404C21.1849 17.6404 20.6747 18.1437 20.6747 18.7646C20.6747 19.3854 21.1849 19.8887 21.8143 19.8887Z" fill="#131F37"/>
<path d="M29.1723 21.6874C29.8017 21.6874 30.3118 21.1841 30.3118 20.5632C30.3118 19.9423 29.8017 19.439 29.1723 19.439C28.5429 19.439 28.0327 19.9423 28.0327 20.5632C28.0327 21.1841 28.5429 21.6874 29.1723 21.6874Z" fill="#131F37"/>
<path d="M24.2563 22.7793C24.7958 22.7793 25.2331 22.3479 25.2331 21.8157C25.2331 21.2836 24.7958 20.8521 24.2563 20.8521C23.7169 20.8521 23.2796 21.2836 23.2796 21.8157C23.2796 22.3479 23.7169 22.7793 24.2563 22.7793Z" fill="#131F37"/>
<path d="M27.5447 24.0002C28.0841 24.0002 28.5214 23.5688 28.5214 23.0366C28.5214 22.5045 28.0841 22.073 27.5447 22.073C27.0052 22.073 26.5679 22.5045 26.5679 23.0366C26.5679 23.5688 27.0052 24.0002 27.5447 24.0002Z" fill="#131F37"/>
<path d="M20.2186 22.2013C20.7581 22.2013 21.1954 21.7699 21.1954 21.2377C21.1954 20.7055 20.7581 20.2741 20.2186 20.2741C19.6792 20.2741 19.2419 20.7055 19.2419 21.2377C19.2419 21.7699 19.6792 22.2013 20.2186 22.2013Z" fill="#131F37"/>
<path d="M22.4653 24.3534C22.9148 24.3534 23.2793 23.9939 23.2793 23.5504C23.2793 23.107 22.9148 22.7474 22.4653 22.7474C22.0158 22.7474 21.6513 23.107 21.6513 23.5504C21.6513 23.9939 22.0158 24.3534 22.4653 24.3534Z" fill="#131F37"/>
<path d="M23.8652 26.5697C24.2608 26.5697 24.5815 26.2533 24.5815 25.8631C24.5815 25.4728 24.2608 25.1564 23.8652 25.1564C23.4696 25.1564 23.1489 25.4728 23.1489 25.8631C23.1489 26.2533 23.4696 26.5697 23.8652 26.5697Z" fill="#131F37"/>
<path d="M22.1397 27.0198C22.4633 27.0198 22.7257 26.7609 22.7257 26.4416C22.7257 26.1223 22.4633 25.8635 22.1397 25.8635C21.816 25.8635 21.5536 26.1223 21.5536 26.4416C21.5536 26.7609 21.816 27.0198 22.1397 27.0198Z" fill="#131F37"/>
<path d="M20.6094 25.3493C21.005 25.3493 21.3256 25.033 21.3256 24.6427C21.3256 24.2525 21.005 23.9361 20.6094 23.9361C20.2138 23.9361 19.8931 24.2525 19.8931 24.6427C19.8931 25.033 20.2138 25.3493 20.6094 25.3493Z" fill="#131F37"/>
<path d="M18.3958 23.8074C18.8453 23.8074 19.2097 23.4479 19.2097 23.0044C19.2097 22.561 18.8453 22.2015 18.3958 22.2015C17.9462 22.2015 17.5818 22.561 17.5818 23.0044C17.5818 23.4479 17.9462 23.8074 18.3958 23.8074Z" fill="#131F37"/>
<path d="M18.3628 17.7686C18.8124 17.7686 19.1768 17.4091 19.1768 16.9656C19.1768 16.5221 18.8124 16.1626 18.3628 16.1626C17.9133 16.1626 17.5489 16.5221 17.5489 16.9656C17.5489 17.4091 17.9133 17.7686 18.3628 17.7686Z" fill="#131F37"/>
<path d="M18.721 14.9421C19.1166 14.9421 19.4373 14.6257 19.4373 14.2355C19.4373 13.8452 19.1166 13.5288 18.721 13.5288C18.3254 13.5288 18.0047 13.8452 18.0047 14.2355C18.0047 14.6257 18.3254 14.9421 18.721 14.9421Z" fill="#131F37"/>
<path d="M19.5026 12.6298C19.8262 12.6298 20.0886 12.3709 20.0886 12.0516C20.0886 11.7323 19.8262 11.4735 19.5026 11.4735C19.1789 11.4735 18.9165 11.7323 18.9165 12.0516C18.9165 12.3709 19.1789 12.6298 19.5026 12.6298Z" fill="#131F37"/>
<path d="M18.1351 11.5378C18.5307 11.5378 18.8513 11.2214 18.8513 10.8312C18.8513 10.4409 18.5307 10.1245 18.1351 10.1245C17.7395 10.1245 17.4188 10.4409 17.4188 10.8312C17.4188 11.2214 17.7395 11.5378 18.1351 11.5378Z" fill="#131F37"/>
<path d="M25.7212 25.5738C26.1708 25.5738 26.5352 25.2142 26.5352 24.7708C26.5352 24.3273 26.1708 23.9678 25.7212 23.9678C25.2717 23.9678 24.9072 24.3273 24.9072 24.7708C24.9072 25.2142 25.2717 25.5738 25.7212 25.5738Z" fill="#131F37"/>
<path d="M16.2792 10.6061C16.7288 10.6061 17.0932 10.2465 17.0932 9.80307C17.0932 9.35958 16.7288 9.00007 16.2792 9.00007C15.8297 9.00007 15.4653 9.35958 15.4653 9.80307C15.4653 10.2465 15.8297 10.6061 16.2792 10.6061Z" fill="#131F37"/>
<path d="M16.8327 14.0111C17.2823 14.0111 17.6467 13.6516 17.6467 13.2081C17.6467 12.7647 17.2823 12.4052 16.8327 12.4052C16.3832 12.4052 16.0188 12.7647 16.0188 13.2081C16.0188 13.6516 16.3832 14.0111 16.8327 14.0111Z" fill="#131F37"/>
<path d="M15.9214 17.2551C16.4608 17.2551 16.8981 16.8237 16.8981 16.2915C16.8981 15.7593 16.4608 15.3279 15.9214 15.3279C15.3819 15.3279 14.9446 15.7593 14.9446 16.2915C14.9446 16.8237 15.3819 17.2551 15.9214 17.2551Z" fill="#131F37"/>
<path d="M12.9581 17.2547C13.5875 17.2547 14.0977 16.7514 14.0977 16.1305C14.0977 15.5096 13.5875 15.0063 12.9581 15.0063C12.3288 15.0063 11.8186 15.5096 11.8186 16.1305C11.8186 16.7514 12.3288 17.2547 12.9581 17.2547Z" fill="#131F37"/>
<path d="M9.50722 18.0259C10.2265 18.0259 10.8096 17.4507 10.8096 16.7411C10.8096 16.0316 10.2265 15.4563 9.50722 15.4563C8.78796 15.4563 8.20488 16.0316 8.20488 16.7411C8.20488 17.4507 8.78796 18.0259 9.50722 18.0259Z" fill="#131F37"/>
<path d="M5.73046 19.8571C6.57559 19.8571 7.26071 19.1812 7.26071 18.3474C7.26071 17.5137 6.57559 16.8378 5.73046 16.8378C4.88532 16.8378 4.2002 17.5137 4.2002 18.3474C4.2002 19.1812 4.88532 19.8571 5.73046 19.8571Z" fill="#131F37"/>
<path d="M1.82328 22.9402C2.83025 22.9402 3.64656 22.1349 3.64656 21.1415C3.64656 20.1481 2.83025 19.3428 1.82328 19.3428C0.816313 19.3428 0 20.1481 0 21.1415C0 22.1349 0.816313 22.9402 1.82328 22.9402Z" fill="#131F37"/>
<path d="M4.20046 16.0989C5.04559 16.0989 5.73071 15.4231 5.73071 14.5893C5.73071 13.7556 5.04559 13.0797 4.20046 13.0797C3.35532 13.0797 2.6702 13.7556 2.6702 14.5893C2.6702 15.4231 3.35532 16.0989 4.20046 16.0989Z" fill="#131F37"/>
<path d="M7.97672 14.2677C8.69599 14.2677 9.27906 13.6925 9.27906 12.9829C9.27906 12.2734 8.69599 11.6981 7.97672 11.6981C7.25746 11.6981 6.67438 12.2734 6.67438 12.9829C6.67438 13.6925 7.25746 14.2677 7.97672 14.2677Z" fill="#131F37"/>
<path d="M7.42313 10.8631C8.14239 10.8631 8.72547 10.2879 8.72547 9.57832C8.72547 8.86875 8.14239 8.29353 7.42313 8.29353C6.70386 8.29353 6.12078 8.86875 6.12078 9.57832C6.12078 10.2879 6.70386 10.8631 7.42313 10.8631Z" fill="#131F37"/>
<path d="M10.8746 10.0924C11.504 10.0924 12.0142 9.58903 12.0142 8.96816C12.0142 8.34729 11.504 7.84397 10.8746 7.84397C10.2453 7.84397 9.73507 8.34729 9.73507 8.96816C9.73507 9.58903 10.2453 10.0924 10.8746 10.0924Z" fill="#131F37"/>
<path d="M13.8371 10.0924C14.3766 10.0924 14.8139 9.66101 14.8139 9.12883C14.8139 8.59665 14.3766 8.16524 13.8371 8.16524C13.2977 8.16524 12.8604 8.59665 12.8604 9.12883C12.8604 9.66101 13.2977 10.0924 13.8371 10.0924Z" fill="#131F37"/>
<path d="M14.3909 13.4968C14.9303 13.4968 15.3676 13.0654 15.3676 12.5332C15.3676 12.0011 14.9303 11.5696 14.3909 11.5696C13.8514 11.5696 13.4141 12.0011 13.4141 12.5332C13.4141 13.0654 13.8514 13.4968 14.3909 13.4968Z" fill="#131F37"/>
<path d="M11.4281 13.5293C12.0575 13.5293 12.5677 13.026 12.5677 12.4051C12.5677 11.7842 12.0575 11.2809 11.4281 11.2809C10.7988 11.2809 10.2886 11.7842 10.2886 12.4051C10.2886 13.026 10.7988 13.5293 11.4281 13.5293Z" fill="#131F37"/>
<path d="M8.20468 22.0728C8.52834 22.0728 8.79073 21.814 8.79073 21.4946C8.79073 21.1753 8.52834 20.9165 8.20468 20.9165C7.88101 20.9165 7.61862 21.1753 7.61862 21.4946C7.61862 21.814 7.88101 22.0728 8.20468 22.0728Z" fill="#131F37"/>
<path d="M10.5491 21.7842C10.9446 21.7842 11.2653 21.4678 11.2653 21.0776C11.2653 20.6873 10.9446 20.3709 10.5491 20.3709C10.1535 20.3709 9.83276 20.6873 9.83276 21.0776C9.83276 21.4678 10.1535 21.7842 10.5491 21.7842Z" fill="#131F37"/>
<path d="M13.1209 20.8206C13.5704 20.8206 13.9348 20.4611 13.9348 20.0176C13.9348 19.5741 13.5704 19.2146 13.1209 19.2146C12.6713 19.2146 12.3069 19.5741 12.3069 20.0176C12.3069 20.4611 12.6713 20.8206 13.1209 20.8206Z" fill="#131F37"/>
<path d="M13.7396 23.39C14.279 23.39 14.7163 22.9586 14.7163 22.4264C14.7163 21.8942 14.279 21.4628 13.7396 21.4628C13.2001 21.4628 12.7628 21.8942 12.7628 22.4264C12.7628 22.9586 13.2001 23.39 13.7396 23.39Z" fill="#131F37"/>
<path d="M10.6143 23.9999C11.0639 23.9999 11.4283 23.6404 11.4283 23.1969C11.4283 22.7535 11.0639 22.3939 10.6143 22.3939C10.1648 22.3939 9.80037 22.7535 9.80037 23.1969C9.80037 23.6404 10.1648 23.9999 10.6143 23.9999Z" fill="#131F37"/>
<path d="M7.84648 23.9679C8.24208 23.9679 8.56277 23.6515 8.56277 23.2613C8.56277 22.871 8.24208 22.5546 7.84648 22.5546C7.45088 22.5546 7.13019 22.871 7.13019 23.2613C7.13019 23.6515 7.45088 23.9679 7.84648 23.9679Z" fill="#131F37"/>
<path d="M7.87893 26.1843C8.32847 26.1843 8.6929 25.8248 8.6929 25.3813C8.6929 24.9378 8.32847 24.5783 7.87893 24.5783C7.42939 24.5783 7.06496 24.9378 7.06496 25.3813C7.06496 25.8248 7.42939 26.1843 7.87893 26.1843Z" fill="#131F37"/>
<path d="M11.2001 26.602C11.7395 26.602 12.1768 26.1705 12.1768 25.6384C12.1768 25.1062 11.7395 24.6748 11.2001 24.6748C10.6606 24.6748 10.2233 25.1062 10.2233 25.6384C10.2233 26.1705 10.6606 26.602 11.2001 26.602Z" fill="#131F37"/>
<path d="M15.0749 26.1845C15.7042 26.1845 16.2144 25.6811 16.2144 25.0603C16.2144 24.4394 15.7042 23.9361 15.0749 23.9361C14.4455 23.9361 13.9353 24.4394 13.9353 25.0603C13.9353 25.6811 14.4455 26.1845 15.0749 26.1845Z" fill="#131F37"/>
<path d="M17.3534 28.9785C18.0727 28.9785 18.6557 28.4033 18.6557 27.6937C18.6557 26.9842 18.0727 26.4089 17.3534 26.4089C16.6341 26.4089 16.0511 26.9842 16.0511 27.6937C16.0511 28.4033 16.6341 28.9785 17.3534 28.9785Z" fill="#131F37"/>
<path d="M12.5677 29.3641C13.197 29.3641 13.7072 28.8608 13.7072 28.2399C13.7072 27.619 13.197 27.1157 12.5677 27.1157C11.9383 27.1157 11.4281 27.619 11.4281 28.2399C11.4281 28.8608 11.9383 29.3641 12.5677 29.3641Z" fill="#131F37"/>
<path d="M9.86508 31.548C10.4944 31.548 11.0046 31.0446 11.0046 30.4238C11.0046 29.8029 10.4944 29.2996 9.86508 29.2996C9.23573 29.2996 8.72553 29.8029 8.72553 30.4238C8.72553 31.0446 9.23573 31.548 9.86508 31.548Z" fill="#131F37"/>
<path d="M12.1116 34.3751C12.8309 34.3751 13.414 33.7999 13.414 33.0903C13.414 32.3807 12.8309 31.8055 12.1116 31.8055C11.3924 31.8055 10.8093 32.3807 10.8093 33.0903C10.8093 33.7999 11.3924 34.3751 12.1116 34.3751Z" fill="#131F37"/>
<path d="M18.1026 34.8888C18.9477 34.8888 19.6328 34.2129 19.6328 33.3792C19.6328 32.5454 18.9477 31.8696 18.1026 31.8696C17.2574 31.8696 16.5723 32.5454 16.5723 33.3792C16.5723 34.2129 17.2574 34.8888 18.1026 34.8888Z" fill="#131F37"/>
<path d="M14.8141 32.1903C15.5334 32.1903 16.1164 31.6151 16.1164 30.9055C16.1164 30.196 15.5334 29.6207 14.8141 29.6207C14.0948 29.6207 13.5118 30.196 13.5118 30.9055C13.5118 31.6151 14.0948 32.1903 14.8141 32.1903Z" fill="#131F37"/>
<path d="M20.6097 31.6773C21.4548 31.6773 22.1399 31.0014 22.1399 30.1677C22.1399 29.3339 21.4548 28.6581 20.6097 28.6581C19.7645 28.6581 19.0794 29.3339 19.0794 30.1677C19.0794 31.0014 19.7645 31.6773 20.6097 31.6773Z" fill="#131F37"/>
<path d="M8.49758 28.7862C9.03703 28.7862 9.47434 28.3548 9.47434 27.8226C9.47434 27.2904 9.03703 26.859 8.49758 26.859C7.95813 26.859 7.52082 27.2904 7.52082 27.8226C7.52082 28.3548 7.95813 28.7862 8.49758 28.7862Z" fill="#131F37"/>
<path d="M46.8901 10.2441H44.6547V29.6306H46.8901V10.2441Z" fill="#131F37"/>
<path d="M54.0861 19.9217C54.0861 14.4895 58.6887 9.88897 64.1014 9.88897C69.5455 9.88897 74.0822 14.4553 74.0822 19.9217C74.0822 25.3882 69.5141 29.9545 64.1014 29.9545C58.7201 29.9856 54.0861 25.3882 54.0861 19.9217ZM71.8468 19.9217C71.8468 15.614 68.3148 11.9478 64.1014 11.9478C59.8881 11.9478 56.3246 15.614 56.3246 19.9217C56.3246 24.2637 59.8881 27.9267 64.1014 27.9267C68.3148 27.9267 71.8468 24.2637 71.8468 19.9217Z" fill="#131F37"/>
<path d="M85.5544 12.3342H78.977V10.2441H94.339V12.3342H87.7584V29.6306H85.523L85.5544 12.3342Z" fill="#131F37"/>
<path d="M106.068 12.9447L98.6464 29.6306H96.2163L104.351 11.3374C104.643 10.6615 105.324 10.2441 106.037 10.2441C106.781 10.2441 107.431 10.6615 107.723 11.3374L115.858 29.6306H113.428L106.068 12.9447Z" fill="#131F37"/>
</svg>
