<?xml version="1.0" encoding="UTF-8" standalone="no"?><!DOCTYPE svg PUBLIC "-//W3C//DTD SVG 1.1//EN" "http://www.w3.org/Graphics/SVG/1.1/DTD/svg11.dtd"><svg width="100%" height="100%" viewBox="0 0 279240 52663" version="1.1" xmlns="http://www.w3.org/2000/svg" xmlns:xlink="http://www.w3.org/1999/xlink" xml:space="preserve" xmlns:serif="http://www.serif.com/" style="fill-rule:evenodd;clip-rule:evenodd;stroke-linecap:round;stroke-linejoin:round;stroke-miterlimit:1.5;"><g><g><g><path d="M34297.4,5692.26c219.562,459.859 775.07,661.966 1239.74,451.046c464.669,-210.92 663.665,-755.507 444.103,-1215.37c-219.562,-459.859 -775.071,-661.966 -1239.74,-451.046c-464.669,210.92 -663.665,755.507 -444.103,1215.37Z" style="fill:#66a462;"/><g><path d="M45605.8,5963.54c89.498,269.54 417.422,406.76 731.835,306.236c314.412,-100.523 497.014,-400.968 407.516,-670.507c-89.498,-269.54 -417.423,-406.76 -731.835,-306.236c-314.413,100.523 -497.014,400.967 -407.516,670.507Z" style="fill:#66a462;"/></g><path d="M38279.8,8533.12c152.418,459.035 701.85,695.613 1226.18,527.976c524.327,-167.637 826.269,-676.415 673.851,-1135.45c-152.419,-459.035 -701.85,-695.613 -1226.18,-527.976c-524.327,167.636 -826.269,676.414 -673.851,1135.45Z" style="fill:#66a462;"/><path d="M40734.4,13907.2c163.262,491.69 700.885,761.37 1199.82,601.85c498.939,-159.52 771.467,-688.22 608.206,-1179.91c-163.262,-491.691 -700.885,-761.371 -1199.82,-601.851c-498.939,159.52 -771.467,688.22 -608.206,1179.91Z" style="fill:#66a462;"/><path d="M54728,11604.4c134.64,405.49 579.314,627.475 992.389,495.407c413.075,-132.067 639.129,-568.496 504.489,-973.986c-134.639,-405.49 -579.314,-627.475 -992.388,-495.407c-413.075,132.067 -639.129,568.496 -504.49,973.986Z" style="fill:#66a462;"/><path d="M44961,12595.2c214.289,645.368 933.224,995.092 1604.46,780.485c671.238,-214.607 1042.22,-912.798 827.933,-1558.17c-214.289,-645.368 -933.224,-995.092 -1604.46,-780.485c-671.237,214.607 -1042.22,912.797 -827.933,1558.17Z" style="fill:#66a462;"/><path d="M50030.5,12028.7c214.289,645.369 933.224,995.092 1604.46,780.485c671.238,-214.606 1042.22,-912.797 827.933,-1558.16c-214.288,-645.369 -933.223,-995.092 -1604.46,-780.486c-671.237,214.607 -1042.22,912.798 -827.933,1558.17Z" style="fill:#66a462;"/><g><path d="M30413.6,10227.4c110.847,232.162 404.818,328.06 656.06,214.017c251.243,-114.043 365.226,-395.116 254.38,-627.278c-110.847,-232.162 -404.818,-328.06 -656.06,-214.017c-251.243,114.043 -365.226,395.117 -254.38,627.278Z" style="fill:#66a462;"/></g><path d="M31911.2,7964.35c188.776,395.379 682.198,561.973 1101.18,371.791c418.982,-190.182 605.881,-665.583 417.105,-1060.96c-188.775,-395.379 -682.197,-561.973 -1101.18,-371.791c-418.982,190.182 -605.88,665.583 -417.105,1060.96Z" style="fill:#66a462;"/><g><path d="M37000.1,3706.14c206.11,431.684 750.104,611.186 1214.04,400.598c463.938,-210.587 673.262,-732.031 467.152,-1163.71c-206.11,-431.685 -750.103,-611.187 -1214.04,-400.599c-463.938,210.588 -673.262,732.032 -467.152,1163.72Z" style="fill:#66a462;"/></g><g><path d="M32851.2,12924.2c89.499,269.54 417.423,406.759 731.835,306.236c314.413,-100.523 497.015,-400.968 407.516,-670.507c-89.498,-269.54 -417.422,-406.76 -731.835,-306.236c-314.412,100.523 -497.014,400.967 -407.516,670.507Z" style="fill:#66a462;"/></g><g><path d="M37127.9,15784.4c113.188,340.885 492.362,525.792 846.209,412.66c353.848,-113.131 549.233,-481.735 436.045,-822.62c-113.188,-340.885 -492.361,-525.792 -846.209,-412.661c-353.847,113.132 -549.232,481.735 -436.045,822.621Z" style="fill:#66a462;"/></g><path d="M35072.9,10644.3c152.419,459.035 701.85,695.613 1226.18,527.976c524.327,-167.637 826.269,-676.415 673.851,-1135.45c-152.418,-459.035 -701.85,-695.613 -1226.18,-527.976c-524.327,167.636 -826.269,676.414 -673.851,1135.45Z" style="fill:#66a462;"/><path d="M40072.4,2269.69c110.847,232.162 404.817,328.06 656.06,214.017c251.242,-114.043 365.226,-395.117 254.379,-627.278c-110.847,-232.162 -404.817,-328.06 -656.06,-214.017c-251.242,114.043 -365.226,395.116 -254.379,627.278Z" style="fill:#66a462;"/><path d="M41677,6980.85c166.415,501.186 772.884,757.382 1353.47,571.758c580.585,-185.624 916.84,-743.226 750.426,-1244.41c-166.414,-501.186 -772.883,-757.382 -1353.47,-571.758c-580.586,185.624 -916.841,743.226 -750.427,1244.41Z" style="fill:#66a462;"/></g><g><path d="M28989.3,23518.6c96.101,500.274 -231.476,991.454 -731.06,1096.18c-499.583,104.723 -983.203,-216.414 -1079.3,-716.687c-96.1,-500.274 231.477,-991.454 731.06,-1096.18c499.584,-104.723 983.204,216.414 1079.3,716.687Z" style="fill:#66a462;"/><g><path d="M21687.5,17438.7c-47.758,279.922 -351.207,464.896 -677.213,412.81c-326.005,-52.085 -551.906,-321.632 -504.147,-601.553c47.758,-279.921 351.207,-464.895 677.213,-412.81c326.005,52.085 551.906,321.632 504.147,601.553Z" style="fill:#66a462;"/></g><path d="M29318,18877c-81.334,476.715 -588.75,793.228 -1132.41,706.369c-543.66,-86.859 -919.009,-544.41 -837.675,-1021.12c81.335,-476.714 588.751,-793.227 1132.41,-706.368c543.659,86.859 919.009,544.41 837.674,1021.12Z" style="fill:#66a462;"/><path d="M32725.8,16925.8c-287.678,431.159 -877.611,549.484 -1316.57,264.067c-438.954,-285.416 -561.771,-867.185 -274.093,-1298.34c287.678,-431.159 877.611,-549.484 1316.57,-264.067c438.954,285.416 561.771,867.185 274.093,1298.34Z" style="fill:#66a462;"/><path d="M19839.6,11014.8c-237.244,355.571 -724.901,452.406 -1088.31,216.108c-363.412,-236.298 -465.845,-716.821 -228.601,-1072.39c237.244,-355.571 724.901,-452.406 1088.31,-216.108c363.412,236.298 465.845,716.821 228.601,1072.39Z" style="fill:#66a462;"/><path d="M28997,14545.9c-377.592,565.918 -1163.59,713.629 -1754.13,329.65c-590.537,-383.979 -763.422,-1155.17 -385.83,-1721.09c377.591,-565.918 1163.59,-713.63 1754.13,-329.651c590.537,383.98 763.422,1155.18 385.83,1721.09Z" style="fill:#66a462;"/><path d="M24257.7,12662.8c-377.591,565.918 -1163.59,713.629 -1754.13,329.65c-590.537,-383.979 -763.422,-1155.17 -385.83,-1721.09c377.592,-565.918 1163.59,-713.629 1754.13,-329.65c590.537,383.979 763.422,1155.17 385.83,1721.09Z" style="fill:#66a462;"/><g><path d="M34810.7,24876.7c48.517,252.565 -131.397,503.586 -401.517,560.209c-270.121,56.623 -528.814,-102.458 -577.33,-355.023c-48.517,-252.565 131.397,-503.586 401.517,-560.209c270.121,-56.623 528.814,102.458 577.33,355.023Z" style="fill:#66a462;"/></g><path d="M32260.6,23938.7c82.625,430.127 -216.013,855.997 -666.476,950.423c-450.464,94.427 -883.265,-178.119 -965.89,-608.246c-82.626,-430.126 216.012,-855.997 666.476,-950.423c450.463,-94.426 883.264,178.12 965.89,608.246Z" style="fill:#66a462;"/><g><path d="M25632.8,23515.9c90.213,469.623 -241.506,935.785 -740.304,1040.34c-498.797,104.558 -976.998,-191.828 -1067.21,-661.451c-90.212,-469.622 241.507,-935.784 740.304,-1040.34c498.797,-104.558 976.998,191.828 1067.21,661.45Z" style="fill:#66a462;"/></g><g><path d="M35347.9,22401.5c-47.759,279.921 -351.207,464.895 -677.213,412.81c-326.005,-52.086 -551.906,-321.632 -504.148,-601.554c47.759,-279.921 351.208,-464.895 677.213,-412.81c326.006,52.086 551.907,321.632 504.148,601.554Z" style="fill:#66a462;"/></g><path d="M32807.2,20481.7c-81.334,476.715 -588.75,793.228 -1132.41,706.368c-543.659,-86.859 -919.009,-544.409 -837.674,-1021.12c81.334,-476.715 588.75,-793.228 1132.41,-706.369c543.66,86.859 919.009,544.41 837.674,1021.12Z" style="fill:#66a462;"/><path d="M22304.8,24174.5c48.516,252.565 -131.398,503.586 -401.518,560.209c-270.12,56.623 -528.813,-102.457 -577.33,-355.023c-48.517,-252.565 131.397,-503.586 401.518,-560.209c270.12,-56.622 528.813,102.458 577.33,355.023Z" style="fill:#66a462;"/><path d="M25725.1,17853.5c-88.803,520.489 -649.642,864.975 -1251.63,768.796c-601.992,-96.179 -1018.64,-596.835 -929.835,-1117.32c88.803,-520.489 649.642,-864.975 1251.63,-768.796c601.993,96.179 1018.64,596.835 929.835,1117.32Z" style="fill:#66a462;"/><g><path d="M34681.1,19209.9c-43.558,253.464 141.241,500.926 412.42,552.267c271.178,51.341 526.704,-112.757 570.261,-366.221c43.558,-253.463 -141.241,-500.926 -412.42,-552.266c-271.178,-51.341 -526.704,112.757 -570.261,366.22Z" style="fill:#66a462;"/></g></g><g><g><path d="M46543.5,17498.4c-257.677,4.777 -466.679,232.259 -466.433,507.676c0.246,275.418 209.648,495.144 467.325,490.367c257.678,-4.776 466.68,-232.258 466.434,-507.676c-0.246,-275.417 -209.648,-495.143 -467.326,-490.367Z" style="fill:#66a462;"/></g><path d="M49260.4,26516.9c-438.833,8.135 -794.777,387.63 -794.367,846.928c0.411,459.297 357.021,825.584 795.854,817.45c438.834,-8.135 794.778,-387.631 794.367,-846.928c-0.41,-459.297 -357.021,-825.584 -795.854,-817.45Z" style="fill:#66a462;"/><path d="M47851,19852.2c-438.834,8.135 -794.777,387.63 -794.367,846.928c0.411,459.297 357.021,825.584 795.854,817.45c438.834,-8.135 794.778,-387.631 794.367,-846.928c-0.41,-459.297 -357.021,-825.584 -795.854,-817.45Z" style="fill:#66a462;"/><g><path d="M48724.5,23046.6c-479.129,8.882 -867.752,428.994 -867.297,937.573c0.454,508.578 389.815,914.269 868.944,905.388c479.129,-8.882 867.752,-428.994 867.298,-937.573c-0.455,-508.579 -389.816,-914.269 -868.945,-905.388Z" style="fill:#66a462;"/></g><g><path d="M43901,33413.2c-282.967,-30.069 -543.71,211.188 -581.907,538.418c-38.197,327.229 160.524,617.309 443.491,647.377c282.966,30.069 543.709,-211.188 581.906,-538.417c38.197,-327.23 -160.524,-617.31 -443.49,-647.378Z" style="fill:#66a462;"/></g><g><path d="M42673.1,18340.5c-282.966,-30.068 -543.71,211.189 -581.907,538.418c-38.197,327.229 160.525,617.31 443.491,647.378c282.966,30.068 543.71,-211.189 581.907,-538.418c38.197,-327.229 -160.525,-617.309 -443.491,-647.378Z" style="fill:#66a462;"/></g><path d="M44389.9,29431.2c-481.901,-51.208 -924.858,350.258 -988.557,895.959c-63.698,545.701 275.828,1030.31 757.729,1081.52c481.9,51.208 924.858,-350.258 988.556,-895.959c63.699,-545.7 -275.828,-1030.31 -757.728,-1081.52Z" style="fill:#66a462;"/><path d="M43776.7,21318.2c-481.901,-51.207 -924.858,350.259 -988.557,895.959c-63.698,545.701 275.828,1030.32 757.729,1081.52c481.9,51.207 924.857,-350.258 988.556,-895.959c63.699,-545.701 -275.828,-1030.31 -757.728,-1081.52Z" style="fill:#66a462;"/><path d="M49241.6,29870.9c-257.677,4.777 -466.679,232.259 -466.433,507.676c0.246,275.418 209.648,495.144 467.325,490.367c257.678,-4.776 466.68,-232.258 466.434,-507.676c-0.247,-275.417 -209.648,-495.143 -467.326,-490.367Z" style="fill:#66a462;"/><path d="M44287.6,25234.2c-526.15,-55.91 -1010.58,389.276 -1081.12,993.528c-70.534,604.253 299.369,1140.22 825.52,1196.13c526.151,55.909 1010.58,-389.276 1081.12,-993.529c70.533,-604.253 -299.37,-1140.22 -825.521,-1196.13Z" style="fill:#66a462;"/></g></g></g><g><path d="M30091.9,43040c-1497.76,1958.19 -3201.28,3971.1 -5106.89,6203.41c-1412.02,1654.11 7815.22,1257.33 7815.22,1257.33c1571.76,-2439.3 2831.09,-4818.11 3814.04,-7162.49" style="fill:#9d6545;"/><path d="M-0,44180.6c-0,-295.571 23374.5,972.518 23374.5,972.518" style="fill:none;"/></g><path d="M13399,51985.3c3308.48,-3311.05 6620.67,-5756.64 9956.64,-7340.79c8508.9,-4040.64 17172.5,-2476.88 26323.5,4624.62c-2061.06,1430.04 -4815.47,2224.14 -11044.7,2587.36c-4219.99,246.064 -10060.7,-1711.59 -14932.9,-1906.51c-5856.1,-230.938 -8690.36,366.623 -10302.6,2035.33Z" style="fill:#d88000;stroke:#0060b8;stroke-width:791.67px;"/><path d="M36614.3,43338.3c123.469,-294.478 242.577,-588.412 357.396,-881.855c3215.74,-8218.48 3067.1,-16051.3 1124.33,-24632.7c-98.029,12309.5 -2817.12,18434.7 -8004.1,25216.3" style="fill:#9d6545;"/><g><path d="M74198.1,44887.3l6109.47,0l-0,-22888.6l8841.43,-0l0,-5489.74l-23792.3,-0l-0,5489.74l8841.43,-0l-0,22888.6Z" style="fill:#0070c3;fill-rule:nonzero;"/><path d="M102621,23036.8c-2976.5,0 -5910.23,825.418 -8923.57,2352.44l2022.65,4007.12c1692.42,-868.862 3552.35,-1530.86 5536.69,-1530.86c3513.93,-0 4919.47,1985.98 4919.47,4259.74l-0,412.609c-1818.94,-701.435 -3720.6,-1072.77 -5456.89,-1072.77c-4957.99,0 -8879.45,2888.25 -8879.45,7103.86c-0,4090.74 3508.68,6814.17 8052.64,6814.17c2315.06,-0 4754.14,-907.809 6283.7,-2640.9l-0,2145.12l5820.26,-0l0,-12762.1c0,-5580.41 -3797.62,-9088.44 -9375.5,-9088.44Zm-1364.23,18178.6c-2067.01,-0 -3596.61,-1075.14 -3596.61,-2811.91c0,-1736.77 1736.29,-3018.68 3927.33,-3018.68c1653.61,-0 3224.54,289.47 4588.74,785.69l-0,1984.88c-413.373,1984.88 -2604.41,3060.02 -4919.47,3060.02Z" style="fill:#0070c3;fill-rule:nonzero;"/><path d="M129435,23036.8c-2769.8,0 -5167.54,1238.22 -6449.09,3178.04l-0,-2682.26l-6026.84,-0l-0,21354.7l6026.84,0l-0,-12766.4l41.34,123.945c-0,-2313.64 1942.99,-4131.51 4464.75,-4131.51c2397.74,0 4051.3,1817.87 4051.3,4462.03l-0,12311.9l5820.26,0l0,-13592.7c0,-4832.18 -3302.27,-8257.85 -7928.56,-8257.85Z" style="fill:#0070c3;fill-rule:nonzero;"/><path d="M157902,23532.6l-0,2888.62c-1446.72,-2022.37 -4174.89,-3384.41 -7068.4,-3384.41c-5370.87,0 -9457.64,4168.59 -9457.64,10119.6c-0,5951.08 4086.76,10160.9 9457.64,10160.9c2810.84,0 5373.67,-1238.18 7068.4,-3301.83l-0,2352.55c-0,2769.76 -2480.12,4548.85 -6365.69,4548.85c-2480.15,-0 -4959.01,-786.113 -6362.55,-2027.34l-2105.3,4256.11c2105.3,1650.91 5657.01,2847.83 9418.57,2847.83c6735.92,0 11483.1,-3879.65 11483.1,-9377.81l-0,-19083.1l-6068.15,-0Zm-5166.95,14708.2c-3017.52,0 -5166.99,-2108.13 -5166.99,-5084.32c0,-2976.18 2149.47,-5043.05 5166.99,-5043.05c3017.52,0 5166.95,2066.86 5166.95,5043.05c-0,2976.18 -2149.43,5084.32 -5166.95,5084.32Z" style="fill:#0070c3;fill-rule:nonzero;"/><rect x="169264" y="16013.2" width="6026.84" height="28874.1" style="fill:#0070c3;fill-rule:nonzero;"/><path d="M190621,40058.6c-2519.61,0 -4378.33,-1572.06 -5080.52,-3888.78l15406.9,0c-0,-8056.2 -3924.09,-13133 -10615.5,-13133c-6237.06,0 -10987.1,4664.09 -10987.1,11111c0,6571.25 4956.6,11235.3 11317.6,11235.3c3139.18,-0 6815.32,-1320.79 8715.36,-3301.98l-3841.37,-3925.52c-1156.54,1116.99 -3221.79,1903.02 -4915.3,1903.02Zm-41.305,-11697.3c2436.99,-0 4006.59,1365.41 4584.86,3475.63l-9541.46,0c784.795,-2151.6 2684.83,-3475.63 4956.6,-3475.63Z" style="fill:#0070c3;fill-rule:nonzero;"/><path d="M205456,44887.3l14913.4,-0c5411.72,-0 9292.12,-3136.83 9292.12,-7681.3c-0,-3142.3 -1898.9,-5785.99 -5201.39,-7271.72c2517.12,-1320.65 3961.94,-3428.22 3961.94,-6322.66c-0,-4130.89 -3508.87,-7102.62 -8589.48,-7102.62l-14376.5,-0l0,28378.3Zm6068.15,-16934l0,-6243.74l6778.98,0c2273.44,0 3885.47,1323.2 3885.47,3101.21c0,1819.36 -1612.04,3142.53 -3885.47,3142.53l-6778.98,0Zm0,11733.5l0,-6946.1l7729.69,-0c2438.16,-0 4174.22,1447.08 4174.22,3473.04c0,2025.95 -1736.06,3473.06 -4174.69,3473.06l-7729.22,0Z" style="fill:#0070c3;fill-rule:nonzero;"/><path d="M243464,23036.8c-2976.5,0 -5910.23,825.418 -8923.57,2352.44l2022.65,4007.12c1692.42,-868.862 3552.35,-1530.86 5536.69,-1530.86c3513.93,-0 4919.47,1985.98 4919.47,4259.74l-0,412.609c-1818.94,-701.435 -3720.6,-1072.77 -5456.89,-1072.77c-4957.99,0 -8879.45,2888.25 -8879.45,7103.86c-0,4090.74 3508.67,6814.17 8052.64,6814.17c2315.06,-0 4754.14,-907.809 6283.7,-2640.9l-0,2145.12l5820.26,-0l0,-12762.1c0,-5580.41 -3797.62,-9088.44 -9375.5,-9088.44Zm-1364.23,18178.6c-2067.01,-0 -3596.61,-1075.14 -3596.61,-2811.91c0,-1736.77 1736.29,-3018.68 3927.33,-3018.68c1653.61,-0 3224.54,289.47 4588.74,785.69l-0,1984.88c-413.373,1984.88 -2604.41,3060.02 -4919.47,3060.02Z" style="fill:#0070c3;fill-rule:nonzero;"/><path d="M262800,52324c3345.81,0 6072.02,-2187.19 7682.97,-6357.36l8756.75,-22434.1l-6154.46,-0l-5328.51,14997.4l-5617.65,-14997.4l-6237.25,-0l8880.85,21566.5l-743.512,1569.97c-454.369,784.987 -1363.11,1156.82 -2519.68,1156.82c-702.206,-0 -1776.17,-371.836 -2808.83,-950.248l-1280.49,4127.86c1445.72,784.089 3593.64,1320.57 5369.82,1320.57Z" style="fill:#0070c3;fill-rule:nonzero;"/></g></svg>