<svg width="40" height="39" viewBox="0 0 40 39" fill="none" xmlns="http://www.w3.org/2000/svg">
<path d="M29.0946 4.61771C30.3673 4.61771 31.3991 3.584 31.3991 2.30886C31.3991 1.03371 30.3673 0 29.0946 0C27.8218 0 26.79 1.03371 26.79 2.30886C26.79 3.584 27.8218 4.61771 29.0946 4.61771Z" fill="#485776"/>
<path d="M31.6868 37.2305C32.9596 37.2305 33.9914 36.1968 33.9914 34.9216C33.9914 33.6465 32.9596 32.6128 31.6868 32.6128C30.4141 32.6128 29.3823 33.6465 29.3823 34.9216C29.3823 36.1968 30.4141 37.2305 31.6868 37.2305Z" fill="#485776"/>
<path d="M29.7535 10.39C30.8217 10.39 31.6877 9.52241 31.6877 8.45219C31.6877 7.38198 30.8217 6.5144 29.7535 6.5144C28.6853 6.5144 27.8193 7.38198 27.8193 8.45219C27.8193 9.52241 28.6853 10.39 29.7535 10.39Z" fill="#485776"/>
<path d="M34.898 11.1319C35.9662 11.1319 36.8322 10.2643 36.8322 9.19414C36.8322 8.12393 35.9662 7.25635 34.898 7.25635C33.8298 7.25635 32.9639 8.12393 32.9639 9.19414C32.9639 10.2643 33.8298 11.1319 34.898 11.1319Z" fill="#485776"/>
<path d="M29.0948 15.2959C30.0039 15.2959 30.7409 14.5576 30.7409 13.6467C30.7409 12.7359 30.0039 11.9976 29.0948 11.9976C28.1857 11.9976 27.4487 12.7359 27.4487 13.6467C27.4487 14.5576 28.1857 15.2959 29.0948 15.2959Z" fill="#485776"/>
<path d="M34.2384 15.9973C35.1475 15.9973 35.8845 15.259 35.8845 14.3482C35.8845 13.4373 35.1475 12.699 34.2384 12.699C33.3293 12.699 32.5923 13.4373 32.5923 14.3482C32.5923 15.259 33.3293 15.9973 34.2384 15.9973Z" fill="#485776"/>
<path d="M38.3541 17.6055C39.2632 17.6055 40.0002 16.8671 40.0002 15.9563C40.0002 15.0455 39.2632 14.3071 38.3541 14.3071C37.445 14.3071 36.708 15.0455 36.708 15.9563C36.708 16.8671 37.445 17.6055 38.3541 17.6055Z" fill="#485776"/>
<path d="M32.7157 19.9552C33.5112 19.9552 34.1561 19.3091 34.1561 18.5121C34.1561 17.7152 33.5112 17.0691 32.7157 17.0691C31.9202 17.0691 31.2754 17.7152 31.2754 18.5121C31.2754 19.3091 31.9202 19.9552 32.7157 19.9552Z" fill="#485776"/>
<path d="M27.5722 19.2537C28.3676 19.2537 29.0125 18.6077 29.0125 17.8107C29.0125 17.0137 28.3676 16.3677 27.5722 16.3677C26.7767 16.3677 26.1318 17.0137 26.1318 17.8107C26.1318 18.6077 26.7767 19.2537 27.5722 19.2537Z" fill="#485776"/>
<path d="M36.872 21.5631C37.6674 21.5631 38.3123 20.917 38.3123 20.12C38.3123 19.3231 37.6674 18.677 36.872 18.677C36.0765 18.677 35.4316 19.3231 35.4316 20.12C35.4316 20.917 36.0765 21.5631 36.872 21.5631Z" fill="#485776"/>
<path d="M30.6584 22.9647C31.3402 22.9647 31.893 22.411 31.893 21.7279C31.893 21.0447 31.3402 20.491 30.6584 20.491C29.9766 20.491 29.4238 21.0447 29.4238 21.7279C29.4238 22.411 29.9766 22.9647 30.6584 22.9647Z" fill="#485776"/>
<path d="M34.8151 24.5316C35.497 24.5316 36.0497 23.9779 36.0497 23.2948C36.0497 22.6116 35.497 22.0579 34.8151 22.0579C34.1333 22.0579 33.5806 22.6116 33.5806 23.2948C33.5806 23.9779 34.1333 24.5316 34.8151 24.5316Z" fill="#485776"/>
<path d="M25.5559 22.2221C26.2377 22.2221 26.7904 21.6683 26.7904 20.9852C26.7904 20.3021 26.2377 19.7483 25.5559 19.7483C24.874 19.7483 24.3213 20.3021 24.3213 20.9852C24.3213 21.6683 24.874 22.2221 25.5559 22.2221Z" fill="#485776"/>
<path d="M28.395 24.9851C28.9632 24.9851 29.4238 24.5236 29.4238 23.9543C29.4238 23.3851 28.9632 22.9236 28.395 22.9236C27.8268 22.9236 27.3662 23.3851 27.3662 23.9543C27.3662 24.5236 27.8268 24.9851 28.395 24.9851Z" fill="#485776"/>
<path d="M30.1646 27.8302C30.6646 27.8302 31.07 27.4241 31.07 26.9232C31.07 26.4222 30.6646 26.0161 30.1646 26.0161C29.6646 26.0161 29.2593 26.4222 29.2593 26.9232C29.2593 27.4241 29.6646 27.8302 30.1646 27.8302Z" fill="#485776"/>
<path d="M27.9834 28.4074C28.3925 28.4074 28.7242 28.0751 28.7242 27.6652C28.7242 27.2554 28.3925 26.9231 27.9834 26.9231C27.5743 26.9231 27.2427 27.2554 27.2427 27.6652C27.2427 28.0751 27.5743 28.4074 27.9834 28.4074Z" fill="#485776"/>
<path d="M26.0489 26.2631C26.5489 26.2631 26.9543 25.857 26.9543 25.356C26.9543 24.8551 26.5489 24.449 26.0489 24.449C25.5489 24.449 25.1436 24.8551 25.1436 25.356C25.1436 25.857 25.5489 26.2631 26.0489 26.2631Z" fill="#485776"/>
<path d="M23.251 24.2839C23.8192 24.2839 24.2798 23.8224 24.2798 23.2531C24.2798 22.6839 23.8192 22.2224 23.251 22.2224C22.6828 22.2224 22.2222 22.6839 22.2222 23.2531C22.2222 23.8224 22.6828 24.2839 23.251 24.2839Z" fill="#485776"/>
<path d="M23.2095 16.5329C23.7777 16.5329 24.2383 16.0714 24.2383 15.5022C24.2383 14.9329 23.7777 14.4714 23.2095 14.4714C22.6413 14.4714 22.1807 14.9329 22.1807 15.5022C22.1807 16.0714 22.6413 16.5329 23.2095 16.5329Z" fill="#485776"/>
<path d="M23.6627 12.9047C24.1627 12.9047 24.568 12.4986 24.568 11.9976C24.568 11.4967 24.1627 11.0906 23.6627 11.0906C23.1627 11.0906 22.7573 11.4967 22.7573 11.9976C22.7573 12.4986 23.1627 12.9047 23.6627 12.9047Z" fill="#485776"/>
<path d="M24.6504 9.93568C25.0595 9.93568 25.3912 9.60342 25.3912 9.19355C25.3912 8.78368 25.0595 8.45142 24.6504 8.45142C24.2413 8.45142 23.9097 8.78368 23.9097 9.19355C23.9097 9.60342 24.2413 9.93568 24.6504 9.93568Z" fill="#485776"/>
<path d="M22.922 8.5348C23.422 8.5348 23.8273 8.1287 23.8273 7.62775C23.8273 7.1268 23.422 6.7207 22.922 6.7207C22.4219 6.7207 22.0166 7.1268 22.0166 7.62775C22.0166 8.1287 22.4219 8.5348 22.922 8.5348Z" fill="#485776"/>
<path d="M32.5103 26.5515C33.0785 26.5515 33.5391 26.09 33.5391 25.5207C33.5391 24.9515 33.0785 24.49 32.5103 24.49C31.9421 24.49 31.4814 24.9515 31.4814 25.5207C31.4814 26.09 31.9421 26.5515 32.5103 26.5515Z" fill="#485776"/>
<path d="M20.5762 7.33858C21.1444 7.33858 21.605 6.8771 21.605 6.30784C21.605 5.73858 21.1444 5.2771 20.5762 5.2771C20.008 5.2771 19.5474 5.73858 19.5474 6.30784C19.5474 6.8771 20.008 7.33858 20.5762 7.33858Z" fill="#485776"/>
<path d="M21.2759 11.7092C21.8441 11.7092 22.3047 11.2477 22.3047 10.6784C22.3047 10.1092 21.8441 9.64771 21.2759 9.64771C20.7077 9.64771 20.2471 10.1092 20.2471 10.6784C20.2471 11.2477 20.7077 11.7092 21.2759 11.7092Z" fill="#485776"/>
<path d="M20.1232 15.8732C20.8051 15.8732 21.3578 15.3194 21.3578 14.6363C21.3578 13.9532 20.8051 13.3994 20.1232 13.3994C19.4414 13.3994 18.8887 13.9532 18.8887 14.6363C18.8887 15.3194 19.4414 15.8732 20.1232 15.8732Z" fill="#485776"/>
<path d="M16.3783 15.8734C17.1738 15.8734 17.8187 15.2273 17.8187 14.4303C17.8187 13.6334 17.1738 12.9873 16.3783 12.9873C15.5828 12.9873 14.938 13.6334 14.938 14.4303C14.938 15.2273 15.5828 15.8734 16.3783 15.8734Z" fill="#485776"/>
<path d="M12.0167 16.8633C12.9258 16.8633 13.6628 16.1249 13.6628 15.2141C13.6628 14.3033 12.9258 13.5649 12.0167 13.5649C11.1076 13.5649 10.3706 14.3033 10.3706 15.2141C10.3706 16.1249 11.1076 16.8633 12.0167 16.8633Z" fill="#485776"/>
<path d="M7.24276 19.2132C8.31097 19.2132 9.17692 18.3456 9.17692 17.2754C9.17692 16.2052 8.31097 15.3376 7.24276 15.3376C6.17455 15.3376 5.30859 16.2052 5.30859 17.2754C5.30859 18.3456 6.17455 19.2132 7.24276 19.2132Z" fill="#485776"/>
<path d="M2.30454 23.1709C3.5773 23.1709 4.60907 22.1372 4.60907 20.8621C4.60907 19.5869 3.5773 18.5532 2.30454 18.5532C1.03178 18.5532 0 19.5869 0 20.8621C0 22.1372 1.03178 23.1709 2.30454 23.1709Z" fill="#485776"/>
<path d="M5.30916 14.389C6.37737 14.389 7.24333 13.5214 7.24333 12.4512C7.24333 11.381 6.37737 10.5134 5.30916 10.5134C4.24095 10.5134 3.375 11.381 3.375 12.4512C3.375 13.5214 4.24095 14.389 5.30916 14.389Z" fill="#485776"/>
<path d="M10.0826 12.0391C10.9917 12.0391 11.7287 11.3007 11.7287 10.3899C11.7287 9.47909 10.9917 8.74072 10.0826 8.74072C9.17351 8.74072 8.43652 9.47909 8.43652 10.3899C8.43652 11.3007 9.17351 12.0391 10.0826 12.0391Z" fill="#485776"/>
<path d="M9.38242 7.66848C10.2915 7.66848 11.0285 6.93012 11.0285 6.0193C11.0285 5.10848 10.2915 4.37012 9.38242 4.37012C8.47331 4.37012 7.73633 5.10848 7.73633 6.0193C7.73633 6.93012 8.47331 7.66848 9.38242 7.66848Z" fill="#485776"/>
<path d="M13.745 6.67904C14.5405 6.67904 15.1854 6.03297 15.1854 5.236C15.1854 4.43904 14.5405 3.79297 13.745 3.79297C12.9495 3.79297 12.3047 4.43904 12.3047 5.236C12.3047 6.03297 12.9495 6.67904 13.745 6.67904Z" fill="#485776"/>
<path d="M17.4895 6.67885C18.1713 6.67885 18.724 6.12508 18.724 5.44197C18.724 4.75885 18.1713 4.20508 17.4895 4.20508C16.8076 4.20508 16.2549 4.75885 16.2549 5.44197C16.2549 6.12508 16.8076 6.67885 17.4895 6.67885Z" fill="#485776"/>
<path d="M18.1892 11.049C18.871 11.049 19.4237 10.4952 19.4237 9.81208C19.4237 9.12897 18.871 8.5752 18.1892 8.5752C17.5073 8.5752 16.9546 9.12897 16.9546 9.81208C16.9546 10.4952 17.5073 11.049 18.1892 11.049Z" fill="#485776"/>
<path d="M14.4447 11.0909C15.2402 11.0909 15.8851 10.4448 15.8851 9.64787C15.8851 8.8509 15.2402 8.20483 14.4447 8.20483C13.6493 8.20483 13.0044 8.8509 13.0044 9.64787C13.0044 10.4448 13.6493 11.0909 14.4447 11.0909Z" fill="#485776"/>
<path d="M10.3701 22.058C10.7792 22.058 11.1109 21.7257 11.1109 21.3159C11.1109 20.906 10.7792 20.5737 10.3701 20.5737C9.96104 20.5737 9.62939 20.906 9.62939 21.3159C9.62939 21.7257 9.96104 22.058 10.3701 22.058Z" fill="#485776"/>
<path d="M13.3336 21.6867C13.8336 21.6867 14.2389 21.2806 14.2389 20.7796C14.2389 20.2787 13.8336 19.8726 13.3336 19.8726C12.8336 19.8726 12.4282 20.2787 12.4282 20.7796C12.4282 21.2806 12.8336 21.6867 13.3336 21.6867Z" fill="#485776"/>
<path d="M16.5845 20.4499C17.1527 20.4499 17.6133 19.9884 17.6133 19.4192C17.6133 18.8499 17.1527 18.3884 16.5845 18.3884C16.0163 18.3884 15.5557 18.8499 15.5557 19.4192C15.5557 19.9884 16.0163 20.4499 16.5845 20.4499Z" fill="#485776"/>
<path d="M17.3659 23.7482C18.0478 23.7482 18.6005 23.1944 18.6005 22.5113C18.6005 21.8282 18.0478 21.2744 17.3659 21.2744C16.6841 21.2744 16.1313 21.8282 16.1313 22.5113C16.1313 23.1944 16.6841 23.7482 17.3659 23.7482Z" fill="#485776"/>
<path d="M13.416 24.5314C13.9842 24.5314 14.4448 24.07 14.4448 23.5007C14.4448 22.9314 13.9842 22.47 13.416 22.47C12.8478 22.47 12.3872 22.9314 12.3872 23.5007C12.3872 24.07 12.8478 24.5314 13.416 24.5314Z" fill="#485776"/>
<path d="M9.91756 24.4901C10.4176 24.4901 10.8229 24.084 10.8229 23.5831C10.8229 23.0821 10.4176 22.676 9.91756 22.676C9.41755 22.676 9.01221 23.0821 9.01221 23.5831C9.01221 24.084 9.41755 24.4901 9.91756 24.4901Z" fill="#485776"/>
<path d="M9.9585 27.3349C10.5267 27.3349 10.9873 26.8734 10.9873 26.3042C10.9873 25.7349 10.5267 25.2734 9.9585 25.2734C9.3903 25.2734 8.92969 25.7349 8.92969 26.3042C8.92969 26.8734 9.3903 27.3349 9.9585 27.3349Z" fill="#485776"/>
<path d="M14.1564 27.8707C14.8383 27.8707 15.391 27.317 15.391 26.6339C15.391 25.9507 14.8383 25.397 14.1564 25.397C13.4746 25.397 12.9219 25.9507 12.9219 26.6339C12.9219 27.317 13.4746 27.8707 14.1564 27.8707Z" fill="#485776"/>
<path d="M19.0536 27.335C19.8491 27.335 20.4939 26.689 20.4939 25.892C20.4939 25.095 19.8491 24.449 19.0536 24.449C18.2581 24.449 17.6133 25.095 17.6133 25.892C17.6133 26.689 18.2581 27.335 19.0536 27.335Z" fill="#485776"/>
<path d="M21.9342 30.9217C22.8433 30.9217 23.5803 30.1833 23.5803 29.2725C23.5803 28.3617 22.8433 27.6233 21.9342 27.6233C21.0251 27.6233 20.2881 28.3617 20.2881 29.2725C20.2881 30.1833 21.0251 30.9217 21.9342 30.9217Z" fill="#485776"/>
<path d="M15.8847 31.4171C16.6801 31.4171 17.325 30.771 17.325 29.974C17.325 29.1771 16.6801 28.531 15.8847 28.531C15.0892 28.531 14.4443 29.1771 14.4443 29.974C14.4443 30.771 15.0892 31.4171 15.8847 31.4171Z" fill="#485776"/>
<path d="M12.4687 34.2198C13.2641 34.2198 13.909 33.5737 13.909 32.7768C13.909 31.9798 13.2641 31.3337 12.4687 31.3337C11.6732 31.3337 11.0283 31.9798 11.0283 32.7768C11.0283 33.5737 11.6732 34.2198 12.4687 34.2198Z" fill="#485776"/>
<path d="M15.3082 37.8487C16.2173 37.8487 16.9543 37.1103 16.9543 36.1995C16.9543 35.2887 16.2173 34.5503 15.3082 34.5503C14.3991 34.5503 13.6621 35.2887 13.6621 36.1995C13.6621 37.1103 14.3991 37.8487 15.3082 37.8487Z" fill="#485776"/>
<path d="M22.8809 38.5089C23.9492 38.5089 24.8151 37.6413 24.8151 36.5711C24.8151 35.5009 23.9492 34.6333 22.8809 34.6333C21.8127 34.6333 20.9468 35.5009 20.9468 36.5711C20.9468 37.6413 21.8127 38.5089 22.8809 38.5089Z" fill="#485776"/>
<path d="M18.7242 35.0445C19.6333 35.0445 20.3703 34.3061 20.3703 33.3953C20.3703 32.4845 19.6333 31.7461 18.7242 31.7461C17.8151 31.7461 17.0781 32.4845 17.0781 33.3953C17.0781 34.3061 17.8151 35.0445 18.7242 35.0445Z" fill="#485776"/>
<path d="M26.0494 34.3856C27.1176 34.3856 27.9836 33.518 27.9836 32.4478C27.9836 31.3776 27.1176 30.51 26.0494 30.51C24.9812 30.51 24.1152 31.3776 24.1152 32.4478C24.1152 33.518 24.9812 34.3856 26.0494 34.3856Z" fill="#485776"/>
<path d="M10.7409 30.6749C11.4228 30.6749 11.9755 30.1212 11.9755 29.4381C11.9755 28.7549 11.4228 28.2012 10.7409 28.2012C10.0591 28.2012 9.50635 28.7549 9.50635 29.4381C9.50635 30.1212 10.0591 30.6749 10.7409 30.6749Z" fill="#485776"/>
</svg>
