<svg width="24" height="24" viewBox="0 0 24 24" fill="none" xmlns="http://www.w3.org/2000/svg">
<ellipse cx="6.81641" cy="6" rx="2" ry="2" transform="rotate(90 6.81641 6)" fill="#8493AD"/>
<ellipse cx="17.8164" cy="6" rx="2" ry="2" transform="rotate(90 17.8164 6)" fill="#8493AD"/>
<ellipse cx="11.8164" cy="22" rx="2" ry="2" transform="rotate(90 11.8164 22)" fill="#8493AD"/>
<rect x="2" y="15.1582" width="8.8421" height="2" rx="1" transform="rotate(90 2 15.1582)" fill="#8493AD"/>
<rect x="21.8164" y="24" width="9" height="2" rx="1" transform="rotate(-90 21.8164 24)" fill="#8493AD"/>
<rect x="7.82031" y="6" width="17.6842" height="2" rx="1" transform="rotate(90 7.82031 6)" fill="#8493AD"/>
<rect x="16.8164" y="24" width="18" height="2" rx="1" transform="rotate(-90 16.8164 24)" fill="#8493AD"/>
<rect x="10.8203" y="24" width="24" height="2" rx="1" transform="rotate(-90 10.8203 24)" fill="#8493AD"/>
</svg>
