<svg width="19" height="17" viewBox="0 0 19 17" fill="none" xmlns="http://www.w3.org/2000/svg"><rect width="3" height="2.79176" rx="1.39588" transform="matrix(-1 0 0 1 19 7.22266)" fill="white"></rect><rect width="3" height="2.79175" rx="1.39588" transform="matrix(-1 0 0 1 19 0.708984)" fill="white"></rect><rect width="3" height="2.79176" rx="1.39588" transform="matrix(-1 0 0 1 3 13.7373)" fill="white"></rect><rect width="3" height="2.79176" rx="1.39588" transform="matrix(-1 0 0 1 11 7.22266)" fill="white"></rect><rect width="3" height="2.79175" rx="1.39588" transform="matrix(-1 0 0 1 11 0.708984)" fill="white"></rect><rect width="3" height="2.79175" rx="1.39588" transform="matrix(-1 0 0 1 3 0.708984)" fill="white"></rect><rect width="3" height="2.79176" rx="1.39588" transform="matrix(-1 0 0 1 19 13.7373)" fill="white"></rect><rect width="3" height="2.79176" rx="1.39588" transform="matrix(-1 0 0 1 11 13.7373)" fill="white"></rect><rect width="3" height="2.79176" rx="1.39588" transform="matrix(-1 0 0 1 3 7.22266)" fill="white"></rect></svg>