<svg width="49" height="48" viewBox="0 0 49 48" fill="none" xmlns="http://www.w3.org/2000/svg">
<rect x="35.5" y="12" width="8" height="8" rx="3" transform="rotate(90 35.5 12)" stroke="#2559F5" stroke-width="2"/>
<rect x="35.5" y="28" width="8" height="8" rx="3" transform="rotate(90 35.5 28)" stroke="#2559F5" stroke-width="2"/>
<rect x="21.5" y="12" width="8" height="8" rx="3" transform="rotate(90 21.5 12)" stroke="#2559F5" stroke-width="2"/>
<rect x="21.5" y="28" width="8" height="8" rx="3" transform="rotate(90 21.5 28)" stroke="#2559F5" stroke-width="2"/>
<rect x="40.5" y="15" width="2" height="5" rx="1" transform="rotate(90 40.5 15)" fill="#2559F5"/>
<rect x="40.5" y="31" width="2" height="5" rx="1" transform="rotate(90 40.5 31)" fill="#2559F5"/>
<rect x="27.5" y="15" width="2" height="6" rx="1" transform="rotate(90 27.5 15)" fill="#2559F5"/>
<rect x="27.5" y="31" width="2" height="6" rx="1" transform="rotate(90 27.5 31)" fill="#2559F5"/>
<rect x="14.5" y="15" width="2" height="6" rx="1" transform="rotate(90 14.5 15)" fill="#2559F5"/>
<rect x="14.5" y="31" width="2" height="6" rx="1" transform="rotate(90 14.5 31)" fill="#2559F5"/>
</svg>
