<svg width="37" height="49" viewBox="0 0 37 49" fill="none" xmlns="http://www.w3.org/2000/svg">
<path d="M36.2774 6.60723C28.136 -2.03716 14.756 -2.22349 6.39244 6.19123C-1.97112 14.606 -2.15125 28.4351 5.9901 37.0795L11.3424 31.6947C6.09195 26.086 6.21845 17.1397 11.6329 11.6922C17.0473 6.2446 25.7032 6.35474 30.9864 11.9306L36.2774 6.60723Z" fill="#00121F"/>
<path d="M0.722871 42.393C8.86423 51.0373 22.244 51.2235 30.6076 42.8088C38.9711 34.3941 39.1513 20.565 31.01 11.9206L25.6582 17.3051C30.9087 22.9139 30.7822 31.8601 25.3678 37.3077C19.9533 42.7552 11.2975 42.6451 6.01425 37.0693L0.722871 42.393Z" fill="#00121F"/>
</svg>
