<svg width="200" height="500" viewBox="0 0 197 711" fill="none" xmlns="http://www.w3.org/2000/svg">
<path fill-rule="evenodd" clip-rule="evenodd" d="M84.0911 323.878C84.0996 319.723 83.2894 315.606 81.707 311.764C80.1246 307.922 77.8009 304.429 74.8685 301.484C71.9361 298.54 68.4526 296.202 64.6167 294.604C60.7809 293.006 56.6678 292.179 52.5124 292.171L52.5546 271.368C59.4418 271.382 66.2588 272.753 72.6165 275.401C78.9741 278.05 84.7478 281.925 89.608 286.804C94.4681 291.684 98.3195 297.474 100.942 303.842C103.565 310.21 104.908 317.033 104.894 323.92C104.88 330.807 103.509 337.624 100.861 343.982C98.2124 350.34 94.3376 356.113 89.4577 360.973C84.5779 365.834 78.7885 369.685 72.4202 372.308C66.0519 374.931 59.2293 376.273 52.3421 376.259L52.3842 355.457C56.5396 355.465 60.656 354.655 64.4983 353.073C68.3406 351.49 71.8336 349.166 74.7779 346.234C77.7221 343.302 80.06 339.818 81.6579 335.982C83.2559 332.146 84.0827 328.033 84.0911 323.878Z" fill="white"/>
<path opacity="0.5" fill-rule="evenodd" clip-rule="evenodd" d="M20.9089 303.597C20.9005 307.752 21.7106 311.868 23.293 315.711C24.8754 319.553 27.1992 323.046 30.1315 325.99C33.0639 328.935 36.5474 331.272 40.3833 332.87C44.2191 334.468 48.3322 335.295 52.4876 335.304L52.4454 356.106C45.5582 356.092 38.7412 354.722 32.3835 352.073C26.0259 349.425 20.2522 345.55 15.392 340.67C10.5319 335.79 6.6805 330.001 4.05776 323.633C1.43502 317.264 0.0922906 310.442 0.106243 303.555C0.120195 296.667 1.49055 289.85 4.13907 283.493C6.78759 277.135 10.6624 271.361 15.5423 266.501C20.4222 261.641 26.2115 257.79 32.5798 255.167C38.9481 252.544 45.7707 251.201 52.6579 251.215L52.6158 272.018C48.4604 272.01 44.344 272.82 40.5017 274.402C36.6594 275.985 33.1664 278.308 30.2222 281.241C27.2779 284.173 24.94 287.657 23.3421 291.492C21.7441 295.328 20.9173 299.441 20.9089 303.597Z" fill="white"/>
<path opacity="0.43" fill-rule="evenodd" clip-rule="evenodd" d="M84.0911 449.325C84.0996 445.17 83.2894 441.053 81.707 437.211C80.1246 433.369 77.8009 429.876 74.8685 426.932C71.9361 423.987 68.4526 421.649 64.6167 420.051C60.7809 418.453 56.6678 417.627 52.5124 417.618L52.5546 396.816C59.4418 396.83 66.2588 398.2 72.6165 400.848C78.9741 403.497 84.7478 407.372 89.608 412.252C94.4681 417.132 98.3195 422.921 100.942 429.289C103.565 435.658 104.908 442.48 104.894 449.367C104.88 456.255 103.509 463.072 100.861 469.429C98.2124 475.787 94.3376 481.561 89.4577 486.421C84.5779 491.281 78.7885 495.132 72.4202 497.755C66.0519 500.378 59.2293 501.72 52.3421 501.707L52.3842 480.904C56.5396 480.912 60.656 480.102 64.4983 478.52C68.3406 476.937 71.8336 474.614 74.7779 471.681C77.7221 468.749 80.06 465.265 81.6579 461.429C83.2559 457.594 84.0827 453.481 84.0911 449.325Z" fill="white"/>
<path fill-rule="evenodd" clip-rule="evenodd" d="M20.9089 428.597C20.9005 432.752 21.7106 436.868 23.293 440.711C24.8754 444.553 27.1992 448.046 30.1315 450.99C33.0639 453.935 36.5474 456.272 40.3833 457.87C44.2191 459.468 48.3322 460.295 52.4876 460.304L52.4454 481.106C45.5582 481.092 38.7412 479.722 32.3835 477.073C26.0259 474.425 20.2522 470.55 15.392 465.67C10.5319 460.79 6.6805 455.001 4.05776 448.633C1.43502 442.264 0.0922906 435.442 0.106243 428.555C0.120195 421.667 1.49055 414.85 4.13907 408.493C6.78759 402.135 10.6624 396.361 15.5423 391.501C20.4222 386.641 26.2115 382.79 32.5798 380.167C38.9482 377.544 45.7707 376.201 52.6579 376.215L52.6158 397.018C48.4604 397.01 44.344 397.82 40.5017 399.402C36.6594 400.985 33.1664 403.308 30.2222 406.241C27.2779 409.173 24.94 412.657 23.3421 416.492C21.7441 420.328 20.9173 424.441 20.9089 428.597Z" fill="white"/>
<path opacity="0.43" fill-rule="evenodd" clip-rule="evenodd" d="M84.0911 574.153C84.0996 569.998 83.2894 565.882 81.707 562.039C80.1246 558.197 77.8009 554.704 74.8685 551.76C71.9361 548.815 68.4526 546.478 64.6167 544.88C60.7809 543.282 56.6678 542.455 52.5124 542.446L52.5546 521.644C59.4418 521.658 66.2588 523.028 72.6165 525.677C78.9741 528.325 84.7478 532.2 89.608 537.08C94.4681 541.96 98.3195 547.749 100.942 554.117C103.565 560.486 104.908 567.308 104.894 574.195C104.88 581.083 103.509 587.9 100.861 594.257C98.2124 600.615 94.3376 606.389 89.4577 611.249C84.5779 616.109 78.7885 619.96 72.4202 622.583C66.0519 625.206 59.2293 626.549 52.3421 626.535L52.3842 605.732C56.5396 605.74 60.656 604.93 64.4983 603.348C68.3406 601.765 71.8336 599.442 74.7779 596.509C77.7221 593.577 80.06 590.093 81.6579 586.258C83.2559 582.422 84.0827 578.309 84.0911 574.153Z" fill="white"/>
<path fill-rule="evenodd" clip-rule="evenodd" d="M20.9089 553.597C20.9005 557.752 21.7106 561.868 23.293 565.711C24.8754 569.553 27.1992 573.046 30.1315 575.99C33.0639 578.935 36.5474 581.272 40.3833 582.87C44.2191 584.468 48.3322 585.295 52.4876 585.304L52.4454 606.106C45.5582 606.092 38.7412 604.722 32.3835 602.073C26.0259 599.425 20.2522 595.55 15.392 590.67C10.5319 585.79 6.6805 580.001 4.05776 573.633C1.43502 567.264 0.0922906 560.442 0.106243 553.555C0.120195 546.667 1.49055 539.85 4.13907 533.493C6.78759 527.135 10.6624 521.361 15.5423 516.501C20.4222 511.641 26.2115 507.79 32.5798 505.167C38.9482 502.544 45.7707 501.201 52.6579 501.215L52.6158 522.018C48.4604 522.01 44.344 522.82 40.5017 524.402C36.6594 525.985 33.1664 528.308 30.2222 531.241C27.2779 534.173 24.94 537.657 23.3421 541.492C21.7441 545.328 20.9173 549.441 20.9089 553.597Z" fill="white"/>
<path fill-rule="evenodd" clip-rule="evenodd" d="M84.0911 74.0127C84.0996 69.8573 83.2894 65.7409 81.707 61.8986C80.1246 58.0563 77.8009 54.5633 74.8685 51.6191C71.9361 48.6748 68.4526 46.3369 64.6167 44.739C60.7809 43.141 56.6678 42.3142 52.5124 42.3058L52.5546 21.5031C59.4418 21.5171 66.2588 22.8874 72.6165 25.536C78.9741 28.1845 84.7478 32.0593 89.608 36.9392C94.4681 41.819 98.3195 47.6084 100.942 53.9767C103.565 60.345 104.908 67.1676 104.894 74.0548C104.88 80.9421 103.509 87.7591 100.861 94.1167C98.2124 100.474 94.3376 106.248 89.4577 111.108C84.5779 115.968 78.7885 119.82 72.4202 122.443C66.0519 125.065 59.2293 126.408 52.3421 126.394L52.3842 105.591C56.5396 105.6 60.656 104.79 64.4983 103.207C68.3406 101.625 71.8336 99.3011 74.7779 96.3688C77.7221 93.4364 80.06 89.9528 81.6579 86.117C83.2559 82.2811 84.0827 78.1681 84.0911 74.0127Z" fill="white"/>
<path opacity="0.5" fill-rule="evenodd" clip-rule="evenodd" d="M20.9089 53.0205C20.9005 57.1759 21.7106 61.2923 23.293 65.1346C24.8754 68.9769 27.1992 72.4699 30.1315 75.4141C33.0639 78.3584 36.5474 80.6963 40.3833 82.2942C44.2191 83.8922 48.3322 84.719 52.4876 84.7274L52.4454 105.53C45.5582 105.516 38.7412 104.146 32.3835 101.497C26.0259 98.8487 20.2522 94.9739 15.392 90.094C10.5319 85.2142 6.6805 79.4248 4.05776 73.0565C1.43502 66.6882 0.0922906 59.8656 0.106243 52.9784C0.120195 46.0911 1.49055 39.2741 4.13907 32.9165C6.78759 26.5588 10.6624 20.7851 15.5423 15.925C20.4222 11.0648 26.2115 7.21343 32.5798 4.59069C38.9481 1.96795 45.7707 0.625223 52.6579 0.639175L52.6158 21.4418C48.4604 21.4334 44.344 22.2435 40.5017 23.8259C36.6594 25.4084 33.1664 27.7321 30.2222 30.6644C27.2779 33.5968 24.94 37.0804 23.3421 40.9162C21.7441 44.7521 20.9173 48.8651 20.9089 53.0205Z" fill="white"/>
<path opacity="0.43" fill-rule="evenodd" clip-rule="evenodd" d="M84.0911 199.46C84.0996 195.305 83.2894 191.188 81.707 187.346C80.1246 183.504 77.8009 180.011 74.8685 177.066C71.9361 174.122 68.4526 171.784 64.6167 170.186C60.7809 168.588 56.6678 167.761 52.5124 167.753L52.5546 146.95C59.4418 146.964 66.2588 148.335 72.6165 150.983C78.9741 153.632 84.7478 157.507 89.608 162.386C94.4681 167.266 98.3195 173.056 100.942 179.424C103.565 185.792 104.908 192.615 104.894 199.502C104.88 206.389 103.509 213.206 100.861 219.564C98.2124 225.922 94.3376 231.695 89.4577 236.556C84.5779 241.416 78.7885 245.267 72.4202 247.89C66.0519 250.513 59.2293 251.855 52.3421 251.841L52.3842 231.039C56.5396 231.047 60.656 230.237 64.4983 228.655C68.3406 227.072 71.8336 224.748 74.7779 221.816C77.7221 218.884 80.06 215.4 81.6579 211.564C83.2559 207.728 84.0827 203.615 84.0911 199.46Z" fill="white"/>
<path fill-rule="evenodd" clip-rule="evenodd" d="M20.9089 178.597C20.9005 182.752 21.7106 186.868 23.293 190.711C24.8754 194.553 27.1992 198.046 30.1315 200.99C33.0639 203.935 36.5474 206.272 40.3833 207.87C44.2191 209.468 48.3322 210.295 52.4876 210.304L52.4454 231.106C45.5582 231.092 38.7412 229.722 32.3835 227.073C26.0259 224.425 20.2522 220.55 15.392 215.67C10.5319 210.79 6.6805 205.001 4.05776 198.633C1.43502 192.264 0.0922906 185.442 0.106243 178.555C0.120195 171.667 1.49055 164.85 4.13907 158.493C6.78759 152.135 10.6624 146.361 15.5423 141.501C20.4222 136.641 26.2115 132.79 32.5798 130.167C38.9482 127.544 45.7707 126.201 52.6579 126.215L52.6158 147.018C48.4604 147.01 44.344 147.82 40.5017 149.402C36.6594 150.985 33.1664 153.308 30.2222 156.241C27.2779 159.173 24.94 162.657 23.3421 166.492C21.7441 170.328 20.9173 174.441 20.9089 178.597Z" fill="white"/>
<path fill-rule="evenodd" clip-rule="evenodd" d="M176.091 407.345C176.1 403.189 175.289 399.073 173.707 395.231C172.125 391.388 169.801 387.895 166.868 384.951C163.936 382.007 160.453 379.669 156.617 378.071C152.781 376.473 148.668 375.646 144.512 375.638L144.555 354.835C151.442 354.849 158.259 356.219 164.616 358.868C170.974 361.517 176.748 365.391 181.608 370.271C186.468 375.151 190.32 380.94 192.942 387.309C195.565 393.677 196.908 400.5 196.894 407.387C196.88 414.274 195.509 421.091 192.861 427.449C190.212 433.806 186.338 439.58 181.458 444.44C176.578 449.3 170.788 453.152 164.42 455.775C158.052 458.397 151.229 459.74 144.342 459.726L144.384 438.923C148.54 438.932 152.656 438.122 156.498 436.539C160.341 434.957 163.834 432.633 166.778 429.701C169.722 426.768 172.06 423.285 173.658 419.449C175.256 415.613 176.083 411.5 176.091 407.345Z" fill="white"/>
<path opacity="0.5" fill-rule="evenodd" clip-rule="evenodd" d="M112.909 387.063C112.9 391.219 113.711 395.335 115.293 399.178C116.875 403.02 119.199 406.513 122.132 409.457C125.064 412.401 128.547 414.739 132.383 416.337C136.219 417.935 140.332 418.762 144.488 418.77L144.445 439.573C137.558 439.559 130.741 438.189 124.384 435.54C118.026 432.892 112.252 429.017 107.392 424.137C102.532 419.257 98.6805 413.468 96.0578 407.099C93.435 400.731 92.0923 393.909 92.1062 387.021C92.1202 380.134 93.4906 373.317 96.1391 366.959C98.7876 360.602 102.662 354.828 107.542 349.968C112.422 345.108 118.212 341.256 124.58 338.634C130.948 336.011 137.771 334.668 144.658 334.682L144.616 355.485C140.46 355.476 136.344 356.286 132.502 357.869C128.659 359.451 125.166 361.775 122.222 364.707C119.278 367.64 116.94 371.123 115.342 374.959C113.744 378.795 112.917 382.908 112.909 387.063Z" fill="white"/>
<path opacity="0.43" fill-rule="evenodd" clip-rule="evenodd" d="M176.091 532.792C176.1 528.637 175.289 524.52 173.707 520.678C172.125 516.836 169.801 513.343 166.868 510.398C163.936 507.454 160.453 505.116 156.617 503.518C152.781 501.92 148.668 501.093 144.512 501.085L144.555 480.282C151.442 480.296 158.259 481.667 164.616 484.315C170.974 486.964 176.748 490.839 181.608 495.718C186.468 500.598 190.32 506.388 192.942 512.756C195.565 519.124 196.908 525.947 196.894 532.834C196.88 539.721 195.509 546.538 192.861 552.896C190.212 559.254 186.338 565.027 181.458 569.888C176.578 574.748 170.788 578.599 164.42 581.222C158.052 583.845 151.229 585.187 144.342 585.173L144.384 564.371C148.54 564.379 152.656 563.569 156.498 561.987C160.341 560.404 163.834 558.08 166.778 555.148C169.722 552.216 172.06 548.732 173.658 544.896C175.256 541.06 176.083 536.947 176.091 532.792Z" fill="white"/>
<path fill-rule="evenodd" clip-rule="evenodd" d="M112.909 512.063C112.9 516.219 113.711 520.335 115.293 524.178C116.875 528.02 119.199 531.513 122.132 534.457C125.064 537.401 128.547 539.739 132.383 541.337C136.219 542.935 140.332 543.762 144.488 543.77L144.445 564.573C137.558 564.559 130.741 563.189 124.384 560.54C118.026 557.892 112.252 554.017 107.392 549.137C102.532 544.257 98.6805 538.468 96.0578 532.099C93.435 525.731 92.0923 518.909 92.1062 512.021C92.1202 505.134 93.4906 498.317 96.1391 491.959C98.7876 485.602 102.662 479.828 107.542 474.968C112.422 470.108 118.212 466.256 124.58 463.634C130.948 461.011 137.771 459.668 144.658 459.682L144.616 480.485C140.46 480.476 136.344 481.286 132.502 482.869C128.659 484.451 125.166 486.775 122.222 489.707C119.278 492.64 116.94 496.123 115.342 499.959C113.744 503.795 112.917 507.908 112.909 512.063Z" fill="white"/>
<path opacity="0.43" fill-rule="evenodd" clip-rule="evenodd" d="M176.091 657.62C176.1 653.465 175.289 649.348 173.707 645.506C172.125 641.664 169.801 638.171 166.868 635.226C163.936 632.282 160.453 629.944 156.617 628.346C152.781 626.748 148.668 625.922 144.512 625.913L144.555 605.111C151.442 605.125 158.259 606.495 164.616 609.143C170.974 611.792 176.748 615.667 181.608 620.547C186.468 625.426 190.32 631.216 192.942 637.584C195.565 643.952 196.908 650.775 196.894 657.662C196.88 664.549 195.509 671.367 192.861 677.724C190.212 684.082 186.338 689.856 181.458 694.716C176.578 699.576 170.788 703.427 164.42 706.05C158.052 708.673 151.229 710.015 144.342 710.001L144.384 689.199C148.54 689.207 152.656 688.397 156.498 686.815C160.341 685.232 163.834 682.909 166.778 679.976C169.722 677.044 172.06 673.56 173.658 669.724C175.256 665.889 176.083 661.776 176.091 657.62Z" fill="white"/>
<path fill-rule="evenodd" clip-rule="evenodd" d="M112.909 637.063C112.9 641.219 113.711 645.335 115.293 649.178C116.875 653.02 119.199 656.513 122.132 659.457C125.064 662.401 128.547 664.739 132.383 666.337C136.219 667.935 140.332 668.762 144.488 668.77L144.445 689.573C137.558 689.559 130.741 688.189 124.384 685.54C118.026 682.892 112.252 679.017 107.392 674.137C102.532 669.257 98.6805 663.468 96.0578 657.099C93.435 650.731 92.0923 643.909 92.1062 637.021C92.1202 630.134 93.4906 623.317 96.1391 616.959C98.7876 610.602 102.662 604.828 107.542 599.968C112.422 595.108 118.212 591.256 124.58 588.634C130.948 586.011 137.771 584.668 144.658 584.682L144.616 605.485C140.46 605.476 136.344 606.286 132.502 607.869C128.659 609.451 125.166 611.775 122.222 614.707C119.278 617.64 116.94 621.123 115.342 624.959C113.744 628.795 112.917 632.908 112.909 637.063Z" fill="white"/>
<path fill-rule="evenodd" clip-rule="evenodd" d="M176.091 157.479C176.1 153.324 175.289 149.208 173.707 145.365C172.125 141.523 169.801 138.03 166.868 135.086C163.936 132.142 160.453 129.804 156.617 128.206C152.781 126.608 148.668 125.781 144.512 125.773L144.555 104.97C151.442 104.984 158.259 106.354 164.616 109.003C170.974 111.651 176.748 115.526 181.608 120.406C186.468 125.286 190.32 131.075 192.942 137.444C195.565 143.812 196.908 150.634 196.894 157.522C196.88 164.409 195.509 171.226 192.861 177.584C190.212 183.941 186.338 189.715 181.458 194.575C176.578 199.435 170.788 203.287 164.42 205.909C158.052 208.532 151.229 209.875 144.342 209.861L144.384 189.058C148.54 189.067 152.656 188.256 156.498 186.674C160.341 185.092 163.834 182.768 166.778 179.836C169.722 176.903 172.06 173.42 173.658 169.584C175.256 165.748 176.083 161.635 176.091 157.479Z" fill="white"/>
<path opacity="0.5" fill-rule="evenodd" clip-rule="evenodd" d="M112.909 136.487C112.9 140.643 113.711 144.759 115.293 148.601C116.875 152.444 119.199 155.937 122.132 158.881C125.064 161.825 128.547 164.163 132.383 165.761C136.219 167.359 140.332 168.186 144.488 168.194L144.445 188.997C137.558 188.983 130.741 187.613 124.384 184.964C118.026 182.316 112.252 178.441 107.392 173.561C102.532 168.681 98.6805 162.892 96.0578 156.523C93.435 150.155 92.0923 143.332 92.1062 136.445C92.1202 129.558 93.4906 122.741 96.1391 116.383C98.7876 110.026 102.662 104.252 107.542 99.3918C112.422 94.5316 118.212 90.6802 124.58 88.0575C130.948 85.4347 137.771 84.092 144.658 84.106L144.616 104.909C140.46 104.9 136.344 105.71 132.502 107.293C128.659 108.875 125.166 111.199 122.222 114.131C119.278 117.064 116.94 120.547 115.342 124.383C113.744 128.219 112.917 132.332 112.909 136.487Z" fill="white"/>
<path opacity="0.43" fill-rule="evenodd" clip-rule="evenodd" d="M176.091 282.927C176.1 278.771 175.289 274.655 173.707 270.813C172.125 266.97 169.801 263.477 166.868 260.533C163.936 257.589 160.453 255.251 156.617 253.653C152.781 252.055 148.668 251.228 144.512 251.22L144.555 230.417C151.442 230.431 158.259 231.802 164.616 234.45C170.974 237.099 176.748 240.973 181.608 245.853C186.468 250.733 190.32 256.522 192.942 262.891C195.565 269.259 196.908 276.082 196.894 282.969C196.88 289.856 195.509 296.673 192.861 303.031C190.212 309.388 186.338 315.162 181.458 320.022C176.578 324.882 170.788 328.734 164.42 331.357C158.052 333.979 151.229 335.322 144.342 335.308L144.384 314.505C148.54 314.514 152.656 313.704 156.498 312.121C160.341 310.539 163.834 308.215 166.778 305.283C169.722 302.35 172.06 298.867 173.658 295.031C175.256 291.195 176.083 287.082 176.091 282.927Z" fill="white"/>
<path fill-rule="evenodd" clip-rule="evenodd" d="M112.909 262.063C112.9 266.219 113.711 270.335 115.293 274.178C116.875 278.02 119.199 281.513 122.132 284.457C125.064 287.401 128.547 289.739 132.383 291.337C136.219 292.935 140.332 293.762 144.488 293.77L144.445 314.573C137.558 314.559 130.741 313.189 124.384 310.54C118.026 307.892 112.252 304.017 107.392 299.137C102.532 294.257 98.6805 288.468 96.0578 282.099C93.435 275.731 92.0923 268.909 92.1062 262.021C92.1202 255.134 93.4906 248.317 96.1391 241.959C98.7876 235.602 102.662 229.828 107.542 224.968C112.422 220.108 118.212 216.256 124.58 213.634C130.948 211.011 137.771 209.668 144.658 209.682L144.616 230.485C140.46 230.476 136.344 231.286 132.502 232.869C128.659 234.451 125.166 236.775 122.222 239.707C119.278 242.64 116.94 246.123 115.342 249.959C113.744 253.795 112.917 257.908 112.909 262.063Z" fill="white"/>
</svg>
