<svg width="49" height="48" viewBox="0 0 49 48" fill="none" xmlns="http://www.w3.org/2000/svg">
<path d="M43.5 27.0001C43.5 28.657 42.1569 30.0001 40.5 30.0001L36.5 30.0001C34.8431 30.0001 33.5 28.657 33.5 27.0001L33.5 23.0001C33.5 21.3433 34.8431 20.0001 36.5 20.0001L40.5 20.0001C42.1569 20.0001 43.5 21.3433 43.5 23.0001L43.5 27.0001Z" fill="#2559F5" stroke="#2559F5" stroke-width="2"/>
<path d="M15.5 25.0001C15.5 26.657 14.1569 28.0001 12.5 28.0001C10.8431 28.0001 9.5 26.657 9.5 25.0001C9.5 23.3433 10.8431 22.0001 12.5 22.0001C14.1569 22.0001 15.5 23.3433 15.5 25.0001Z" stroke="#2559F5" stroke-width="2"/>
<path d="M26.5 8.00012C26.5 9.65698 25.1569 11.0001 23.5 11.0001C21.8431 11.0001 20.5 9.65698 20.5 8.00012C20.5 6.34327 21.8431 5.00012 23.5 5.00012C25.1569 5.00012 26.5 6.34327 26.5 8.00012Z" stroke="#2559F5" stroke-width="2"/>
<path d="M26.5 40.0001C26.5 41.657 25.1569 43.0001 23.5 43.0001C21.8431 43.0001 20.5 41.657 20.5 40.0001C20.5 38.3433 21.8431 37.0001 23.5 37.0001C25.1569 37.0001 26.5 38.3433 26.5 40.0001Z" stroke="#2559F5" stroke-width="2"/>
<path d="M33.5 25L15.5 25" stroke="#2559F5" stroke-width="2"/>
<path d="M35.5 20L25.5 10" stroke="#2559F5" stroke-width="2"/>
<path d="M34.5 29L25.5 38" stroke="#2559F5" stroke-width="2"/>
</svg>
